<?xml version="1.0" encoding="utf-8"?>
<!-- Generator: Adobe Illustrator 24.0.0, SVG Export Plug-In . SVG Version: 6.00 Build 0)  -->
<svg version="1.1" xmlns="http://www.w3.org/2000/svg" xmlns:xlink="http://www.w3.org/1999/xlink" x="0px" y="0px"
	 viewBox="0 0 200 68.2" style="enable-background:new 0 0 200 68.2;" xml:space="preserve">
<style type="text/css">
	.st0{opacity:0.6;fill:#D4FFFD;}
	.st1{fill:#00F2FF;}
	.st2{fill:#00BAD7;}
</style>
<g id="Ñëîé_1">
</g>
<g id="Ñëîé_3">
	<g>
		<polygon class="st0" points="145.7,38.1 145.1,34.5 143.6,32.3 		"/>
		<path class="st0" d="M140.3,30.2l3.3,2.1c-2.7-0.6-5.3-1.1-8-1.7C137.2,30.5,138.7,30.4,140.3,30.2z"/>
		<polygon class="st0" points="134.7,29.1 140.3,30.2 140.7,31.6 		"/>
		<polygon class="st0" points="128,28.5 134.7,29.1 130.3,30 		"/>
		<path class="st0" d="M119.5,29l8.5-0.5c-1.7,2-3.4,4-5,5.9C121.8,32.6,120.6,30.8,119.5,29z"/>
		<path class="st0" d="M132.8,33.8c2.4-0.2,4.8-0.4,7.1-0.5c1.2,0.7,2.5,1.4,3.7,2.1C140.1,34.8,136.5,34.3,132.8,33.8z"/>
		<path class="st0" d="M127.5,28.6c2.3,0.1,4.5,0.2,6.8,0.3c-1.6,0.9-3.2,1.7-4.8,2.6C128.8,30.5,128.2,29.6,127.5,28.6z"/>
		<path class="st0" d="M110.9,30.5l8.6-1.4c1.3,0.4,2.6,0.9,3.9,1.3C119.2,30.4,115,30.5,110.9,30.5z"/>
		<path class="st0" d="M104.9,30.6l6.1-0.2c-1,1.1-2,2.2-3,3.3C107,32.7,106,31.6,104.9,30.6z"/>
		<polygon class="st0" points="129.8,42 131.9,43.4 128.4,43 		"/>
		<polygon class="st0" points="128.9,37.2 129.8,42 128.4,43 		"/>
		<path class="st0" d="M145.7,38c-1.7-2.1-3.4-4.3-5.1-6.4c1,0.2,2,0.5,3,0.7C144.3,34.2,145,36.1,145.7,38z"/>
		<polygon class="st0" points="128.9,37.2 128.4,43 126.3,38.9 		"/>
		<path class="st0" d="M97.7,28.9l7.2,1.7c1,1,2.1,2,3.1,3C104.6,32.1,101.1,30.5,97.7,28.9z"/>
		<polygon class="st0" points="92.4,28.4 97.7,28.9 99.2,32.1 		"/>
		<path class="st0" d="M97.8,29c2.3,0.5,4.6,1.1,7,1.6c-3,1-6,2-8.9,3C96.5,32.1,97.2,30.6,97.8,29z"/>
		<polygon class="st0" points="87.8,25.7 92.4,28.4 82.9,26.5 		"/>
		<path class="st0" d="M79.3,19.9l8.4,5.8c-0.9,1.4-1.7,2.8-2.6,4.2C83.2,26.6,81.3,23.2,79.3,19.9z"/>
		<path class="st0" d="M92.1,28.1c2.4,1.4,4.8,2.7,7.1,4.1c-4.7-0.8-9.4-1.6-14.1-2.3C87.5,29.3,89.8,28.7,92.1,28.1z"/>
		<polygon class="st0" points="134.7,29.1 140.7,31.6 130.3,30 		"/>
		<path class="st0" d="M126.3,38.9c2.2-1.6,4.3-3.3,6.5-4.9c-1.5,0-3.1,0.1-4.6,0.1C127.6,35.7,127,37.3,126.3,38.9z"/>
		<path class="st0" d="M107.7,32.1l3.1-1.6c1.5,0.8,3,1.6,4.6,2.3C112.9,32.6,110.3,32.3,107.7,32.1z"/>
		<polygon class="st0" points="99.2,32.1 104.9,30.6 107.8,32 		"/>
		<path class="st0" d="M71.2,15.9l8.2,4c-0.3,1.1-0.6,2.3-0.9,3.4C76,20.9,73.6,18.4,71.2,15.9z"/>
		<polygon class="st0" points="60.6,12.4 71.2,15.9 72.4,19.2 		"/>
		<polygon class="st0" points="50.1,11.1 55.1,10.4 60.6,12.4 		"/>
		<path class="st0" d="M42.6,12.4l7.5-1.4c0.6,0.9,1.2,1.8,1.8,2.7C48.8,13.3,45.7,12.9,42.6,12.4z"/>
		<polygon class="st0" points="72.4,19.2 79.3,19.9 82.9,26.5 		"/>
		<polygon class="st0" points="37.7,14.5 42.6,12.4 47.7,13.6 		"/>
		<path class="st0" d="M191.2,23.9c1.1-1.5,2.2-3,3.3-4.5c-0.3-0.6-0.6-1.2-1-1.8L191.2,23.9z"/>
		<path class="st0" d="M190.5,15.6c1,0.7,2,1.4,3,2c-2.4-0.2-4.8-0.5-7.2-0.7C187.7,16.4,189.1,16,190.5,15.6z"/>
		<path class="st0" d="M184.1,17.5c0.8-0.5,1.6-0.9,2.5-1.4c1.3-0.2,2.6-0.4,3.9-0.6C188.3,16.2,186.2,16.9,184.1,17.5z"/>
		<polygon class="st0" points="177.8,21.9 184.1,17.5 181.5,21.2 		"/>
		<path class="st0" d="M177.9,21.8c2.9-1.9,5.7-3.9,8.6-5.8c-0.1,1-0.1,2.1-0.2,3.1C183.5,20,180.7,20.9,177.9,21.8z"/>
		<polygon class="st0" points="171.3,27.4 177.8,21.9 181.5,21.2 		"/>
		<polygon class="st0" points="169.4,29 172.3,34.8 171.3,27.4 		"/>
		<polygon class="st0" points="161.1,34.4 169.4,29 165.4,33.6 		"/>
		<path class="st0" d="M165.2,31.7c3-2.3,6.1-4.6,9.1-6.9c-0.9,1.9-1.8,3.9-2.7,5.8C169.5,31,167.3,31.3,165.2,31.7z"/>
		<path class="st0" d="M154.2,39.3l6.9-4.8c1.5-0.3,3-0.6,4.5-0.9C161.8,35.4,158,37.3,154.2,39.3z"/>
		<polygon class="st0" points="151.1,40.5 154.2,39.3 151.7,44.7 		"/>
		<polygon class="st0" points="146.9,41.1 150.3,41.1 151.1,45.1 		"/>
		<path class="st0" d="M184.1,17.5l6.4-2c1.3,1.2,2.5,2.5,3.8,3.7C190.9,18.7,187.5,18.1,184.1,17.5z"/>
		<polygon class="st0" points="157.1,38.8 161.1,34.4 165.4,33.6 		"/>
		<polygon class="st0" points="151.7,44.7 154.2,39.3 157.1,38.8 		"/>
		<polygon class="st0" points="165.7,8.3 164.9,6.6 161.7,6 		"/>
		<path class="st0" d="M156.8,6.5c2.6,0,5.3,0,7.9,0c-4.1,1-8.2,2-12.3,3C153.8,8.5,155.3,7.5,156.8,6.5z"/>
		<path class="st0" d="M149.3,8.2l7.4-1.7c-0.4,1.2-0.7,2.5-1.1,3.7C153.5,9.6,151.4,8.9,149.3,8.2z"/>
		<polygon class="st0" points="144.8,9.8 149.3,8.2 148.7,9.6 		"/>
		<path class="st0" d="M158.5,6.4c1.5,0,3,0,4.5-0.1c-1,0.9-1.9,1.9-2.9,2.8C159.5,8.2,159,7.3,158.5,6.4z"/>
		<path class="st0" d="M135.5,13.2c3.1-1.1,6.2-2.3,9.4-3.4l-5.4,0.9C138.1,11.5,136.8,12.4,135.5,13.2z"/>
		<polygon class="st0" points="134.5,11.8 139.4,10.7 135.6,13 		"/>
		<polygon class="st0" points="128.9,14.2 134.5,11.8 135.6,13 		"/>
		<path class="st0" d="M123.3,14.4c0.3,1.3,0.7,2.7,1,4c1.5-1.5,3.1-2.9,4.6-4.4C127,14.2,125.2,14.3,123.3,14.4z"/>
		<path class="st0" d="M115.8,15.7c2.5-0.4,5.1-0.9,7.6-1.3c-1.2,0.8-2.3,1.5-3.5,2.3L115.8,15.7z"/>
		<polygon class="st0" points="148.7,9.6 149.3,8.2 152.7,9.4 		"/>
		<path class="st0" d="M145,14.8c-0.1-1.7-0.1-3.4-0.2-5l3.9-0.2C147.5,11.3,146.2,13.1,145,14.8z"/>
		<polygon class="st0" points="139.4,10.7 144.9,12.2 135.6,13 		"/>
		<polygon class="st0" points="119.9,16.7 123.4,14.4 126.4,15.8 		"/>
		<polygon class="st0" points="112.2,16.7 115.8,15.7 116.6,19.5 		"/>
		<polygon class="st0" points="104.1,16 112.2,16.7 109.9,19.5 		"/>
		<path class="st0" d="M97.6,15.6l6.5,0.4c-2,1.1-4.1,2.2-6.1,3.4C97.8,18.1,97.7,16.9,97.6,15.6z"/>
		<polygon class="st0" points="88.9,13.2 97.6,15.6 97.9,19.5 		"/>
		<polygon class="st0" points="78.3,11 88.9,13.2 83.6,15.5 		"/>
		<polygon class="st0" points="67.4,8.4 78.3,11 83.6,15.5 		"/>
		<polygon class="st0" points="56.7,6.1 67.4,8.4 65,9.3 		"/>
		<path class="st0" d="M55.1,10.3c5.4,1.9,10.9,3.8,16.3,5.7c-3.5,0.1-7.1,0.2-10.6,0.3C58.9,14.3,57,12.3,55.1,10.3z"/>
		<polygon class="st0" points="47.9,4.5 56.7,6.1 47.6,5.7 		"/>
		<polygon class="st0" points="40.6,5 47.9,4.5 47.6,5.7 		"/>
		<polygon class="st0" points="34.9,6.8 40.6,5 40.5,7.1 		"/>
		<polygon class="st0" points="30.4,8.9 34.9,6.8 33.6,9.2 		"/>
		<path class="st0" d="M23.3,11.8l6.1-1.7c-4.1,2.4-8.2,4.7-12.3,7.1C19.2,15.3,21.2,13.6,23.3,11.8z"/>
		<polygon class="st0" points="16.4,13.8 23.3,11.8 23.8,14.5 		"/>
		<path class="st0" d="M3.2,18.8l13.2-5c0.5,0.9,1,1.8,1.6,2.7C13,17.3,8.1,18.1,3.2,18.8z"/>
		<polygon class="st0" points="32.5,10.5 29.4,10 23.8,14.5 		"/>
		<polygon class="st0" points="105.9,18 97.6,15.6 97.9,19.5 		"/>
		<polygon class="st0" points="109.9,19.5 104.1,16 105.9,18 		"/>
		<polygon class="st0" points="195.3,7.4 197.8,9.8 193.7,8.5 		"/>
		<path class="st0" d="M191.4,7.1l4,0.2c0.9,1.5,1.7,3,2.6,4.4C195.7,10.2,193.5,8.7,191.4,7.1z"/>
		<path class="st0" d="M186.1,8.6l5.2-1.5c-2.3,2-4.6,3.9-6.9,5.9C185,11.6,185.6,10.1,186.1,8.6z"/>
		<polygon class="st0" points="179.5,13.3 186.1,8.6 189,9.6 		"/>
		<polygon class="st0" points="172.9,19.3 179.5,13.3 172.9,21.5 		"/>
		<polygon class="st0" points="168.2,21.6 172.9,19.3 172.9,21.5 		"/>
		<path class="st0" d="M161.5,26.3l6.7-4.7c1.5-0.1,3-0.1,4.5-0.2C169,23,165.2,24.7,161.5,26.3z"/>
		<path class="st0" d="M155.3,31.1c0.1-0.3,6.2-4.8,6.2-4.8l-1.1,2.7L155.3,31.1z"/>
		<polygon class="st0" points="152.4,32 155.3,31.1 152.7,34.9 		"/>
		<path class="st0" d="M149.9,33c0.8-0.3,1.7-0.7,2.5-1c0.4,1.6,0.7,3.3,1.1,4.9C152.2,35.6,151.1,34.3,149.9,33z"/>
		<polygon class="st0" points="189,9.6 191.4,7.1 193.7,8.5 		"/>
		<polygon class="st0" points="160.4,29 161.5,26.3 168.5,23.4 		"/>
		<polygon class="st0" points="145.7,32.8 149.9,33 152.7,34.9 		"/>
		<path class="st0" d="M183,3.3c0.6,0.6,1.2,1.2,1.8,1.8c0.2,1,0.5,2,0.7,3C184.7,6.5,183.9,4.9,183,3.3z"/>
		<path class="st0" d="M177.4,2.7c1.9,0.2,3.7,0.4,5.6,0.5c-0.7,0.8-1.5,1.7-2.2,2.5C179.6,4.8,178.5,3.7,177.4,2.7z"/>
		<path class="st0" d="M172.9,4.8c1.5-0.7,3-1.4,4.4-2.2c-2.5,2.1-5,4.3-7.5,6.4C170.9,7.7,171.9,6.2,172.9,4.8z"/>
		<path class="st0" d="M177.5,2.7c2.6,1.8,5.3,3.7,7.9,5.5c-0.8-1.6-1.6-3.2-2.4-4.9C181.2,3.1,179.4,2.9,177.5,2.7z"/>
		<path class="st0" d="M180.8,5.8c0.8-0.8,1.5-1.7,2.3-2.5c0.7,1.6,1.5,3.1,2.2,4.7C183.8,7.3,182.3,6.5,180.8,5.8z"/>
		<path class="st0" d="M166.3,8.6c2.2-1.2,4.4-2.5,6.6-3.7c-3.6,3.4-7.2,6.7-10.7,10.1C163.6,12.8,164.9,10.7,166.3,8.6z"/>
		<path class="st0" d="M160.8,12c1.8-1.1,3.7-2.3,5.5-3.4c1.2,0.1,2.4,0.3,3.6,0.4C166.9,10,163.8,11,160.8,12z"/>
		<path class="st0" d="M169.5,7c2.6-1.4,5.1-2.8,7.7-4.1c1.1,0.9,2.1,1.9,3.2,2.8C176.8,6.1,173.2,6.6,169.5,7z"/>
		<path class="st0" d="M161.9,15.1c-0.3-1.1-0.7-2.1-1-3.2c-1.8,0.7-3.5,1.4-5.3,2.1C157.6,14.4,159.8,14.8,161.9,15.1z"/>
		<path class="st0" d="M149.4,17.1c2.1-1,4.1-2.1,6.2-3.1c-0.7,1-1.4,2-2.2,3L149.4,17.1z"/>
		<polygon class="st0" points="143,21 149.4,17.1 153.4,17.1 		"/>
		<polygon class="st0" points="136.9,22.2 143,21 142.5,24.7 		"/>
		<path class="st0" d="M130.8,24c2.1-0.6,4.1-1.2,6.2-1.7c-1.1,0.7-2.1,1.4-3.2,2.1L130.8,24z"/>
		<polygon class="st0" points="126.4,26.1 130.8,24 133.8,24.4 		"/>
		<path class="st0" d="M172.9,4.8c2.6,0.3,5.2,0.6,7.8,1L169.9,9C170.9,7.6,171.9,6.2,172.9,4.8z"/>
		<polygon class="st0" points="153.4,17.1 155.6,14.1 161.9,15.1 		"/>
		<g>
			<path class="st1" d="M145.7,38.1l-2.1-5.8c0,0,0-0.1,0-0.1c0,0,0.1,0,0.1,0l1.6,2.2c0,0,0,0,0,0l0.6,3.5
				C145.8,38.1,145.8,38.1,145.7,38.1C145.7,38.2,145.7,38.1,145.7,38.1C145.7,38.1,145.7,38.1,145.7,38.1z M143.9,32.9l1.6,4.4
				l-0.4-2.7L143.9,32.9z"/>
		</g>
		<g>
			<path class="st1" d="M140.7,31.6l-0.5-1.3c0,0,0-0.1,0-0.1c0,0,0.1,0,0.1,0l3.3,2.1c0,0,0,0.1,0,0.1c0,0-0.1,0.1-0.1,0
				L140.7,31.6C140.7,31.6,140.7,31.6,140.7,31.6C140.7,31.6,140.7,31.6,140.7,31.6z M140.4,30.4l0.4,1.1l2.3,0.6L140.4,30.4z"/>
		</g>
		<g>
			<path class="st1" d="M134.7,29.1C134.7,29,134.7,29,134.7,29.1l5.6,1.1c0,0,0,0,0.1,0.1l0.5,1.3c0,0,0,0.1,0,0.1c0,0-0.1,0-0.1,0
				L134.7,29.1C134.7,29.2,134.7,29.2,134.7,29.1C134.7,29.1,134.7,29.1,134.7,29.1z M140.2,30.3l-4.7-1l5.1,2.1L140.2,30.3z"/>
		</g>
		<g>
			<path class="st1" d="M127.9,28.5C127.9,28.5,127.9,28.4,127.9,28.5l6.9,0.5c0,0,0.1,0,0.1,0.1c0,0,0,0.1-0.1,0.1l-4.5,0.8
				c0,0,0,0-0.1,0L127.9,28.5C127.9,28.6,127.9,28.6,127.9,28.5C127.9,28.5,127.9,28.5,127.9,28.5z M134.2,29.1l-5.9-0.5l2,1.2
				L134.2,29.1z"/>
		</g>
		<g>
			<path class="st1" d="M119.4,29C119.4,29,119.4,29,119.4,29l8.6-0.6c0,0,0.1,0,0.1,0.1c0,0,0,0.1-0.1,0.1l-5,1.7c0,0,0,0,0,0
				L119.4,29C119.4,29.1,119.4,29.1,119.4,29C119.4,29.1,119.4,29.1,119.4,29z M127.4,28.6l-7.5,0.5l3.1,1L127.4,28.6z"/>
		</g>
		<g>
			<path class="st1" d="M110.8,30.5C110.8,30.5,110.8,30.4,110.8,30.5l8.7-1.5c0,0,0.1,0,0.1,0c0,0,0,0.1,0,0.1l-1.4,1.3
				c0,0,0,0,0,0L110.8,30.5C110.8,30.6,110.8,30.6,110.8,30.5C110.8,30.5,110.8,30.5,110.8,30.5z M119.2,29.2l-7.3,1.2l6.1-0.2
				L119.2,29.2z"/>
		</g>
		<g>
			<path class="st1" d="M104.8,30.6C104.8,30.6,104.9,30.5,104.8,30.6l6.2-0.3c0,0,0.1,0,0.1,0.1c0,0,0,0.1,0,0.1l-3.2,1.6
				c0,0,0,0-0.1,0L104.8,30.6C104.9,30.7,104.9,30.7,104.8,30.6C104.8,30.7,104.8,30.6,104.8,30.6z M110.6,30.5l-5.4,0.2l2.6,1.2
				L110.6,30.5z"/>
		</g>
		<g>
			<path class="st1" d="M131.8,43.4C131.8,43.4,131.9,43.4,131.8,43.4l8.5-0.5c0,0,0.1,0,0.1,0.1c0,0,0,0.1,0,0.1l-3.9,1.4
				c0,0,0,0,0,0L131.8,43.4C131.9,43.5,131.9,43.5,131.8,43.4C131.8,43.5,131.8,43.4,131.8,43.4z M139.8,43.1l-7.3,0.3l4,0.9
				L139.8,43.1z"/>
		</g>
		<g>
			<path class="st1" d="M127.2,47C127.2,47,127.2,46.9,127.2,47l4.6-3.6c0,0,0,0,0.1,0l4.6,1c0,0,0.1,0,0.1,0.1c0,0,0,0.1-0.1,0.1
				L127.2,47C127.3,47.1,127.3,47,127.2,47C127.2,47,127.2,47,127.2,47z M131.9,43.5l-4.3,3.3l8.5-2.4L131.9,43.5z"/>
		</g>
		<g>
			<path class="st1" d="M117.4,49C117.4,48.9,117.4,48.9,117.4,49l5.1-3c0,0,0,0,0.1,0l4.8,0.9c0,0,0.1,0,0.1,0.1c0,0,0,0.1-0.1,0.1
				L117.4,49C117.5,49,117.5,49,117.4,49C117.5,49,117.4,49,117.4,49z M122.6,46.2l-4.6,2.6l8.9-1.8L122.6,46.2z"/>
		</g>
		<g>
			<path class="st1" d="M109.5,50l1-2c0,0,0,0,0.1,0l6.9,0.9c0,0,0.1,0,0.1,0.1c0,0,0,0.1-0.1,0.1l-7.9,1.1
				C109.6,50.1,109.6,50.1,109.5,50C109.5,50,109.5,50,109.5,50C109.5,50,109.5,50,109.5,50z M110.6,48.1l-0.9,1.8l7.2-1L110.6,48.1
				z"/>
		</g>
		<g>
			<path class="st1" d="M128.3,43C128.3,42.9,128.3,42.9,128.3,43l1.5-1c0,0,0.1,0,0.1,0l2.1,1.4c0,0,0,0.1,0,0.1c0,0,0,0.1-0.1,0
				L128.3,43C128.4,43,128.4,43,128.3,43C128.3,43,128.3,43,128.3,43z M129.8,42.1l-1.2,0.8l3,0.4L129.8,42.1z"/>
		</g>
		<g>
			<path class="st1" d="M128.3,43l0.5-5.8c0,0,0-0.1,0.1-0.1c0,0,0.1,0,0.1,0.1l0.9,4.8c0,0,0,0.1,0,0.1l-1.4,1
				C128.4,43,128.4,43,128.3,43C128.4,43,128.4,43,128.3,43C128.3,43,128.3,43,128.3,43z M128.9,37.7l-0.4,5.1l1.3-0.8L128.9,37.7z"
				/>
		</g>
		<g>
			<path class="st1" d="M128.8,37.2l0.6-2.5c0,0,0,0,0.1-0.1l3.2-1c0,0,0.1,0,0.1,0c0,0,0,0.1,0,0.1l-3.8,3.5
				C128.9,37.3,128.9,37.3,128.8,37.2C128.8,37.2,128.8,37.2,128.8,37.2C128.8,37.2,128.8,37.2,128.8,37.2z M129.6,34.8l-0.5,2.2
				l3.3-3.1L129.6,34.8z"/>
		</g>
		<g>
			<path class="st1" d="M132.6,33.7C132.6,33.6,132.6,33.6,132.6,33.7l4.1-1.7c0,0,0,0,0.1,0l3.1,1.1c0,0,0.1,0,0.1,0.1
				c0,0,0,0.1-0.1,0.1L132.6,33.7C132.7,33.7,132.6,33.7,132.6,33.7C132.6,33.7,132.6,33.7,132.6,33.7z M136.8,32.1l-3.6,1.4
				l6.3-0.5L136.8,32.1z"/>
		</g>
		<g>
			<path class="st1" d="M139.8,33l0.8-1.5c0,0,0,0,0.1,0c0,0,0.1,0,0.1,0l3,3.8c0,0,0,0.1,0,0.1c0,0-0.1,0-0.1,0l-3.8-2.3
				C139.8,33.1,139.8,33.1,139.8,33C139.8,33.1,139.8,33.1,139.8,33z M140.7,31.7L140,33l3.4,2L140.7,31.7z"/>
		</g>
		<g>
			<path class="st1" d="M127.2,46.9l1.1-4c0,0,0-0.1,0.1-0.1l3.5,0.5c0,0,0.1,0,0.1,0.1c0,0,0,0.1,0,0.1l-4.6,3.5
				C127.3,47.1,127.3,47.1,127.2,46.9C127.2,47,127.2,47,127.2,46.9C127.2,47,127.2,47,127.2,46.9z M128.5,43l-1,3.7l4.3-3.3
				L128.5,43z"/>
		</g>
		<g>
			<path class="st1" d="M143.7,35.4l-0.2-3.1c0,0,0-0.1,0.1-0.1c0,0,0.1,0,0.1,0l2.1,5.7c0,0,0,0.1,0,0.1c0,0-0.1,0-0.1,0
				L143.7,35.4C143.7,35.4,143.7,35.4,143.7,35.4C143.7,35.4,143.7,35.4,143.7,35.4z M143.7,32.8l0.2,2.5l1.6,2.2L143.7,32.8z"/>
		</g>
		<g>
			<path class="st1" d="M141.5,42.8C141.5,42.8,141.5,42.7,141.5,42.8l4.5-2.4c0,0,0.1,0,0.1,0c0,0,0,0.1,0,0.1l-1.9,2c0,0,0,0,0,0
				L141.5,42.8C141.5,42.9,141.5,42.9,141.5,42.8C141.5,42.8,141.5,42.8,141.5,42.8z M145.6,40.8l-3.6,1.9l2.1-0.3L145.6,40.8z"/>
		</g>
		<g>
			<path class="st1" d="M141.5,42.7l4.2-4.7c0,0,0.1,0,0.1,0c0,0,0,0,0.1,0.1l0.2,2.4c0,0,0,0.1,0,0.1l-4.5,2.3
				C141.6,42.9,141.5,42.9,141.5,42.7C141.5,42.8,141.5,42.8,141.5,42.7C141.5,42.8,141.5,42.8,141.5,42.7z M145.7,38.3l-3.8,4.2
				l4-2.1L145.7,38.3z"/>
		</g>
		<g>
			<path class="st1" d="M141.5,42.8l-0.2-4.6c0,0,0,0,0-0.1c0,0,0,0,0.1,0l4.4,0c0,0,0.1,0,0.1,0c0,0,0,0.1,0,0.1l-4.3,4.6
				C141.6,42.9,141.6,42.9,141.5,42.8C141.5,42.9,141.5,42.8,141.5,42.8C141.5,42.8,141.5,42.8,141.5,42.8z M141.5,38.3l0.1,4.3
				l4-4.3L141.5,38.3z"/>
		</g>
		<g>
			<path class="st1" d="M131.8,43.5C131.8,43.4,131.9,43.4,131.8,43.5l9.5-5.3c0,0,0.1,0,0.1,0c0,0,0,0,0,0.1l0.2,4.6
				c0,0,0,0.1-0.1,0.1L131.8,43.5C131.9,43.5,131.9,43.5,131.8,43.5C131.9,43.5,131.9,43.5,131.8,43.5z M141.3,38.3l-9.1,5l9.2-0.6
				L141.3,38.3z"/>
		</g>
		<g>
			<path class="st1" d="M129.8,42l-0.9-4.8c0,0,0,0,0-0.1c0,0,0,0,0.1,0l12.5,1c0,0,0.1,0,0.1,0.1c0,0,0,0.1-0.1,0.1L129.8,42
				C129.8,42.1,129.8,42.1,129.8,42C129.8,42.1,129.8,42.1,129.8,42C129.8,42,129.8,42,129.8,42z M129,37.3l0.9,4.6l11.1-3.7
				L129,37.3z"/>
		</g>
		<g>
			<path class="st1" d="M128.3,43l-2.1-4.1c0,0,0-0.1,0-0.1l2.6-1.7c0,0,0.1,0,0.1,0c0,0,0,0,0,0.1l-0.5,5.8
				C128.5,43,128.5,43,128.3,43C128.4,43,128.4,43,128.3,43C128.3,43,128.3,43,128.3,43z M126.4,38.9l1.9,3.8l0.4-5.4L126.4,38.9z"
				/>
		</g>
		<g>
			<path class="st1" d="M99.1,32.2L97.6,29c0,0,0-0.1,0-0.1c0,0,0,0,0.1,0l7.2,1.7c0,0,0.1,0,0.1,0.1c0,0,0,0.1-0.1,0.1L99.1,32.2
				C99.2,32.2,99.2,32.2,99.1,32.2C99.1,32.2,99.1,32.2,99.1,32.2z M97.8,29l1.4,3l5.3-1.4L97.8,29z"/>
		</g>
		<g>
			<path class="st1" d="M102.7,49.9C102.7,49.9,102.8,49.9,102.7,49.9l7.9-2c0,0,0.1,0,0.1,0c0,0,0,0.1,0,0.1l-1,2c0,0,0,0-0.1,0
				L102.7,49.9C102.8,50,102.8,50,102.7,49.9C102.8,50,102.7,50,102.7,49.9z M110.5,48.1l-7,1.7l6.1,0L110.5,48.1z"/>
		</g>
		<g>
			<path class="st1" d="M92.3,28.3C92.3,28.3,92.3,28.3,92.3,28.3l5.4,0.5c0,0,0,0,0.1,0l1.5,3.2c0,0,0,0.1,0,0.1c0,0-0.1,0-0.1,0
				L92.3,28.3C92.3,28.4,92.3,28.4,92.3,28.3C92.3,28.4,92.3,28.4,92.3,28.3z M97.6,29l-4.9-0.5l6.3,3.5L97.6,29z"/>
		</g>
		<g>
			<path class="st1" d="M82.9,26.5C82.9,26.5,82.9,26.5,82.9,26.5l4.9-0.9c0,0,0,0,0.1,0l4.6,2.6c0,0,0,0.1,0,0.1c0,0,0,0.1-0.1,0
				L82.9,26.5C82.9,26.6,82.9,26.6,82.9,26.5C82.9,26.6,82.9,26.6,82.9,26.5z M87.7,25.8l-4.4,0.7l8.5,1.6L87.7,25.8z"/>
		</g>
		<g>
			<path class="st1" d="M82.9,26.6l-3.6-6.6c0,0,0-0.1,0-0.1c0,0,0.1,0,0.1,0l8.4,5.8c0,0,0,0,0,0.1c0,0,0,0.1-0.1,0.1L82.9,26.6
				C82.9,26.6,82.9,26.6,82.9,26.6C82.9,26.6,82.9,26.6,82.9,26.6z M79.6,20.2l3.4,6.3l4.6-0.8L79.6,20.2z"/>
		</g>
		<g>
			<path class="st1" d="M94.2,50.6C94.2,50.5,94.2,50.5,94.2,50.6l1.5-2.5c0,0,0.1,0,0.1,0l7,1.9c0,0,0.1,0,0.1,0.1
				c0,0,0,0.1-0.1,0.1L94.2,50.6C94.2,50.6,94.2,50.6,94.2,50.6C94.2,50.6,94.2,50.6,94.2,50.6z M95.8,48.2l-1.4,2.3l7.9-0.5
				L95.8,48.2z"/>
		</g>
		<g>
			<path class="st1" d="M122.5,46.1C122.5,46.1,122.5,46,122.5,46.1l5.9-3.2c0,0,0.1,0,0.1,0c0,0,0,0.1,0,0.1l-1.1,4
				c0,0,0,0.1-0.1,0.1L122.5,46.1C122.5,46.1,122.5,46.1,122.5,46.1C122.5,46.1,122.5,46.1,122.5,46.1z M128.3,43.1l-5.5,2.9
				l4.5,0.8L128.3,43.1z"/>
		</g>
		<g>
			<path class="st1" d="M130.2,30C130.2,29.9,130.2,29.9,130.2,30l4.5-0.9c0,0,0,0,0,0l6,2.5c0,0,0.1,0.1,0,0.1c0,0,0,0.1-0.1,0.1
				L130.2,30C130.2,30,130.2,30,130.2,30C130.2,30,130.2,30,130.2,30z M134.7,29.2l-4,0.8l9.4,1.5L134.7,29.2z"/>
		</g>
		<g>
			<path class="st1" d="M136.7,32C136.7,32,136.7,31.9,136.7,32l4-0.5c0,0,0.1,0,0.1,0c0,0,0,0.1,0,0.1l-0.8,1.5c0,0-0.1,0-0.1,0
				L136.7,32C136.7,32.1,136.7,32.1,136.7,32C136.7,32,136.7,32,136.7,32z M140.6,31.7l-3.5,0.4l2.7,0.9L140.6,31.7z"/>
		</g>
		<g>
			<path class="st1" d="M129.4,34.7l0.2-3.2c0,0,0-0.1,0-0.1c0,0,0.1,0,0.1,0l3,2.2c0,0,0,0,0,0.1c0,0,0,0.1-0.1,0.1l-3.2,1
				C129.5,34.8,129.5,34.8,129.4,34.7C129.4,34.8,129.4,34.8,129.4,34.7C129.4,34.7,129.4,34.7,129.4,34.7z M129.8,31.6l-0.2,3
				l2.9-1L129.8,31.6z"/>
		</g>
		<g>
			<path class="st1" d="M126.3,38.8l3.2-4.2c0,0,0.1,0,0.1,0c0,0,0.1,0.1,0,0.1l-0.6,2.5c0,0,0,0,0,0l-2.6,1.7
				C126.3,38.9,126.3,38.9,126.3,38.8C126.3,38.9,126.3,38.9,126.3,38.8C126.2,38.9,126.2,38.8,126.3,38.8z M129.3,35l-2.7,3.5
				l2.2-1.4L129.3,35z"/>
		</g>
		<g>
			<path class="st1" d="M129.6,31.5C129.6,31.4,129.7,31.4,129.6,31.5l7.1,0.5c0,0,0.1,0,0.1,0.1c0,0,0,0.1,0,0.1l-4.1,1.6
				c0,0-0.1,0-0.1,0L129.6,31.5C129.7,31.5,129.7,31.5,129.6,31.5C129.6,31.5,129.6,31.5,129.6,31.5z M136.4,32.1l-6.5-0.5l2.7,2
				L136.4,32.1z"/>
		</g>
		<g>
			<path class="st1" d="M122.5,46l3.8-7.2c0,0,0,0,0.1,0c0,0,0.1,0,0.1,0l2.1,4.1c0,0,0,0.1,0,0.1l-5.9,3.1
				C122.5,46.2,122.5,46.2,122.5,46C122.5,46.1,122.5,46.1,122.5,46C122.5,46.1,122.5,46.1,122.5,46z M126.3,39l-3.6,6.9l5.6-3
				L126.3,39z"/>
		</g>
		<g>
			<path class="st1" d="M110.5,48C110.5,48,110.5,48,110.5,48l12-2c0,0,0.1,0,0.1,0.1c0,0,0,0.1,0,0.1l-5,2.9c0,0,0,0,0,0L110.5,48
				C110.6,48.1,110.5,48.1,110.5,48C110.5,48.1,110.5,48,110.5,48z M122.1,46.2l-11,1.8l6.4,0.8L122.1,46.2z"/>
		</g>
		<g>
			<path class="st1" d="M132.6,33.6C132.6,33.6,132.6,33.6,132.6,33.6l7.3-0.6c0,0,0.1,0,0.1,0.1l1.5,5.1c0,0,0,0.1,0,0.1
				c0,0-0.1,0-0.1,0L132.6,33.6C132.6,33.7,132.6,33.7,132.6,33.6C132.6,33.7,132.6,33.7,132.6,33.6z M139.8,33.2l-6.9,0.6l8.3,4.3
				L139.8,33.2z"/>
		</g>
		<g>
			<path class="st1" d="M122.9,30.2C122.9,30.2,122.9,30.1,122.9,30.2l5.1-1.7c0,0,0.1,0,0.1,0l1.7,3c0,0,0,0.1,0,0.1c0,0,0,0-0.1,0
				L122.9,30.2C122.9,30.3,122.9,30.3,122.9,30.2C122.9,30.2,122.9,30.2,122.9,30.2z M127.9,28.6l-4.7,1.6l6.3,1.2L127.9,28.6z"/>
		</g>
		<g>
			<path class="st1" d="M118,30.3C118,30.3,118,30.3,118,30.3l1.4-1.4c0,0,0,0,0.1,0l3.5,1.1c0,0,0.1,0,0.1,0.1c0,0,0,0.1-0.1,0.1
				L118,30.3C118.1,30.4,118,30.4,118,30.3C118,30.3,118,30.3,118,30.3z M119.5,29.1l-1.2,1.1l4.2-0.1L119.5,29.1z"/>
		</g>
		<g>
			<path class="st1" d="M123,34.1l-0.1-4c0,0,0,0,0-0.1c0,0,0,0,0.1,0l6.8,1.3c0,0,0.1,0,0.1,0.1c0,0,0,0.1,0,0.1l-6.7,2.7
				C123,34.2,123,34.2,123,34.1C123,34.2,123,34.2,123,34.1C123,34.2,123,34.2,123,34.1z M123,30.3l0.1,3.7l6.3-2.5L123,30.3z"/>
		</g>
		<g>
			<path class="st1" d="M107.7,32.1C107.7,32.1,107.7,32,107.7,32.1l3.2-1.7c0,0,0,0,0,0l7.2-0.2c0,0,0.1,0,0.1,0.1
				c0,0,0,0.1-0.1,0.1L107.7,32.1C107.7,32.2,107.7,32.1,107.7,32.1C107.7,32.1,107.7,32.1,107.7,32.1z M110.9,30.6l-2.6,1.3
				l8.8-1.5L110.9,30.6z"/>
		</g>
		<g>
			<path class="st1" d="M110.5,48C110.5,48,110.5,48,110.5,48l15.8-9.3c0,0,0.1,0,0.1,0c0,0,0,0.1,0,0.1l-3.8,7.2c0,0,0,0-0.1,0
				L110.5,48C110.6,48.1,110.6,48.1,110.5,48C110.5,48.1,110.5,48.1,110.5,48z M126.1,39.1L111,47.9l11.5-1.9L126.1,39.1z"/>
		</g>
		<g>
			<path class="st1" d="M118,30.3C118,30.3,118,30.2,118,30.3l4.9-0.2c0,0,0,0,0.1,0c0,0,0,0,0,0.1l0.1,4c0,0,0,0.1,0,0.1
				c0,0-0.1,0-0.1,0L118,30.3C118,30.4,118,30.4,118,30.3C118,30.3,118,30.3,118,30.3z M122.9,30.3l-4.6,0.1l4.7,3.6L122.9,30.3z"/>
		</g>
		<g>
			<path class="st1" d="M107.7,32.1C107.7,32,107.7,32,107.7,32.1l10.4-1.8c0,0,0,0,0.1,0l5,3.8c0,0,0,0.1,0,0.1c0,0,0,0.1-0.1,0
				L107.7,32.1C107.7,32.1,107.7,32.1,107.7,32.1C107.7,32.1,107.7,32.1,107.7,32.1z M118.1,30.4l-9.8,1.7l14.5,2L118.1,30.4z"/>
		</g>
		<g>
			<path class="st1" d="M99.1,32.1C99.1,32.1,99.2,32.1,99.1,32.1l5.8-1.6c0,0,0,0,0.1,0l2.9,1.4c0,0,0.1,0.1,0,0.1
				c0,0,0,0.1-0.1,0.1L99.1,32.1C99.2,32.2,99.2,32.2,99.1,32.1C99.1,32.2,99.1,32.1,99.1,32.1z M104.9,30.7L99.8,32l7.7-0.1
				L104.9,30.7z"/>
		</g>
		<g>
			<path class="st1" d="M129.6,31.5l-1.7-3c0,0,0-0.1,0-0.1c0,0,0.1,0,0.1,0l2.3,1.4c0,0,0,0.1,0,0.1l-0.6,1.5
				C129.8,31.5,129.7,31.6,129.6,31.5C129.7,31.6,129.7,31.6,129.6,31.5C129.6,31.5,129.6,31.5,129.6,31.5z M128.2,28.8l1.5,2.6
				l0.5-1.3L128.2,28.8z"/>
		</g>
		<g>
			<path class="st1" d="M123,34.2C122.9,34.1,123,34.1,123,34.2l6.7-2.7c0,0,0.1,0,0.1,0c0,0,0,0,0,0.1l-0.2,3.2c0,0,0,0,0,0.1
				c0,0,0,0-0.1,0L123,34.2C123,34.2,123,34.2,123,34.2C123,34.2,123,34.2,123,34.2z M129.6,31.6l-6.3,2.5l6.1,0.5L129.6,31.6z"/>
		</g>
		<g>
			<path class="st1" d="M84.7,52C84.7,51.9,84.7,51.9,84.7,52l11.1-4c0,0,0.1,0,0.1,0c0,0,0,0.1,0,0.1l-1.5,2.4c0,0,0,0-0.1,0
				L84.7,52C84.7,52,84.7,52,84.7,52C84.7,52,84.7,52,84.7,52z M95.6,48.2l-10.1,3.5l8.7-1.3L95.6,48.2z"/>
		</g>
		<g>
			<path class="st1" d="M77.6,52.4C77.6,52.4,77.6,52.4,77.6,52.4l7.9-5c0,0,0.1,0,0.1,0c0,0,0,0,0,0.1L84.8,52c0,0,0,0.1-0.1,0.1
				L77.6,52.4C77.7,52.5,77.7,52.5,77.6,52.4C77.6,52.4,77.6,52.4,77.6,52.4z M85.5,47.7L78,52.3l6.7-0.4L85.5,47.7z"/>
		</g>
		<g>
			<path class="st1" d="M72.3,19.2L71.1,16c0,0,0-0.1,0-0.1c0,0,0.1,0,0.1,0l8.2,4c0,0,0.1,0.1,0,0.1c0,0,0,0.1-0.1,0.1L72.3,19.2
				C72.4,19.3,72.4,19.2,72.3,19.2C72.4,19.2,72.4,19.2,72.3,19.2z M71.3,16.1l1.1,3l6.4,0.7L71.3,16.1z"/>
		</g>
		<g>
			<path class="st1" d="M60.5,12.4C60.5,12.3,60.6,12.3,60.5,12.4l10.7,3.5c0,0,0,0,0,0l1.2,3.2c0,0,0,0.1,0,0.1c0,0-0.1,0-0.1,0
				L60.5,12.4C60.5,12.4,60.5,12.4,60.5,12.4C60.5,12.4,60.5,12.4,60.5,12.4z M71.1,16l-9.8-3.3l11,6.3L71.1,16z"/>
		</g>
		<g>
			<path class="st1" d="M50,11.1C50,11,50.1,11,50,11.1l5-0.7c0,0,0,0,0,0l5.5,1.9c0,0,0.1,0.1,0,0.1c0,0,0,0.1-0.1,0.1L50,11.1
				C50.1,11.1,50.1,11.1,50,11.1C50,11.1,50,11.1,50,11.1z M55,10.5l-4.3,0.5l9.2,1.2L55,10.5z"/>
		</g>
		<g>
			<path class="st1" d="M42.5,12.4C42.5,12.4,42.6,12.4,42.5,12.4l7.6-1.5c0,0,0.1,0,0.1,0c0,0,0,0.1,0,0.1l-2.4,2.6c0,0,0,0-0.1,0
				L42.5,12.4C42.6,12.5,42.6,12.5,42.5,12.4C42.5,12.5,42.5,12.5,42.5,12.4z M49.9,11.2L43,12.4l4.6,1.1L49.9,11.2z"/>
		</g>
		<g>
			<path class="st1" d="M123,34.1C123,34.1,123,34.1,123,34.1l6.5,0.5c0,0,0.1,0,0.1,0c0,0,0,0.1,0,0.1l-3.2,4.2c0,0,0,0-0.1,0
				c0,0,0,0-0.1,0L123,34.1C122.9,34.2,122.9,34.1,123,34.1z M129.3,34.8l-6.2-0.5l3.1,4.5L129.3,34.8z"/>
		</g>
		<g>
			<path class="st1" d="M110.5,48L123,34.1c0,0,0,0,0.1,0c0,0,0,0,0.1,0l3.3,4.7c0,0,0,0,0,0.1c0,0,0,0,0,0.1l-15.7,9.2
				c0,0-0.1,0-0.1,0C110.5,48.1,110.5,48.1,110.5,48C110.5,48,110.5,48,110.5,48z M123,34.3l-12,13.4l15.2-8.9L123,34.3z"/>
		</g>
		<g>
			<path class="st1" d="M99.1,32.1C99.1,32.1,99.2,32,99.1,32.1l8.7-0.2c0,0,0.1,0,0.1,0.1l0.7,6c0,0,0,0.1,0,0.1c0,0-0.1,0-0.1,0
				L99.1,32.1C99.2,32.2,99.2,32.2,99.1,32.1C99.1,32.1,99.1,32.1,99.1,32.1z M107.8,32.1l-8.3,0.1l8.9,5.6L107.8,32.1z"/>
		</g>
		<g>
			<path class="st1" d="M102.8,49.9l5.7-11.9c0,0,0,0,0.1,0c0,0,0.1,0,0.1,0.1l2.1,10c0,0,0,0.1-0.1,0.1l-7.8,1.9
				C102.8,50,102.8,50,102.8,49.9C102.8,50,102.8,50,102.8,49.9C102.7,50,102.7,49.9,102.8,49.9z M108.5,38.2L103,49.8l7.6-1.9
				L108.5,38.2z"/>
		</g>
		<g>
			<path class="st1" d="M95.7,48.1C95.7,48.1,95.7,48,95.7,48.1l12.7-10.2c0,0,0.1,0,0.1,0c0,0,0,0.1,0,0.1L102.9,50
				c0,0-0.1,0.1-0.1,0L95.7,48.1C95.8,48.1,95.8,48.1,95.7,48.1C95.7,48.1,95.7,48.1,95.7,48.1z M108.3,38.3L96,48l6.8,1.8
				L108.3,38.3z"/>
		</g>
		<g>
			<path class="st1" d="M95.7,48.1l3.4-16c0,0,0,0,0-0.1c0,0,0,0,0.1,0l9.3,5.9c0,0,0,0,0,0.1c0,0,0,0,0,0.1L95.9,48.1
				C95.8,48.2,95.8,48.2,95.7,48.1C95.8,48.1,95.7,48.1,95.7,48.1C95.7,48.1,95.7,48.1,95.7,48.1z M99.3,32.2l-3.3,15.6l12.5-9.9
				L99.3,32.2z"/>
		</g>
		<g>
			<path class="st1" d="M84.7,51.9l0.8-4.4c0,0,0-0.1,0.1-0.1L95.8,48c0,0,0.1,0,0.1,0.1c0,0,0,0.1-0.1,0.1L84.8,52
				C84.7,52,84.7,52,84.7,51.9C84.7,52,84.7,52,84.7,51.9C84.7,52,84.7,51.9,84.7,51.9z M85.6,47.6l-0.8,4.2l10.6-3.7L85.6,47.6z"/>
		</g>
		<g>
			<path class="st1" d="M90.4,37.3l1.9-9c0,0,0,0,0-0.1c0,0,0,0,0.1,0l6.9,3.8c0,0,0,0,0,0.1c0,0,0,0.1,0,0.1l-8.8,5.2
				C90.5,37.4,90.4,37.4,90.4,37.3C90.4,37.4,90.4,37.4,90.4,37.3C90.4,37.4,90.4,37.3,90.4,37.3z M92.4,28.5l-1.8,8.7l8.5-5
				L92.4,28.5z"/>
		</g>
		<g>
			<path class="st1" d="M82.9,26.5C82.9,26.5,82.9,26.5,82.9,26.5l9.5,1.8c0,0,0,0,0,0c0,0,0,0,0,0.1l-1.9,9c0,0,0,0.1-0.1,0.1
				c0,0-0.1,0-0.1,0L82.9,26.5C82.9,26.6,82.9,26.5,82.9,26.5z M92.3,28.4l-9.2-1.8l7.3,10.5L92.3,28.4z"/>
		</g>
		<g>
			<path class="st1" d="M85.5,47.6C85.5,47.5,85.5,47.5,85.5,47.6l4.9-10.3c0,0,0,0,0.1,0c0,0,0.1,0,0.1,0L95.9,48c0,0,0,0.1,0,0.1
				c0,0,0,0-0.1,0L85.5,47.6C85.6,47.6,85.5,47.6,85.5,47.6C85.5,47.6,85.5,47.6,85.5,47.6z M90.5,37.5l-4.7,9.9l10,0.6L90.5,37.5z"
				/>
		</g>
		<g>
			<path class="st1" d="M108.4,38l-0.7-6c0,0,0,0,0-0.1c0,0,0,0,0.1,0l15.3,2.1c0,0,0.1,0,0.1,0.1c0,0,0,0.1-0.1,0.1L108.4,38
				C108.4,38.1,108.4,38.1,108.4,38C108.4,38.1,108.4,38.1,108.4,38C108.4,38.1,108.4,38.1,108.4,38z M107.8,32.2l0.7,5.8l14.1-3.8
				L107.8,32.2z"/>
		</g>
		<g>
			<path class="st1" d="M72.3,19.2C72.4,19.1,72.4,19.1,72.3,19.2l7,0.7c0,0,0,0,0.1,0l3.6,6.6c0,0,0,0.1,0,0.1c0,0-0.1,0-0.1,0
				L72.3,19.2C72.4,19.2,72.4,19.2,72.3,19.2C72.3,19.2,72.3,19.2,72.3,19.2z M79.3,20l-6.6-0.7l10,7L79.3,20z"/>
		</g>
		<g>
			<path class="st1" d="M85.5,47.5L80.7,37c0,0,0-0.1,0-0.1c0,0,0,0,0.1,0l9.7,0.4c0,0,0,0,0.1,0c0,0,0,0,0,0.1l-4.9,10.2
				C85.6,47.6,85.6,47.6,85.5,47.5C85.6,47.6,85.5,47.6,85.5,47.5C85.5,47.6,85.5,47.5,85.5,47.5z M80.9,37l4.7,10.3l4.7-9.9
				L80.9,37z"/>
		</g>
		<g>
			<path class="st1" d="M71.3,28.5C71.3,28.5,71.3,28.5,71.3,28.5l11.6-2.1c0,0,0.1,0,0.1,0c0,0,0,0,0,0.1L80.9,37c0,0,0,0-0.1,0.1
				c0,0-0.1,0-0.1,0L71.3,28.5C71.3,28.6,71.3,28.6,71.3,28.5C71.3,28.6,71.3,28.6,71.3,28.5z M82.8,26.6l-11.3,2l9.2,8.2L82.8,26.6
				z"/>
		</g>
		<g>
			<path class="st1" d="M61.9,29.2C61.9,29.2,61.9,29.2,61.9,29.2l10.5-10.1c0,0,0.1,0,0.1,0c0,0,0,0,0,0.1l-1.1,9.4
				c0,0,0,0.1-0.1,0.1L61.9,29.2C61.9,29.3,61.9,29.3,61.9,29.2C61.9,29.2,61.9,29.2,61.9,29.2z M72.3,19.4l-10.1,9.7l9.1-0.6
				L72.3,19.4z"/>
		</g>
		<g>
			<path class="st1" d="M77.6,52.4l-8.6-13c0,0,0,0,0-0.1c0,0,0,0,0.1,0l11.7-2.4c0,0,0.1,0,0.1,0c0,0,0,0,0,0.1l-3.1,15.5
				C77.8,52.4,77.8,52.5,77.6,52.4C77.7,52.5,77.7,52.5,77.6,52.4C77.6,52.4,77.6,52.4,77.6,52.4z M69.2,39.4l8.5,12.8l3-15.2
				L69.2,39.4z"/>
		</g>
		<g>
			<path class="st1" d="M69,39.4l2.3-10.8c0,0,0,0,0.1-0.1c0,0,0.1,0,0.1,0l9.4,8.4c0,0,0,0,0,0.1c0,0,0,0-0.1,0.1L69,39.4
				C69.1,39.5,69,39.4,69,39.4C69,39.4,69,39.4,69,39.4C69,39.4,69,39.4,69,39.4z M71.4,28.7l-2.2,10.6l11.4-2.4L71.4,28.7z"/>
		</g>
		<g>
			<path class="st1" d="M61.9,29.2l-1.4-16.8c0,0,0-0.1,0-0.1c0,0,0.1,0,0.1,0l11.8,6.8c0,0,0,0,0,0.1c0,0,0,0,0,0.1L62,29.2
				C62,29.3,62,29.3,61.9,29.2C61.9,29.3,61.9,29.3,61.9,29.2C61.9,29.2,61.9,29.2,61.9,29.2z M60.7,12.5L62,29l10.3-9.8L60.7,12.5z
				"/>
		</g>
		<g>
			<path class="st1" d="M61.9,29.2L50,11.1c0,0,0-0.1,0-0.1c0,0,0,0,0.1,0l10.5,1.3c0,0,0.1,0,0.1,0.1L62,29.2
				C62.1,29.2,62,29.3,61.9,29.2C62,29.3,61.9,29.3,61.9,29.2C61.9,29.2,61.9,29.2,61.9,29.2z M50.3,11.2l11.6,17.7l-1.3-16.4
				L50.3,11.2z"/>
		</g>
		<g>
			<path class="st1" d="M47.6,13.6l2.4-2.6c0,0,0,0,0.1,0c0,0,0,0,0.1,0L62,29.2c0,0,0,0.1,0,0.1c0,0-0.1,0-0.1,0L47.6,13.7
				C47.6,13.7,47.6,13.7,47.6,13.6C47.6,13.6,47.6,13.6,47.6,13.6z M50.1,11.2l-2.3,2.4l13.6,14.8L50.1,11.2z"/>
		</g>
		<g>
			<path class="st1" d="M56.3,37.8L49,26.4c0,0,0-0.1,0-0.1c0,0,0,0,0.1,0L62,29.1c0,0,0,0,0.1,0c0,0,0,0.1,0,0.1l-5.6,8.5
				C56.4,37.8,56.4,37.8,56.3,37.8C56.3,37.8,56.3,37.8,56.3,37.8C56.3,37.8,56.3,37.8,56.3,37.8z M49.2,26.4l7.2,11.1l5.5-8.3
				L49.2,26.4z"/>
		</g>
		<g>
			<path class="st1" d="M66.3,50.8L69,39.4c0,0,0-0.1,0.1-0.1c0,0,0.1,0,0.1,0l8.6,13c0,0,0,0.1,0,0.1c0,0,0,0-0.1,0L66.3,50.8
				C66.3,50.9,66.3,50.9,66.3,50.8C66.3,50.8,66.3,50.8,66.3,50.8z M69.1,39.6l-2.7,11.2l11.1,1.6L69.1,39.6z"/>
		</g>
		<g>
			<path class="st1" d="M56.3,37.7C56.3,37.7,56.3,37.7,56.3,37.7l5.6-8.6c0,0,0,0,0.1,0c0,0,0,0,0.1,0l7.1,10.2c0,0,0,0.1,0,0.1
				c0,0,0,0-0.1,0C67.8,39.3,56.6,38,56.3,37.7C56.3,37.8,56.3,37.8,56.3,37.7C56.3,37.7,56.3,37.7,56.3,37.7z M62,29.3l-5.5,8.3
				c0.9,0.2,7.7,1.1,12.4,1.6L62,29.3z"/>
		</g>
		<g>
			<path class="st1" d="M37.6,14.5C37.6,14.5,37.6,14.5,37.6,14.5l5-2.2c0,0,0,0,0,0l5.1,1.2c0,0,0.1,0,0.1,0.1c0,0,0,0.1-0.1,0.1
				L37.6,14.5C37.6,14.6,37.6,14.6,37.6,14.5C37.6,14.6,37.6,14.6,37.6,14.5z M42.6,12.5l-4.5,1.9l9-0.8L42.6,12.5z"/>
		</g>
		<g>
			<path class="st1" d="M49,26.3l-1.4-12.7c0,0,0-0.1,0-0.1c0,0,0.1,0,0.1,0L62,29.1c0,0,0,0.1,0,0.1c0,0-0.1,0-0.1,0L49,26.3
				C49,26.4,49,26.4,49,26.3C49,26.4,49,26.3,49,26.3z M47.8,13.8l1.3,12.4l12.6,2.8L47.8,13.8z"/>
		</g>
		<g>
			<path class="st1" d="M45.2,36.1C45.2,36,45.2,36,45.2,36.1l3.7-9.8c0,0,0,0,0.1,0c0,0,0.1,0,0.1,0l7.3,11.4c0,0,0,0.1,0,0.1
				c0,0,0,0-0.1,0L45.2,36.1C45.3,36.1,45.2,36.1,45.2,36.1C45.2,36.1,45.2,36.1,45.2,36.1z M49.1,26.5L45.4,36l10.8,1.6L49.1,26.5z
				"/>
		</g>
		<g>
			<path class="st1" d="M50,42.9C50,42.9,50,42.9,50,42.9l6.3-5.3c0,0,0,0,0.1,0c0,0,0,0,0.1,0l10,13.1c0,0,0,0.1,0,0.1
				c0,0-0.1,0-0.1,0L50,42.9C50.1,43,50,43,50,42.9C50,43,50,43,50,42.9z M56.4,37.8l-6.1,5.1l15.8,7.7L56.4,37.8z"/>
		</g>
		<g>
			<path class="st1" d="M191.1,23.9l2.3-6.3c0,0,0,0,0.1-0.1c0,0,0.1,0,0.1,0l1,1.8c0,0,0,0.1,0,0.1l-3.3,4.5
				C191.2,24,191.2,24,191.1,23.9C191.1,24,191.1,24,191.1,23.9C191.1,23.9,191.1,23.9,191.1,23.9z M193.5,17.8l-2.1,5.6l3-4
				L193.5,17.8z"/>
		</g>
		<g>
			<path class="st1" d="M191.1,23.9l-0.6-8.4c0,0,0-0.1,0-0.1c0,0,0.1,0,0.1,0l3,2c0,0,0,0.1,0,0.1l-2.3,6.3
				C191.2,24,191.2,24,191.1,23.9C191.1,24,191.1,24,191.1,23.9C191.1,23.9,191.1,23.9,191.1,23.9z M190.6,15.7l0.6,7.8l2.2-5.9
				L190.6,15.7z"/>
		</g>
		<g>
			<path class="st1" d="M184,17.5C184,17.5,184,17.5,184,17.5l2.5-1.5c0,0,0,0,0,0l3.9-0.6c0,0,0.1,0,0.1,0.1c0,0,0,0.1-0.1,0.1
				L184,17.5C184.1,17.6,184,17.6,184,17.5C184,17.5,184,17.5,184,17.5z M186.6,16.2l-1.8,1l4.7-1.4L186.6,16.2z"/>
		</g>
		<g>
			<path class="st1" d="M186.2,31.2l2.7-9.5c0,0,0,0,0.1-0.1c0,0,0.1,0,0.1,0l2.2,2.2c0,0,0,0.1,0,0.1l-4.9,7.3
				C186.3,31.3,186.3,31.3,186.2,31.2C186.2,31.2,186.2,31.2,186.2,31.2C186.2,31.2,186.2,31.2,186.2,31.2z M189,21.9l-2.5,8.9
				l4.6-6.8L189,21.9z"/>
		</g>
		<g>
			<path class="st1" d="M182.1,35.9l0.5-3.7c0,0,0-0.1,0.1-0.1l3.5-1c0,0,0.1,0,0.1,0c0,0,0,0.1,0,0.1l-4.1,4.7
				C182.2,36,182.2,36,182.1,35.9C182.2,36,182.1,35.9,182.1,35.9C182.1,35.9,182.1,35.9,182.1,35.9z M182.8,32.2l-0.5,3.4l3.7-4.3
				L182.8,32.2z"/>
		</g>
		<g>
			<path class="st1" d="M170.9,45.9l2.7-5.8c0,0,0,0,0,0l8.6-4.3c0,0,0.1,0,0.1,0c0,0,0,0.1,0,0.1L171,46
				C170.9,46.1,170.9,46.1,170.9,45.9C170.9,46,170.9,46,170.9,45.9C170.8,46,170.8,46,170.9,45.9z M173.7,40.2l-2.6,5.4l10.6-9.4
				L173.7,40.2z"/>
		</g>
		<g>
			<path class="st1" d="M162.8,52.7l1.6-5.4c0,0,0,0,0.1-0.1l6.4-1.4c0,0,0.1,0,0.1,0c0,0,0,0.1,0,0.1l-8,6.8
				C162.9,52.8,162.9,52.8,162.8,52.7C162.9,52.8,162.9,52.8,162.8,52.7C162.8,52.8,162.8,52.7,162.8,52.7z M164.6,47.4l-1.5,5.1
				l7.6-6.4L164.6,47.4z"/>
		</g>
		<g>
			<path class="st2" d="M154.9,57.7c0,0,0-0.1,0-0.1l8-5c0,0,0.1,0,0.1,0c0,0,0,0.1,0,0.1l-3.9,3.2c0,0,0,0,0,0L154.9,57.7
				C154.9,57.8,154.9,57.8,154.9,57.7C154.9,57.8,154.9,57.8,154.9,57.7z M162,53.4l-6.2,3.8l3.2-1.3L162,53.4z"/>
		</g>
		<g>
			<path class="st2" d="M149,59.3C149,59.3,149,59.2,149,59.3l3.2-3.1c0,0,0.1,0,0.1,0l2.6,1.5c0,0,0,0,0,0.1c0,0,0,0.1-0.1,0.1
				L149,59.3C149,59.4,149,59.3,149,59.3C149,59.3,149,59.3,149,59.3z M152.2,56.4l-2.9,2.8l5.3-1.3L152.2,56.4z"/>
		</g>
		<g>
			<path class="st2" d="M142.1,61.3C142.1,61.3,142.1,61.3,142.1,61.3l3-3c0,0,0,0,0.1,0l3.8,0.9c0,0,0.1,0,0.1,0.1
				c0,0,0,0.1-0.1,0.1L142.1,61.3C142.2,61.4,142.2,61.4,142.1,61.3C142.1,61.3,142.1,61.3,142.1,61.3z M145.2,58.4l-2.7,2.7
				l6.3-1.8L145.2,58.4z"/>
		</g>
		<g>
			<path class="st2" d="M133.5,62.1C133.5,62.1,133.5,62,133.5,62.1l11.7-3.8c0,0,0.1,0,0.1,0c0,0,0,0.1,0,0.1l-3,2.9c0,0,0,0,0,0
				L133.5,62.1C133.6,62.2,133.5,62.1,133.5,62.1C133.5,62.1,133.5,62.1,133.5,62.1z M144.9,58.5l-10.6,3.4l7.9-0.7L144.9,58.5z"/>
		</g>
		<g>
			<path class="st2" d="M125.4,63.5C125.3,63.5,125.3,63.5,125.4,63.5l3.5-3c0,0,0,0,0.1,0l4.6,1.5c0,0,0.1,0,0.1,0.1
				c0,0,0,0.1-0.1,0.1L125.4,63.5C125.4,63.6,125.4,63.6,125.4,63.5C125.4,63.5,125.4,63.5,125.4,63.5z M128.9,60.7l-3.2,2.7
				l7.6-1.3L128.9,60.7z"/>
		</g>
		<g>
			<path class="st2" d="M120.3,64.1C120.3,64.1,120.3,64,120.3,64.1l8.6-3.6c0,0,0.1,0,0.1,0c0,0,0,0.1,0,0.1l-3.5,2.9c0,0,0,0,0,0
				L120.3,64.1C120.4,64.2,120.3,64.2,120.3,64.1C120.3,64.1,120.3,64.1,120.3,64.1z M128.5,60.9l-7.5,3.1l4.4-0.5L128.5,60.9z"/>
		</g>
		<g>
			<path class="st2" d="M112,65.4C112,65.3,112,65.3,112,65.4l8.4-1.4c0,0,0.1,0,0.1,0.1c0,0,0,0.1,0,0.1l-3.9,1.7c0,0,0,0,0,0
				L112,65.4C112,65.5,112,65.4,112,65.4C112,65.4,112,65.4,112,65.4z M119.8,64.3l-7.1,1.1l3.8,0.4L119.8,64.3z"/>
		</g>
		<g>
			<path class="st2" d="M102.6,63.4C102.6,63.3,102.6,63.3,102.6,63.4l9.5,1.9c0,0,0.1,0,0.1,0.1c0,0,0,0.1-0.1,0.1l-3.2,0.1
				c0,0,0,0,0,0L102.6,63.4C102.6,63.5,102.6,63.5,102.6,63.4C102.6,63.4,102.6,63.4,102.6,63.4z M111.4,65.3l-7.6-1.6l5,1.7
				L111.4,65.3z"/>
		</g>
		<g>
			<path class="st2" d="M92.7,61.5C92.7,61.5,92.8,61.5,92.7,61.5c3.2-0.2,11.4-0.6,11.7-0.6c0,0,0.1,0,0.1,0
				c0.1,0.1,0.1,0.1-1.8,2.6c0,0,0,0-0.1,0L92.7,61.5C92.8,61.6,92.7,61.6,92.7,61.5C92.7,61.6,92.7,61.6,92.7,61.5z M104.3,61
				c-1.2,0.1-7.8,0.4-10.8,0.5l9.1,1.7C103.2,62.6,104,61.4,104.3,61z"/>
		</g>
		<g>
			<path class="st2" d="M84.3,59.4C84.3,59.4,84.3,59.4,84.3,59.4l5.6-1.5c0,0,0.1,0,0.1,0l2.9,3.5c0,0,0,0.1,0,0.1c0,0-0.1,0-0.1,0
				L84.3,59.4C84.3,59.5,84.3,59.5,84.3,59.4C84.3,59.5,84.3,59.5,84.3,59.4z M89.8,58.1l-5.2,1.3l7.9,2L89.8,58.1z"/>
		</g>
		<g>
			<path class="st2" d="M74.1,57.1C74.1,57.1,74.1,57,74.1,57.1l9.1-0.3c0,0,0.1,0,0.1,0l1.1,2.6c0,0,0,0.1,0,0.1c0,0,0,0-0.1,0
				L74.1,57.1C74.1,57.2,74.1,57.2,74.1,57.1C74.1,57.1,74.1,57.1,74.1,57.1z M83.2,56.9l-8.4,0.2l9.4,2.2L83.2,56.9z"/>
		</g>
		<g>
			<path class="st2" d="M64.1,55.4C64.1,55.4,64.1,55.4,64.1,55.4l5.6-1.2c0,0,0,0,0.1,0l4.4,2.8c0,0,0,0.1,0,0.1c0,0,0,0.1-0.1,0
				L64.1,55.4C64.2,55.5,64.1,55.5,64.1,55.4C64.1,55.5,64.1,55.5,64.1,55.4z M69.7,54.4l-5.1,1.1l9.2,1.5L69.7,54.4z"/>
		</g>
		<g>
			<path class="st2" d="M55.4,54.6C55.4,54.5,55.4,54.5,55.4,54.6l9.4-1.2c0,0,0.1,0,0.1,0c0,0,0,0,0,0.1l-0.6,2c0,0,0,0.1-0.1,0.1
				L55.4,54.6C55.4,54.6,55.4,54.6,55.4,54.6C55.4,54.6,55.4,54.6,55.4,54.6z M64.7,53.6l-8.5,1l8,0.8L64.7,53.6z"/>
		</g>
		<g>
			<path class="st2" d="M46.2,53C46.2,53,46.2,52.9,46.2,53l2-1.2c0,0,0,0,0.1,0l4.1,1.6c0,0,0.1,0.1,0,0.1c0,0,0,0.1-0.1,0.1
				L46.2,53C46.3,53,46.2,53,46.2,53C46.2,53,46.2,53,46.2,53z M48.2,51.9l-1.7,1l5.3,0.4L48.2,51.9z"/>
		</g>
		<g>
			<path class="st2" d="M40,53.5C40,53.5,40,53.5,40,53.5l8.2-1.8c0,0,0.1,0,0.1,0c0,0,0,0.1,0,0.1L46.3,53c0,0,0,0,0,0L40,53.5
				C40.1,53.6,40,53.6,40,53.5C40,53.6,40,53.5,40,53.5z M47.8,52l-6.4,1.3l4.9-0.4L47.8,52z"/>
		</g>
		<g>
			<path class="st2" d="M33.6,54.7C33.6,54.6,33.6,54.6,33.6,54.7l2.1-1.9c0,0,0,0,0.1,0l4.3,0.7c0,0,0.1,0,0.1,0.1
				c0,0,0,0.1-0.1,0.1L33.6,54.7C33.6,54.7,33.6,54.7,33.6,54.7C33.6,54.7,33.6,54.7,33.6,54.7z M35.8,52.9l-1.9,1.6l5.7-1
				L35.8,52.9z"/>
		</g>
		<g>
			<path class="st2" d="M20.2,56.9l1.6-3.2c0,0,0.1-0.1,0.1,0l5.3,1.9c0,0,0.1,0,0.1,0.1c0,0,0,0.1-0.1,0.1l-6.8,1.3
				C20.2,57.1,20.2,57,20.2,56.9C20.2,57,20.2,57,20.2,56.9C20.1,57,20.1,57,20.2,56.9z M21.8,53.9l-1.5,3l6.4-1.2L21.8,53.9z"/>
		</g>
		<g>
			<path class="st1" d="M171.2,27.3l6.5-5.5c0,0,0,0,0,0l3.6-0.7c0,0,0.1,0,0.1,0c0,0,0,0.1,0,0.1l-10.2,6.2c0,0-0.1,0-0.1,0
				c0,0,0,0,0,0C171.2,27.4,171.2,27.3,171.2,27.3z M177.8,21.9l-5.8,4.8l9-5.4L177.8,21.9z"/>
		</g>
		<g>
			<path class="st1" d="M172.2,34.8l-2.9-5.8c0,0,0-0.1,0-0.1l1.9-1.6c0,0,0.1,0,0.1,0c0,0,0,0,0,0.1l1,7.4
				C172.3,34.8,172.3,34.8,172.2,34.8C172.2,34.8,172.2,34.8,172.2,34.8C172.2,34.8,172.2,34.8,172.2,34.8z M169.5,29l2.7,5.3
				l-0.9-6.8L169.5,29z M169.4,29L169.4,29L169.4,29z"/>
		</g>
		<g>
			<path class="st1" d="M161.1,34.5C161,34.4,161,34.4,161.1,34.5l8.3-5.5c0,0,0.1,0,0.1,0c0,0,0,0.1,0,0.1l-3.9,4.6c0,0,0,0,0,0
				L161.1,34.5C161.1,34.5,161.1,34.5,161.1,34.5C161.1,34.5,161.1,34.5,161.1,34.5z M168.9,29.4l-7.5,4.9l3.9-0.8L168.9,29.4z"/>
		</g>
		<g>
			<path class="st1" d="M154.1,39.3C154.1,39.2,154.1,39.2,154.1,39.3l6.9-4.9c0,0,0.1,0,0.1,0c0,0,0,0.1,0,0.1l-4,4.4c0,0,0,0,0,0
				L154.1,39.3C154.2,39.3,154.2,39.3,154.1,39.3C154.1,39.3,154.1,39.3,154.1,39.3z M160.6,34.9l-6.1,4.2l2.6-0.4L160.6,34.9z"/>
		</g>
		<g>
			<path class="st1" d="M151.6,44.7l-0.6-4.2c0,0,0-0.1,0-0.1l3.1-1.2c0,0,0.1,0,0.1,0c0,0,0,0.1,0,0.1l-2.5,5.4
				C151.8,44.7,151.7,44.7,151.6,44.7C151.7,44.7,151.7,44.7,151.6,44.7C151.6,44.7,151.6,44.7,151.6,44.7z M151.2,40.5l0.5,3.9
				l2.3-5L151.2,40.5z"/>
		</g>
		<g>
			<path class="st1" d="M146.8,41.1C146.8,41,146.9,41,146.8,41.1l3.5-0.1c0,0,0.1,0,0.1,0.1l0.8,4.1c0,0,0,0.1,0,0.1
				c0,0-0.1,0-0.1,0L146.8,41.1C146.8,41.2,146.8,41.1,146.8,41.1C146.8,41.1,146.8,41.1,146.8,41.1z M150.2,41.1l-3.1,0l3.9,3.7
				L150.2,41.1z"/>
		</g>
		<g>
			<path class="st1" d="M184,17.5C184,17.5,184,17.4,184,17.5l6.4-2c0,0,0.1,0,0.1,0c0,0,0,0,0,0.1l-1.5,6.2c0,0,0,0-0.1,0.1
				c0,0-0.1,0-0.1,0L184,17.5C184,17.6,184,17.6,184,17.5C184,17.5,184,17.5,184,17.5z M190.3,15.7l-6.1,1.9l4.7,4L190.3,15.7z"/>
		</g>
		<g>
			<path class="st1" d="M188.9,21.7l1.5-6.2c0,0,0-0.1,0.1-0.1c0,0,0.1,0,0.1,0.1l0.7,8.4c0,0,0,0.1,0,0.1c0,0-0.1,0-0.1,0
				L188.9,21.7C188.9,21.8,188.9,21.8,188.9,21.7C188.9,21.7,188.9,21.7,188.9,21.7z M190.4,16l-1.4,5.7l2,2L190.4,16z"/>
		</g>
		<g>
			<path class="st1" d="M181.4,21.2C181.4,21.2,181.4,21.2,181.4,21.2l2.6-3.8c0,0,0,0,0.1,0c0,0,0,0,0.1,0l4.9,4.2c0,0,0,0.1,0,0.1
				c0,0,0,0.1-0.1,0L181.4,21.2C181.4,21.3,181.4,21.3,181.4,21.2C181.4,21.2,181.4,21.2,181.4,21.2z M184.1,17.6l-2.5,3.5l7.1,0.5
				L184.1,17.6z"/>
		</g>
		<g>
			<path class="st1" d="M182.7,32.1l6.2-10.5c0,0,0.1,0,0.1,0c0,0,0.1,0.1,0,0.1l-2.7,9.5c0,0,0,0-0.1,0.1l-3.5,1
				C182.7,32.3,182.7,32.3,182.7,32.1C182.7,32.2,182.7,32.2,182.7,32.1C182.7,32.2,182.7,32.2,182.7,32.1z M188.7,22.3l-5.8,9.8
				l3.3-0.9L188.7,22.3z"/>
		</g>
		<g>
			<path class="st1" d="M173.6,40.2c0,0,0-0.1,0-0.1l9.1-8c0,0,0.1,0,0.1,0c0,0,0,0,0,0.1l-0.5,3.7c0,0,0,0,0,0.1L173.6,40.2
				C173.6,40.3,173.6,40.3,173.6,40.2C173.6,40.2,173.6,40.2,173.6,40.2z M182.6,32.4l-8.5,7.5l8-4L182.6,32.4z"/>
		</g>
		<g>
			<path class="st1" d="M178.1,28.6C178.1,28.5,178.1,28.5,178.1,28.6l10.8-6.9c0,0,0.1,0,0.1,0c0,0,0,0.1,0,0.1l-6.2,10.5
				c0,0,0,0-0.1,0c0,0,0,0-0.1,0L178.1,28.6C178.1,28.6,178.1,28.6,178.1,28.6C178.1,28.6,178.1,28.6,178.1,28.6z M188.7,21.9
				l-10.4,6.6l4.4,3.5L188.7,21.9z"/>
		</g>
		<g>
			<path class="st1" d="M178.1,28.5l3.3-7.4c0,0,0,0,0.1,0l7.5,0.5c0,0,0.1,0,0.1,0.1c0,0,0,0.1,0,0.1l-10.8,6.9
				C178.2,28.7,178.2,28.7,178.1,28.5C178.1,28.6,178.1,28.6,178.1,28.5C178.1,28.6,178.1,28.6,178.1,28.5z M181.5,21.3l-3.2,7.1
				l10.4-6.6L181.5,21.3z"/>
		</g>
		<g>
			<path class="st1" d="M171.2,27.4C171.2,27.3,171.2,27.3,171.2,27.4l10.2-6.2c0,0,0.1,0,0.1,0c0,0,0,0.1,0,0.1l-3.3,7.4
				c0,0,0,0.1-0.1,0L171.2,27.4C171.2,27.4,171.2,27.4,171.2,27.4C171.2,27.4,171.2,27.4,171.2,27.4z M181.3,21.4l-9.8,5.9l6.6,1.2
				L181.3,21.4z"/>
		</g>
		<g>
			<path class="st1" d="M173.6,40.2l4.5-11.6c0,0,0,0,0.1,0c0,0,0,0,0.1,0l4.6,3.6c0,0,0,0,0,0.1c0,0,0,0,0,0.1l-9.1,8
				C173.7,40.3,173.6,40.3,173.6,40.2C173.6,40.2,173.6,40.2,173.6,40.2C173.6,40.2,173.6,40.2,173.6,40.2z M178.2,28.7l-4.4,11.2
				l8.8-7.7L178.2,28.7z"/>
		</g>
		<g>
			<path class="st1" d="M172.2,34.8l-1-7.4c0,0,0,0,0-0.1c0,0,0,0,0.1,0l6.9,1.2c0,0,0.1,0,0.1,0.1c0,0,0,0.1,0,0.1l-5.9,6.2
				C172.3,34.8,172.3,34.8,172.2,34.8C172.2,34.8,172.2,34.8,172.2,34.8C172.2,34.8,172.2,34.8,172.2,34.8z M171.4,27.5l1,7.1l5.7-6
				L171.4,27.5z"/>
		</g>
		<g>
			<path class="st1" d="M165.3,33.6C165.3,33.6,165.3,33.5,165.3,33.6l4-4.7c0,0,0,0,0.1,0c0,0,0,0,0.1,0l2.9,5.8c0,0,0,0.1,0,0.1
				c0,0,0,0-0.1,0L165.3,33.6C165.4,33.6,165.4,33.6,165.3,33.6C165.4,33.6,165.3,33.6,165.3,33.6z M169.4,29.1l-3.8,4.4l6.6,1.1
				L169.4,29.1z"/>
		</g>
		<g>
			<path class="st1" d="M157.1,38.8l4-4.4c0,0,0,0,0,0l4.3-0.9c0,0,0.1,0,0.1,0c0,0,0,0.1,0,0.1l-8.3,5.3c0,0-0.1,0-0.1,0
				C157.1,38.9,157.1,38.9,157.1,38.8C157.1,38.8,157.1,38.8,157.1,38.8z M161.2,34.5l-3.6,4l7.4-4.7L161.2,34.5z"/>
		</g>
		<g>
			<path class="st2" d="M152.1,56.3C152.1,56.2,152.2,56.2,152.1,56.3l10.8-3.6c0,0,0.1,0,0.1,0c0,0,0,0.1,0,0.1l-8,5
				c0,0-0.1,0-0.1,0L152.1,56.3C152.2,56.3,152.2,56.3,152.1,56.3C152.1,56.3,152.1,56.3,152.1,56.3z M162.3,53l-9.9,3.3l2.5,1.3
				L162.3,53z"/>
		</g>
		<g>
			<path class="st2" d="M152.1,56.3C152.1,56.3,152.1,56.2,152.1,56.3l12.3-9c0,0,0.1,0,0.1,0c0,0,0,0.1,0,0.1l-1.6,5.4
				c0,0,0,0,0,0.1L152.1,56.3C152.2,56.4,152.2,56.3,152.1,56.3C152.1,56.3,152.1,56.3,152.1,56.3z M164.4,47.5L152.7,56l10.2-3.4
				L164.4,47.5z"/>
		</g>
		<g>
			<path class="st1" d="M164.5,47.4C164.5,47.3,164.5,47.3,164.5,47.4l9.1-7.3c0,0,0.1,0,0.1,0c0,0,0,0.1,0,0.1L171,46
				c0,0,0,0-0.1,0L164.5,47.4C164.5,47.4,164.5,47.4,164.5,47.4C164.5,47.4,164.5,47.4,164.5,47.4z M173.4,40.5l-8.6,6.7l6-1.3
				L173.4,40.5z"/>
		</g>
		<g>
			<path class="st1" d="M173.6,40.2l-1.4-5.4c0,0,0-0.1,0-0.1l5.9-6.2c0,0,0.1,0,0.1,0c0,0,0,0.1,0,0.1l-4.5,11.6
				C173.7,40.2,173.7,40.3,173.6,40.2C173.6,40.3,173.6,40.3,173.6,40.2C173.6,40.2,173.6,40.2,173.6,40.2z M172.3,34.8l1.3,5.2
				l4.3-11L172.3,34.8z M172.3,34.7L172.3,34.7L172.3,34.7z"/>
		</g>
		<g>
			<path class="st1" d="M164.7,41.3l0.6-7.7c0,0,0,0,0-0.1c0,0,0,0,0.1,0l6.8,1.2c0,0,0.1,0,0.1,0.1c0,0,0,0.1,0,0.1l-7.4,6.5
				C164.8,41.4,164.8,41.4,164.7,41.3C164.8,41.3,164.8,41.3,164.7,41.3C164.7,41.3,164.7,41.3,164.7,41.3z M165.5,33.7l-0.6,7.4
				l7.2-6.3L165.5,33.7z"/>
		</g>
		<g>
			<path class="st1" d="M157.1,38.8C157.1,38.8,157.1,38.8,157.1,38.8l8.3-5.3c0,0,0.1,0,0.1,0c0,0,0,0,0,0.1l-0.6,7.7
				c0,0,0,0,0,0.1c0,0,0,0-0.1,0L157.1,38.8C157.1,38.9,157.1,38.9,157.1,38.8C157.1,38.9,157.1,38.9,157.1,38.8z M165.3,33.7
				l-8,5.1l7.4,2.4L165.3,33.7z"/>
		</g>
		<g>
			<path class="st1" d="M164.5,47.3l0.3-6.1c0,0,0-0.1,0.1-0.1l8.8-1.1c0,0,0.1,0,0.1,0c0,0,0,0.1,0,0.1l-9.1,7.2
				C164.6,47.4,164.5,47.4,164.5,47.3C164.5,47.4,164.5,47.4,164.5,47.3C164.5,47.4,164.5,47.4,164.5,47.3z M164.9,41.3l-0.3,5.8
				l8.8-6.9L164.9,41.3z"/>
		</g>
		<g>
			<path class="st1" d="M152.2,56.2l12.6-15c0,0,0.1,0,0.1,0c0,0,0.1,0,0,0.1l-0.3,6.1c0,0,0,0,0,0.1l-12.3,8.9c0,0-0.1,0-0.1,0
				C152.2,56.3,152.2,56.3,152.2,56.2C152.1,56.3,152.1,56.3,152.2,56.2z M164.7,41.5l-12.1,14.3l11.8-8.5L164.7,41.5z"/>
		</g>
		<g>
			<path class="st1" d="M151.6,44.6l2.5-5.4c0,0,0,0,0.1,0l2.9-0.4c0,0,0.1,0,0.1,0c0,0,0,0.1,0,0.1l-5.4,5.8
				C151.7,44.7,151.7,44.8,151.6,44.6C151.7,44.7,151.7,44.7,151.6,44.6C151.6,44.7,151.6,44.7,151.6,44.6z M154.3,39.3l-2.3,4.9
				l5-5.3L154.3,39.3z"/>
		</g>
		<g>
			<path class="st1" d="M151.6,44.7C151.6,44.7,151.6,44.6,151.6,44.7l5.4-5.9c0,0,0.1,0,0.1,0l7.7,2.4c0,0,0.1,0,0.1,0.1
				c0,0,0,0.1-0.1,0.1L151.6,44.7C151.7,44.7,151.7,44.7,151.6,44.7C151.6,44.7,151.6,44.7,151.6,44.7z M157.2,38.9l-5.2,5.6
				l12.6-3.3L157.2,38.9z"/>
		</g>
		<g>
			<path class="st2" d="M145.1,58.3C145.1,58.3,145.1,58.3,145.1,58.3l7.1-2.1c0,0,0.1,0,0.1,0c0,0,0,0.1,0,0.1l-3.2,3
				c0,0,0,0-0.1,0L145.1,58.3C145.2,58.4,145.1,58.4,145.1,58.3C145.1,58.4,145.1,58.4,145.1,58.3z M151.9,56.4l-6.4,1.9l3.5,0.8
				L151.9,56.4z"/>
		</g>
		<g>
			<path class="st2" d="M145.1,58.3l1.9-7.4c0,0,0,0,0.1-0.1c0,0,0.1,0,0.1,0l5.2,5.4c0,0,0,0,0,0.1c0,0,0,0-0.1,0.1L145.1,58.3
				C145.2,58.4,145.2,58.4,145.1,58.3C145.1,58.4,145.1,58.4,145.1,58.3C145.1,58.4,145.1,58.3,145.1,58.3z M147.1,51.1l-1.8,7.2
				l6.8-2L147.1,51.1z"/>
		</g>
		<g>
			<path class="st1" d="M152.1,56.3l-0.5-11.6c0,0,0-0.1,0.1-0.1l13.1-3.4c0,0,0.1,0,0.1,0c0,0,0,0.1,0,0.1l-12.6,15
				C152.3,56.3,152.2,56.4,152.1,56.3C152.2,56.3,152.2,56.3,152.1,56.3C152.1,56.3,152.1,56.3,152.1,56.3z M151.8,44.7l0.5,11.3
				l12.3-14.7L151.8,44.7z"/>
		</g>
		<g>
			<path class="st1" d="M147,50.9l4-5.8c0,0,0.1,0,0.1,0c0,0,0.1,0,0.1,0.1l1.2,11.2c0,0,0,0.1,0,0.1c0,0-0.1,0-0.1,0L147,50.9
				C147,50.9,147,50.9,147,50.9C147,50.9,147,50.9,147,50.9z M151,45.3l-3.8,5.6l5,5.2L151,45.3z"/>
		</g>
		<g>
			<path class="st1" d="M137.3,49.1C137.3,49.1,137.3,49,137.3,49.1L151,45c0,0,0.1,0,0.1,0c0,0,0,0.1,0,0.1l-4,5.8c0,0,0,0-0.1,0
				L137.3,49.1C137.3,49.2,137.3,49.2,137.3,49.1C137.3,49.1,137.3,49.1,137.3,49.1z M150.9,45.3l-13.2,3.8l9.3,1.7L150.9,45.3z"/>
		</g>
		<g>
			<path class="st2" d="M133.5,62.1l0.9-6.1c0,0,0,0,0-0.1c0,0,0,0,0.1,0l10.7,2.3c0,0,0.1,0,0.1,0.1c0,0,0,0.1-0.1,0.1l-11.6,3.7
				C133.6,62.2,133.5,62.2,133.5,62.1C133.5,62.1,133.5,62.1,133.5,62.1C133.5,62.1,133.5,62.1,133.5,62.1z M134.5,56.1l-0.9,5.9
				l11.2-3.6L134.5,56.1z"/>
		</g>
		<g>
			<path class="st2" d="M128.9,60.6C128.9,60.6,128.9,60.6,128.9,60.6l5.6-4.7c0,0,0.1,0,0.1,0c0,0,0,0,0,0.1l-0.9,6.1
				c0,0,0,0,0,0.1c0,0,0,0-0.1,0L128.9,60.6C128.9,60.7,128.9,60.7,128.9,60.6C128.9,60.7,128.9,60.6,128.9,60.6z M134.4,56.2
				l-5.3,4.4l4.4,1.4L134.4,56.2z"/>
		</g>
		<g>
			<path class="st2" d="M120.3,64.1l1.8-3.9c0,0,0,0,0.1,0l6.8,0.4c0,0,0.1,0,0.1,0.1c0,0,0,0.1,0,0.1l-8.6,3.5
				C120.4,64.2,120.3,64.2,120.3,64.1C120.3,64.2,120.3,64.2,120.3,64.1C120.3,64.1,120.3,64.1,120.3,64.1z M122.2,60.3l-1.7,3.7
				l8.1-3.3L122.2,60.3z"/>
		</g>
		<g>
			<path class="st2" d="M112,65.4C112,65.4,112,65.3,112,65.4l10.2-5.3c0,0,0.1,0,0.1,0c0,0,0,0.1,0,0.1l-1.8,3.9c0,0,0,0-0.1,0
				L112,65.4C112,65.5,112,65.5,112,65.4C112,65.4,112,65.4,112,65.4z M122,60.4l-9.5,4.8l7.8-1.2L122,60.4z"/>
		</g>
		<g>
			<path class="st2" d="M102.6,63.4C102.6,63.4,102.6,63.4,102.6,63.4l1.8-2.5c0,0,0.1,0,0.1,0l7.6,4.4c0,0,0,0.1,0,0.1
				c0,0-0.1,0.1-0.1,0L102.6,63.4C102.6,63.5,102.6,63.5,102.6,63.4C102.6,63.4,102.6,63.4,102.6,63.4z M104.4,61.1l-1.7,2.3
				l8.8,1.9L104.4,61.1z"/>
		</g>
		<g>
			<path class="st2" d="M104.4,60.9C104.4,60.9,104.4,60.9,104.4,60.9l17.8-0.8c0,0,0.1,0,0.1,0.1c0,0,0,0.1,0,0.1l-10.1,5.2
				c0,0-0.1,0-0.1,0L104.4,60.9C104.4,61,104.4,61,104.4,60.9C104.4,61,104.3,61,104.4,60.9z M121.8,60.3L104.7,61l7.4,4.3
				L121.8,60.3z"/>
		</g>
		<g>
			<path class="st2" d="M134.4,56C134.4,56,134.4,56,134.4,56l12.6-5.2c0,0,0.1,0,0.1,0c0,0,0,0,0,0.1l-1.9,7.4c0,0-0.1,0.1-0.1,0.1
				L134.4,56C134.4,56.1,134.4,56.1,134.4,56C134.4,56,134.4,56,134.4,56z M146.9,51l-12.2,5l10.4,2.3L146.9,51z"/>
		</g>
		<g>
			<path class="st1" d="M134.4,56l2.7-7.2c0,0,0.1-0.1,0.1,0l9.9,2.1c0,0,0.1,0,0.1,0.1c0,0,0,0.1,0,0.1l-12.6,5.1
				C134.5,56.1,134.4,56.1,134.4,56C134.4,56.1,134.4,56.1,134.4,56C134.4,56,134.4,56,134.4,56z M137.2,48.9l-2.6,7l12.2-5
				L137.2,48.9z"/>
		</g>
		<g>
			<path class="st2" d="M122.1,60.2l-0.9-6.1c0,0,0-0.1,0-0.1c0,0,0.1,0,0.1,0l7.7,6.5c0,0,0,0.1,0,0.1c0,0,0,0.1-0.1,0L122.1,60.2
				C122.1,60.3,122.1,60.3,122.1,60.2C122.1,60.3,122.1,60.2,122.1,60.2z M121.4,54.3l0.9,5.9l6.5,0.4L121.4,54.3z"/>
		</g>
		<g>
			<path class="st2" d="M104.4,61C104.3,60.9,104.4,60.9,104.4,61l16.9-6.9c0,0,0,0,0.1,0c0,0,0,0,0,0.1l0.9,6.1c0,0,0,0,0,0.1
				c0,0,0,0-0.1,0L104.4,61C104.4,61,104.4,61,104.4,61C104.4,61,104.4,61,104.4,61z M121.2,54.2l-16.3,6.7l17.2-0.7L121.2,54.2z"/>
		</g>
		<g>
			<path class="st2" d="M89.8,58C89.8,58,89.8,58,89.8,58l14.7,2.9c0,0,0.1,0,0.1,0.1c0,0,0,0.1-0.1,0.1l-11.6,0.6c0,0,0,0-0.1,0
				L89.8,58C89.8,58.1,89.8,58.1,89.8,58C89.8,58.1,89.8,58,89.8,58z M103.8,60.9L90,58.2l2.8,3.3L103.8,60.9z"/>
		</g>
		<g>
			<path class="st2" d="M98.5,55.2C98.5,55.2,98.6,55.2,98.5,55.2l8.2,0.3c0,0,0.1,0,0.1,0c0,0,0,0,0,0.1l-2.3,5.4c0,0,0,0-0.1,0
				c0,0-0.1,0-0.1,0L98.5,55.2C98.5,55.3,98.5,55.3,98.5,55.2C98.5,55.3,98.5,55.3,98.5,55.2z M106.6,55.6l-7.8-0.3l5.6,5.5
				L106.6,55.6z"/>
		</g>
		<g>
			<path class="st2" d="M84.3,59.5l-1.1-2.6c0,0,0-0.1,0-0.1c0,0,0,0,0.1,0l6.6,1.2c0,0,0.1,0,0.1,0.1c0,0,0,0.1-0.1,0.1L84.3,59.5
				C84.3,59.5,84.3,59.5,84.3,59.5C84.3,59.5,84.3,59.5,84.3,59.5z M83.3,57l1,2.4l5.1-1.3L83.3,57z"/>
		</g>
		<g>
			<path class="st2" d="M69.6,54.3C69.7,54.2,69.7,54.2,69.6,54.3l13.6,2.5c0,0,0.1,0,0.1,0.1c0,0,0,0.1-0.1,0.1l-9.1,0.2
				c0,0,0,0,0,0L69.6,54.3C69.7,54.4,69.7,54.3,69.6,54.3C69.6,54.3,69.6,54.3,69.6,54.3z M82.5,56.8l-12.4-2.4l4.1,2.6L82.5,56.8z"
				/>
		</g>
		<g>
			<path class="st2" d="M64.1,55.4l0.6-2c0,0,0-0.1,0.1-0.1l4.9,0.8c0,0,0.1,0,0.1,0.1c0,0,0,0.1-0.1,0.1L64.1,55.4
				C64.2,55.5,64.2,55.5,64.1,55.4C64.1,55.5,64.1,55.5,64.1,55.4C64.1,55.5,64.1,55.4,64.1,55.4z M64.8,53.5l-0.5,1.8l5-1
				L64.8,53.5z"/>
		</g>
		<g>
			<path class="st2" d="M51.2,53.3C51.2,53.3,51.2,53.2,51.2,53.3l8.9-0.8c0,0,0.1,0,0.1,0.1c0,0,0,0.1,0,0.1l-4.6,2c0,0,0,0-0.1,0
				L51.2,53.3C51.2,53.4,51.2,53.4,51.2,53.3C51.2,53.3,51.2,53.3,51.2,53.3z M59.6,52.7l-7.9,0.7l3.8,1.1L59.6,52.7z"/>
		</g>
		<g>
			<path class="st2" d="M35.7,52.8C35.7,52.8,35.7,52.8,35.7,52.8l7.4-3.9c0,0,0.1,0,0.1,0c0,0,0,0.1,0,0.1l-3,4.5c0,0,0,0-0.1,0
				L35.7,52.8C35.7,52.9,35.7,52.9,35.7,52.8C35.7,52.8,35.7,52.8,35.7,52.8z M42.9,49.2L36,52.8l4.1,0.7L42.9,49.2z"/>
		</g>
		<g>
			<path class="st2" d="M40,53.5l3-4.5c0,0,0.1,0,0.1,0l5.1,2.8c0,0,0,0,0,0.1c0,0,0,0.1-0.1,0.1l-8.1,1.7
				C40.1,53.6,40.1,53.6,40,53.5C40,53.6,40,53.6,40,53.5C40,53.5,40,53.5,40,53.5z M43.1,49.1l-2.9,4.3l7.7-1.6L43.1,49.1z"/>
		</g>
		<g>
			<path class="st2" d="M28,54.3C28,54.3,28,54.2,28,54.3l7.7-1.6c0,0,0.1,0,0.1,0c0,0,0,0.1,0,0.1l-2.1,1.8c0,0,0,0-0.1,0L28,54.3
				C28,54.4,28,54.3,28,54.3C28,54.3,28,54.3,28,54.3z M35.5,52.9l-6.8,1.3l4.9,0.3L35.5,52.9z"/>
		</g>
		<g>
			<path class="st2" d="M28,54.3C28,54.3,28,54.3,28,54.3l5.5-5.3c0,0,0,0,0.1,0c0,0,0,0,0.1,0l2.2,3.7c0,0,0,0,0,0.1c0,0,0,0-0.1,0
				L28,54.3C28.1,54.4,28,54.4,28,54.3C28,54.3,28,54.3,28,54.3z M33.5,49.2l-5.2,5l7.3-1.4L33.5,49.2z"/>
		</g>
		<g>
			<path class="st2" d="M43,49C43,48.9,43.1,48.9,43,49l7.4,0.5c0,0,0.1,0,0.1,0c0,0,0,0.1,0,0.1l-2.2,2.3c0,0-0.1,0-0.1,0L43,49
				C43.1,49.1,43.1,49,43,49C43,49,43,49,43,49z M50.3,49.6l-6.8-0.5l4.8,2.6L50.3,49.6z"/>
		</g>
		<g>
			<path class="st2" d="M89.8,58.1L89,55.6c0,0,0,0,0-0.1c0,0,0,0,0.1,0l9.6-0.3c0,0,0.1,0,0.1,0.1c0,0,0,0.1-0.1,0.1L89.8,58.1
				C89.8,58.1,89.8,58.1,89.8,58.1C89.8,58.1,89.8,58.1,89.8,58.1z M89.1,55.6l0.7,2.3l8.2-2.6L89.1,55.6z"/>
		</g>
		<g>
			<path class="st2" d="M83.1,56.8l0.9-2.4c0,0,0.1-0.1,0.1,0l5,1.1c0,0,0.1,0,0.1,0.1c0,0,0,0.1-0.1,0.1l-5.8,1.3
				C83.2,56.9,83.2,56.9,83.1,56.8C83.1,56.9,83.1,56.9,83.1,56.8C83.1,56.9,83.1,56.9,83.1,56.8z M84.1,54.5l-0.8,2.2l5.4-1.2
				L84.1,54.5z"/>
		</g>
		<g>
			<path class="st2" d="M98.5,55.3C98.5,55.3,98.5,55.2,98.5,55.3l3.8-2.4c0,0,0.1,0,0.1,0l4.4,2.6c0,0,0,0.1,0,0.1
				c0,0,0,0.1-0.1,0.1L98.5,55.3C98.6,55.4,98.5,55.3,98.5,55.3C98.5,55.3,98.5,55.3,98.5,55.3z M102.4,53.1l-3.5,2.1l7.6,0.3
				L102.4,53.1z"/>
		</g>
		<g>
			<path class="st2" d="M128.9,60.6l0.6-8.5c0,0,0-0.1,0-0.1c0,0,0.1,0,0.1,0l4.9,3.9c0,0,0,0,0,0.1c0,0,0,0,0,0.1l-5.5,4.6
				C129,60.7,128.9,60.7,128.9,60.6C128.9,60.7,128.9,60.7,128.9,60.6C128.9,60.7,128.9,60.6,128.9,60.6z M129.6,52.3l-0.6,8.1
				l5.3-4.4L129.6,52.3z"/>
		</g>
		<g>
			<path class="st1" d="M194.8,14.9l2.9-5.1c0,0,0,0,0.1,0c0,0,0.1,0,0.1,0.1l0.3,1.9c0,0,0,0,0,0.1L195,15
				C194.9,15,194.9,15,194.8,14.9C194.9,15,194.8,15,194.8,14.9C194.8,15,194.8,14.9,194.8,14.9z M197.8,10l-2.5,4.4l2.8-2.8
				L197.8,10z"/>
		</g>
		<g>
			<path class="st1" d="M193.6,8.5C193.6,8.5,193.6,8.5,193.6,8.5l1.7-1.2c0,0,0.1,0,0.1,0l2.5,2.5c0,0,0,0.1,0,0.1c0,0-0.1,0-0.1,0
				L193.6,8.5C193.6,8.6,193.6,8.6,193.6,8.5C193.6,8.6,193.6,8.5,193.6,8.5z M195.3,7.5l-1.5,1l3.7,1.2L195.3,7.5z"/>
		</g>
		<g>
			<path class="st1" d="M191.3,7.1C191.3,7.1,191.3,7.1,191.3,7.1l4,0.2c0,0,0.1,0,0.1,0.1c0,0,0,0.1,0,0.1l-1.6,1.1
				c0,0-0.1,0-0.1,0L191.3,7.1C191.3,7.2,191.3,7.2,191.3,7.1C191.3,7.2,191.3,7.1,191.3,7.1z M195.1,7.4l-3.4-0.2l2,1.2L195.1,7.4z
				"/>
		</g>
		<g>
			<path class="st1" d="M186,8.6C186,8.6,186.1,8.6,186,8.6l5.3-1.6c0,0,0.1,0,0.1,0c0,0,0,0.1,0,0.1l-2.3,2.5c0,0-0.1,0-0.1,0
				L186,8.6C186.1,8.7,186.1,8.7,186,8.6C186,8.7,186,8.7,186,8.6z M191.1,7.3l-4.7,1.4l2.6,0.9L191.1,7.3z"/>
		</g>
		<g>
			<path class="st1" d="M179.4,13.3C179.4,13.3,179.4,13.2,179.4,13.3l6.6-4.7c0,0,0,0,0.1,0l2.9,1c0,0,0.1,0,0.1,0.1
				c0,0,0,0.1,0,0.1L179.4,13.3C179.5,13.3,179.5,13.3,179.4,13.3C179.4,13.3,179.4,13.3,179.4,13.3z M186.1,8.7l-6.1,4.2l8.7-3.4
				L186.1,8.7z"/>
		</g>
		<g>
			<path class="st1" d="M172.8,21.5l0.1-2.2c0,0,0,0,0-0.1l6.6-6.1c0,0,0.1,0,0.1,0c0,0,0,0.1,0,0.1l-6.6,8.3
				C172.9,21.6,172.9,21.6,172.8,21.5C172.8,21.6,172.8,21.6,172.8,21.5C172.8,21.5,172.8,21.5,172.8,21.5z M173,19.4l0,1.9l5.8-7.3
				L173,19.4z M172.9,19.3L172.9,19.3L172.9,19.3z"/>
		</g>
		<g>
			<path class="st1" d="M168.1,21.6C168.1,21.6,168.1,21.5,168.1,21.6l4.8-2.3c0,0,0.1,0,0.1,0c0,0,0,0,0,0.1l-0.1,2.2
				c0,0,0,0.1-0.1,0.1L168.1,21.6C168.2,21.7,168.2,21.7,168.1,21.6C168.1,21.6,168.1,21.6,168.1,21.6z M172.8,19.5l-4.3,2.1
				l4.2-0.1L172.8,19.5z"/>
		</g>
		<g>
			<path class="st1" d="M161.4,26.3c0,0,0-0.1,0-0.1l6.7-4.7c0,0,0,0,0.1,0c0,0,0,0,0,0.1l0.3,1.8c0,0,0,0.1,0,0.1L161.4,26.3
				C161.5,26.4,161.4,26.4,161.4,26.3C161.4,26.3,161.4,26.3,161.4,26.3z M168.1,21.7l-6.1,4.2l6.3-2.6L168.1,21.7z"/>
		</g>
		<g>
			<path class="st1" d="M155.2,31.1c0.1-0.3,5.2-4.1,6.2-4.8c0,0,0.1,0,0.1,0c0,0,0,0.1,0,0.1l-1.1,2.7c0,0,0,0,0,0l-5.1,2.1
				C155.3,31.2,155.2,31.2,155.2,31.1C155.2,31.1,155.2,31.1,155.2,31.1C155.2,31.1,155.2,31.1,155.2,31.1z M161.3,26.5
				c-2,1.5-4.8,3.6-5.7,4.3l4.7-1.9L161.3,26.5z"/>
		</g>
		<g>
			<path class="st1" d="M152.6,35l-0.3-3c0,0,0-0.1,0.1-0.1l2.9-0.9c0,0,0.1,0,0.1,0c0,0,0,0.1,0,0.1l-2.6,3.9
				C152.7,35,152.7,35,152.6,35C152.6,35,152.6,35,152.6,35C152.6,35,152.6,35,152.6,35z M152.5,32l0.3,2.7l2.4-3.5L152.5,32z"/>
		</g>
		<g>
			<path class="st1" d="M149.8,33C149.8,32.9,149.8,32.9,149.8,33l2.6-1c0,0,0,0,0.1,0c0,0,0,0,0,0.1l0.3,3c0,0,0,0.1,0,0.1
				c0,0-0.1,0-0.1,0L149.8,33C149.8,33,149.8,33,149.8,33C149.8,33,149.8,33,149.8,33z M152.3,32.1L150,33l2.6,1.8L152.3,32.1z"/>
		</g>
		<g>
			<path class="st1" d="M194.8,14.9l-1.2-6.4c0,0,0-0.1,0-0.1c0,0,0,0,0.1,0l4.1,1.3c0,0,0,0,0,0c0,0,0,0,0,0.1L195,15
				C195,15,194.9,15,194.8,14.9C194.9,15,194.9,15,194.8,14.9C194.8,15,194.8,15,194.8,14.9z M193.8,8.6l1.2,6.1l2.7-4.8L193.8,8.6z
				"/>
		</g>
		<g>
			<path class="st1" d="M189,9.6C189,9.6,189,9.6,189,9.6l2.3-2.6c0,0,0.1,0,0.1,0l2.3,1.4c0,0,0,0,0,0.1c0,0,0,0.1-0.1,0.1L189,9.6
				C189,9.7,189,9.7,189,9.6C189,9.6,189,9.6,189,9.6z M191.4,7.2l-2.1,2.2l4.2-1L191.4,7.2z"/>
		</g>
		<g>
			<path class="st1" d="M180.3,16.3l-0.9-3c0,0,0-0.1,0-0.1l9.5-3.7c0,0,0.1,0,0.1,0c0,0,0,0.1,0,0.1l-8.7,6.7
				C180.4,16.4,180.4,16.4,180.3,16.3C180.3,16.3,180.3,16.3,180.3,16.3C180.3,16.3,180.3,16.3,180.3,16.3z M179.6,13.3l0.8,2.8
				l8.2-6.3L179.6,13.3z"/>
		</g>
		<g>
			<path class="st1" d="M189,9.6C189,9.6,189,9.5,189,9.6l4.7-1.1c0,0,0,0,0.1,0c0,0,0,0,0,0.1l1.2,6.4c0,0,0,0.1,0,0.1
				c0,0-0.1,0-0.1,0L189,9.6C189,9.7,189,9.7,189,9.6C189,9.6,189,9.6,189,9.6z M193.6,8.6l-4.4,1l5.6,5.1L193.6,8.6z"/>
		</g>
		<g>
			<path class="st1" d="M172.8,21.5l6.6-8.3c0,0,0,0,0.1,0c0,0,0.1,0,0.1,0.1l0.9,3c0,0,0,0.1,0,0.1l-7.5,5.2c0,0-0.1,0-0.1,0
				C172.8,21.6,172.8,21.6,172.8,21.5C172.8,21.5,172.8,21.5,172.8,21.5z M179.5,13.4l-6.2,7.7l7-4.9L179.5,13.4z"/>
		</g>
		<g>
			<path class="st1" d="M168.4,23.4l-0.3-1.8c0,0,0,0,0-0.1c0,0,0,0,0.1,0l4.7-0.1c0,0,0.1,0,0.1,0.1c0,0,0,0.1,0,0.1l-4.4,1.9
				C168.5,23.5,168.5,23.5,168.4,23.4C168.5,23.5,168.4,23.5,168.4,23.4C168.4,23.4,168.4,23.4,168.4,23.4z M168.3,21.7l0.3,1.6
				l3.9-1.7L168.3,21.7z"/>
		</g>
		<g>
			<path class="st1" d="M160.3,29l1.1-2.7c0,0,0,0,0,0l7-2.9c0,0,0.1,0,0.1,0c0,0,0,0.1,0,0.1l-8.1,5.6
				C160.4,29.1,160.3,29.1,160.3,29C160.3,29,160.3,29,160.3,29C160.3,29,160.3,29,160.3,29z M161.5,26.4l-1,2.4l7.3-5L161.5,26.4z"
				/>
		</g>
		<g>
			<path class="st1" d="M153.4,37l-0.8-2.1c0,0,0-0.1,0-0.1l7.7-6c0,0,0.1,0,0.1,0c0,0,0,0.1,0,0.1l-6.9,8
				C153.5,37.1,153.5,37.1,153.4,37C153.5,37.1,153.4,37.1,153.4,37C153.4,37.1,153.4,37,153.4,37z M152.8,35l0.8,1.9l6.3-7.4
				L152.8,35z M152.7,34.9L152.7,34.9L152.7,34.9z"/>
		</g>
		<g>
			<path class="st1" d="M168.4,23.4C168.4,23.4,168.4,23.3,168.4,23.4l4.4-2c0,0,0,0,0.1,0c0,0,0,0,0,0l0.7,2c0,0,0,0.1,0,0.1
				c0,0,0,0-0.1,0L168.4,23.4C168.5,23.5,168.5,23.5,168.4,23.4C168.4,23.4,168.4,23.4,168.4,23.4z M172.8,21.6l-4,1.7l4.6,0.1
				L172.8,21.6z"/>
		</g>
		<g>
			<path class="st1" d="M180.3,16.3c0,0,0-0.1,0-0.1l8.7-6.7c0,0,0.1,0,0.1,0c0,0,0,0,0,0.1l-0.3,2.8c0,0,0,0.1,0,0.1L180.3,16.3
				C180.4,16.4,180.3,16.4,180.3,16.3C180.3,16.3,180.3,16.3,180.3,16.3z M188.9,9.8l-8,6.2l7.7-3.5L188.9,9.8z"/>
		</g>
		<g>
			<path class="st1" d="M160.3,29C160.3,29,160.3,28.9,160.3,29l8.2-5.7c0,0,0.1,0,0.1,0c0,0,0,0.1,0,0.1l-3.4,5c0,0,0,0-0.1,0
				L160.3,29C160.3,29.1,160.3,29.1,160.3,29C160.3,29,160.3,29,160.3,29z M168.2,23.7l-7.5,5.2l4.4-0.5L168.2,23.7z"/>
		</g>
		<g>
			<path class="st1" d="M178.2,12.5l2.7-3.7c0,0,0,0,0.1,0l4.5-0.6c0,0,0.1,0,0.1,0.1c0,0,0,0.1,0,0.1l-7.2,4.3
				C178.3,12.6,178.2,12.6,178.2,12.5C178.2,12.6,178.2,12.6,178.2,12.5C178.2,12.5,178.2,12.5,178.2,12.5z M181,8.9l-2.5,3.4
				l6.6-3.9L181,8.9z"/>
		</g>
		<g>
			<path class="st1" d="M175,15.1l0-2.1c0,0,0-0.1,0.1-0.1l3.1-0.5c0,0,0.1,0,0.1,0c0,0,0,0.1,0,0.1l-3.2,2.6
				C175.1,15.2,175.1,15.2,175,15.1C175,15.2,175,15.2,175,15.1C175,15.2,175,15.2,175,15.1z M175.2,13.1l0,1.9l2.8-2.3L175.2,13.1z
				"/>
		</g>
		<g>
			<path class="st1" d="M170.1,18.5l5-5.6c0,0,0.1,0,0.1,0c0,0,0,0,0,0.1l0,2.1c0,0,0,0,0,0.1l-4.9,3.4c0,0-0.1,0-0.1,0
				C170.1,18.6,170.1,18.6,170.1,18.5C170.1,18.6,170.1,18.6,170.1,18.5z M175,13.2l-4.4,5l4.4-3L175,13.2z"/>
		</g>
		<g>
			<path class="st1" d="M165.9,21l0.9-2.4c0,0,0-0.1,0.1-0.1l3.3-0.1c0,0,0.1,0,0.1,0.1c0,0,0,0.1,0,0.1l-4.2,2.5
				C166,21.1,166,21.1,165.9,21C165.9,21.1,165.9,21.1,165.9,21C165.9,21.1,165.9,21,165.9,21z M166.9,18.7l-0.8,2.1l3.7-2.2
				L166.9,18.7z"/>
		</g>
		<g>
			<path class="st1" d="M159.8,26l4.6-6.2c0,0,0,0,0.1,0c0,0,0,0,0.1,0L166,21c0,0,0,0,0,0.1c0,0,0,0,0,0.1l-6.1,5c0,0-0.1,0-0.1,0
				C159.8,26.1,159.8,26.1,159.8,26C159.8,26,159.8,26,159.8,26z M164.4,19.9l-4.2,5.7l5.6-4.5L164.4,19.9z"/>
		</g>
		<g>
			<path class="st1" d="M154.1,30l2.6-3.7c0,0,0,0,0.1,0l3.2-0.2c0,0,0.1,0,0.1,0.1c0,0,0,0.1,0,0.1l-5.7,4
				C154.1,30.1,154.1,30.1,154.1,30C154.1,30.1,154.1,30,154.1,30C154,30,154,30,154.1,30z M156.7,26.3l-2.3,3.4l5.2-3.6L156.7,26.3
				z"/>
		</g>
		<g>
			<path class="st1" d="M185.5,8.2L183,3.3c0,0,0-0.1,0-0.1c0,0,0.1,0,0.1,0l1.8,1.8c0,0,0,0,0,0l0.7,3
				C185.6,8.2,185.6,8.2,185.5,8.2C185.5,8.2,185.5,8.2,185.5,8.2C185.5,8.2,185.5,8.2,185.5,8.2z M183.3,3.7l2,3.8l-0.6-2.4
				L183.3,3.7z"/>
		</g>
		<g>
			<path class="st1" d="M177.4,2.7C177.4,2.7,177.4,2.6,177.4,2.7l5.7,0.5c0,0,0.1,0,0.1,0c0,0,0,0.1,0,0.1l-2.2,2.5c0,0,0,0-0.1,0
				c0,0,0,0-0.1,0L177.4,2.7C177.4,2.8,177.4,2.8,177.4,2.7C177.3,2.7,177.3,2.7,177.4,2.7z M182.9,3.3l-5.2-0.5l3.1,2.9L182.9,3.3z
				"/>
		</g>
		<g>
			<path class="st1" d="M172.8,4.8C172.8,4.8,172.9,4.8,172.8,4.8l4.5-2.2c0,0,0.1,0,0.1,0l3.4,3.1c0,0,0,0.1,0,0.1c0,0,0,0-0.1,0
				L172.8,4.8C172.9,4.9,172.9,4.9,172.8,4.8C172.9,4.9,172.8,4.9,172.8,4.8z M177.3,2.8l-4.2,2l7.3,0.9L177.3,2.8z"/>
		</g>
		<g>
			<path class="st1" d="M180.9,8.8l2.1-5.5c0,0,0,0,0.1,0c0,0,0.1,0,0.1,0l2.4,4.9c0,0,0,0,0,0.1c0,0,0,0-0.1,0L181,8.9
				C180.9,8.9,180.9,8.9,180.9,8.8C180.9,8.9,180.9,8.9,180.9,8.8C180.9,8.8,180.9,8.8,180.9,8.8z M183,3.5l-2,5.2l4.3-0.6L183,3.5z
				"/>
		</g>
		<g>
			<path class="st1" d="M175,13C175,13,175,12.9,175,13l5.9-4.3c0,0,0.1,0,0.1,0c0,0,0,0.1,0,0.1l-2.7,3.7c0,0,0,0-0.1,0L175,13
				C175.1,13.1,175.1,13.1,175,13C175,13,175,13,175,13z M180.6,9.2l-5.2,3.7l2.8-0.4L180.6,9.2z"/>
		</g>
		<g>
			<path class="st1" d="M180.9,8.8l-0.2-3c0,0,0,0,0-0.1l2.3-2.5c0,0,0.1,0,0.1,0c0,0,0,0.1,0,0.1L181,8.9
				C181,8.9,181,8.9,180.9,8.8C180.9,8.9,180.9,8.9,180.9,8.8C180.9,8.9,180.9,8.8,180.9,8.8z M180.8,5.8l0.2,2.6l1.8-4.8L180.8,5.8
				z M180.8,5.8L180.8,5.8L180.8,5.8z"/>
		</g>
		<g>
			<path class="st1" d="M166.2,8.6C166.2,8.6,166.2,8.5,166.2,8.6l6.7-3.8c0,0,0.1,0,0.1,0c0,0,0,0.1,0,0.1L170,9c0,0,0,0-0.1,0
				L166.2,8.6C166.3,8.7,166.3,8.6,166.2,8.6C166.2,8.6,166.2,8.6,166.2,8.6z M172.7,5.1l-6.1,3.4l3.3,0.4L172.7,5.1z"/>
		</g>
		<g>
			<path class="st1" d="M175,12.9l5.7-7.2c0,0,0.1,0,0.1,0c0,0,0.1,0,0.1,0.1l0.2,3c0,0,0,0.1,0,0.1l-5.9,4.2c0,0-0.1,0-0.1,0
				C175,13,175,13,175,12.9C175,13,175,13,175,12.9z M180.7,6l-5.2,6.6l5.4-3.8L180.7,6z"/>
		</g>
		<g>
			<path class="st1" d="M160.7,12C160.7,12,160.7,12,160.7,12l5.6-3.5c0,0,0,0,0,0l3.6,0.4c0,0,0.1,0,0.1,0.1c0,0,0,0.1-0.1,0.1
				L160.7,12C160.8,12.1,160.7,12.1,160.7,12C160.7,12,160.7,12,160.7,12z M166.3,8.6l-5,3.1l8.2-2.7L166.3,8.6z"/>
		</g>
		<g>
			<path class="st1" d="M155.5,14C155.5,14,155.5,13.9,155.5,14l5.4-2.1c0,0,0,0,0.1,0c0,0,0,0,0,0l1,3.2c0,0,0,0.1,0,0.1
				c0,0,0,0-0.1,0L155.5,14C155.5,14.1,155.5,14.1,155.5,14C155.5,14,155.5,14,155.5,14z M160.8,12.1l-5,1.9l5.9,1L160.8,12.1z"/>
		</g>
		<g>
			<path class="st1" d="M149.3,17.2C149.3,17.1,149.3,17.1,149.3,17.2l6.2-3.2c0,0,0.1,0,0.1,0c0,0,0,0.1,0,0.1l-2.2,3
				c0,0,0,0-0.1,0L149.3,17.2C149.4,17.2,149.4,17.2,149.3,17.2C149.3,17.2,149.3,17.2,149.3,17.2z M155.4,14.3l-5.6,2.8l3.7-0.1
				L155.4,14.3z"/>
		</g>
		<g>
			<path class="st1" d="M142.9,21.1C142.9,21,142.9,21,142.9,21.1l6.5-4c0,0,0,0,0,0l4-0.1c0,0,0.1,0,0.1,0.1c0,0,0,0.1,0,0.1
				L142.9,21.1C143,21.1,142.9,21.1,142.9,21.1C142.9,21.1,142.9,21.1,142.9,21.1z M149.4,17.2l-5.7,3.4l9.3-3.5L149.4,17.2z"/>
		</g>
		<g>
			<path class="st1" d="M136.9,22.2C136.9,22.2,136.9,22.1,136.9,22.2l6.1-1.2c0,0,0,0,0.1,0c0,0,0,0,0,0.1l-0.5,3.6c0,0,0,0,0,0.1
				c0,0,0,0-0.1,0L136.9,22.2C136.9,22.3,136.9,22.3,136.9,22.2C136.9,22.2,136.9,22.2,136.9,22.2z M142.9,21.1l-5.7,1.1l5.3,2.3
				L142.9,21.1z"/>
		</g>
		<g>
			<path class="st1" d="M130.8,24C130.8,24,130.8,23.9,130.8,24l6.2-1.8c0,0,0.1,0,0.1,0c0,0,0,0.1,0,0.1l-3.2,2.1c0,0,0,0-0.1,0
				L130.8,24C130.8,24.1,130.8,24.1,130.8,24C130.8,24,130.8,24,130.8,24z M136.6,22.5l-5.3,1.5l2.6,0.3L136.6,22.5z"/>
		</g>
		<g>
			<path class="st1" d="M126.4,26.1C126.3,26,126.4,26,126.4,26.1l4.5-2.2c0,0,0,0,0,0l3,0.4c0,0,0.1,0,0.1,0.1c0,0,0,0.1-0.1,0.1
				L126.4,26.1C126.4,26.1,126.4,26.1,126.4,26.1C126.4,26.1,126.4,26.1,126.4,26.1z M130.8,24.1l-3.7,1.8l6.3-1.4L130.8,24.1z"/>
		</g>
		<g>
			<path class="st1" d="M169.8,8.9l3-4.1c0,0,0,0,0.1,0l7.8,1c0,0,0.1,0,0.1,0.1c0,0,0,0.1-0.1,0.1L169.9,9
				C169.9,9.1,169.9,9,169.8,8.9L169.8,8.9C169.8,9,169.8,8.9,169.8,8.9z M173,4.9l-2.9,3.9l10.3-3L173,4.9z"/>
		</g>
		<g>
			<path class="st1" d="M166.8,18.7C166.8,18.6,166.8,18.6,166.8,18.7l8.3-5.7c0,0,0.1,0,0.1,0c0,0,0,0.1,0,0.1l-5,5.6
				c0,0,0,0-0.1,0L166.8,18.7C166.8,18.7,166.8,18.7,166.8,18.7C166.8,18.7,166.8,18.7,166.8,18.7z M174.6,13.4l-7.5,5.2l3-0.1
				L174.6,13.4z"/>
		</g>
		<g>
			<path class="st1" d="M161.8,15.1l-1-3.1c0,0,0-0.1,0-0.1l9.1-3c0,0,0.1,0,0.1,0c0,0,0,0.1,0,0.1l-8,6.2
				C161.9,15.2,161.9,15.2,161.8,15.1C161.8,15.2,161.8,15.2,161.8,15.1C161.8,15.2,161.8,15.2,161.8,15.1z M160.9,12.1l1,2.9
				l7.6-5.8L160.9,12.1z"/>
		</g>
		<g>
			<path class="st1" d="M169.8,9C169.8,8.9,169.9,8.9,169.8,9l10.9-3.2c0,0,0.1,0,0.1,0c0,0,0,0.1,0,0.1l-5.7,7.2c0,0-0.1,0-0.1,0
				L169.8,9C169.8,9,169.8,9,169.8,9C169.8,9,169.8,9,169.8,9z M180.6,5.9L170.1,9l5,3.9L180.6,5.9z"/>
		</g>
		<g>
			<path class="st1" d="M164.3,19.8C164.3,19.7,164.3,19.7,164.3,19.8l2.5-1.2c0,0,0.1,0,0.1,0c0,0,0,0.1,0,0.1l-0.9,2.4
				c0,0,0,0-0.1,0c0,0,0,0-0.1,0L164.3,19.8C164.4,19.8,164.3,19.8,164.3,19.8C164.3,19.8,164.3,19.8,164.3,19.8z M166.7,18.8
				l-2.2,1l1.4,1.1L166.7,18.8z"/>
		</g>
		<g>
			<path class="st1" d="M166.8,18.6l3-9.7c0,0,0,0,0.1-0.1c0,0,0.1,0,0.1,0l5.2,4c0,0,0,0,0,0.1c0,0,0,0,0,0.1l-8.2,5.7
				C166.9,18.7,166.8,18.7,166.8,18.6C166.8,18.7,166.8,18.7,166.8,18.6C166.8,18.7,166.8,18.6,166.8,18.6z M169.9,9.1l-2.9,9.4
				l8-5.5L169.9,9.1z"/>
		</g>
		<g>
			<path class="st1" d="M156.6,26.3C156.6,26.3,156.6,26.2,156.6,26.3l7.8-6.6c0,0,0.1,0,0.1,0c0,0,0,0.1,0,0.1l-4.6,6.2
				c0,0,0,0-0.1,0L156.6,26.3C156.7,26.3,156.6,26.3,156.6,26.3C156.6,26.3,156.6,26.3,156.6,26.3z M164,20.2l-7.1,5.9l2.9-0.2
				L164,20.2z"/>
		</g>
		<g>
			<path class="st1" d="M161.8,15.1C161.8,15.1,161.8,15.1,161.8,15.1l8.1-6.2c0,0,0.1,0,0.1,0c0,0,0,0.1,0,0.1l-3,9.7
				c0,0,0,0,0,0.1c0,0,0,0-0.1,0L161.8,15.1C161.8,15.2,161.8,15.2,161.8,15.1C161.8,15.2,161.8,15.1,161.8,15.1z M169.8,9.2
				l-7.8,5.9l4.8,3.4L169.8,9.2z"/>
		</g>
		<g>
			<path class="st1" d="M153.4,17.1C153.4,17.1,153.4,17,153.4,17.1l2.2-3.1c0,0,0,0,0.1,0l6.3,1.1c0,0,0.1,0,0.1,0.1
				c0,0,0,0.1-0.1,0.1L153.4,17.1C153.4,17.1,153.4,17.1,153.4,17.1C153.4,17.1,153.4,17.1,153.4,17.1z M155.6,14.1l-2,2.8l7.8-1.8
				L155.6,14.1z"/>
		</g>
		<g>
			<path class="st1" d="M164.3,19.8l-2.5-4.6c0,0,0-0.1,0-0.1c0,0,0.1,0,0.1,0l5,3.5c0,0,0,0,0,0.1c0,0,0,0.1,0,0.1L164.3,19.8
				C164.4,19.8,164.4,19.8,164.3,19.8C164.3,19.8,164.3,19.8,164.3,19.8z M162.1,15.4l2.3,4.3l2.3-1L162.1,15.4z"/>
		</g>
		<g>
			<path class="st1" d="M156.6,26.2l5.2-11.1c0,0,0,0,0.1,0c0,0,0.1,0,0.1,0l2.5,4.6c0,0,0,0.1,0,0.1l-7.7,6.5
				C156.7,26.3,156.7,26.3,156.6,26.2C156.6,26.3,156.6,26.3,156.6,26.2C156.6,26.3,156.6,26.3,156.6,26.2z M161.9,15.3l-5,10.7
				l7.4-6.2L161.9,15.3z"/>
		</g>
		<g>
			<path class="st1" d="M142.4,24.6l0.5-3.6c0,0,0-0.1,0-0.1l10.5-4c0,0,0.1,0,0.1,0c0,0,0,0.1,0,0.1l-10.9,7.6
				C142.5,24.7,142.5,24.7,142.4,24.6C142.5,24.7,142.5,24.7,142.4,24.6C142.4,24.7,142.4,24.7,142.4,24.6z M143,21.1l-0.4,3.4
				l10.3-7.1L143,21.1z"/>
		</g>
		<g>
			<path class="st1" d="M148.2,26.1C148.2,26.1,148.2,26,148.2,26.1l5.2-9.1c0,0,0,0,0.1,0c0,0,0.1,0,0.1,0.1l3.2,9.2
				c0,0,0,0.1,0,0.1c0,0,0,0-0.1,0L148.2,26.1C148.2,26.1,148.2,26.1,148.2,26.1C148.2,26.1,148.2,26.1,148.2,26.1z M153.4,17.2
				l-5.1,8.7l8.2,0.2L153.4,17.2z"/>
		</g>
		<g>
			<path class="st1" d="M161.6,6C161.6,6,161.7,5.9,161.6,6l3.3,0.5c0,0,0,0,0.1,0l0.8,1.7c0,0,0,0.1,0,0.1c0,0-0.1,0-0.1,0L161.6,6
				C161.6,6.1,161.6,6.1,161.6,6C161.6,6,161.6,6,161.6,6z M164.9,6.7l-2.8-0.5l3.4,1.9L164.9,6.7z"/>
		</g>
		<g>
			<path class="st1" d="M156.7,6.5C156.7,6.5,156.7,6.5,156.7,6.5l5-0.6c0,0,0.1,0,0.1,0.1c0,0,0,0.1,0,0.1l-2.6,1.4c0,0,0,0-0.1,0
				L156.7,6.5C156.7,6.6,156.7,6.6,156.7,6.5C156.7,6.6,156.7,6.6,156.7,6.5z M161.3,6.1l-4.2,0.4l2,0.8L161.3,6.1z"/>
		</g>
		<g>
			<path class="st1" d="M149.3,8.2C149.3,8.2,149.3,8.2,149.3,8.2l7.5-1.8c0,0,0.1,0,0.1,0c0,0,0,0.1,0,0.1l-4.1,2.8c0,0,0,0-0.1,0
				L149.3,8.2C149.3,8.3,149.3,8.3,149.3,8.2C149.3,8.3,149.3,8.3,149.3,8.2z M156.4,6.7l-6.8,1.6l3.1,1L156.4,6.7z"/>
		</g>
		<g>
			<path class="st1" d="M144.7,9.8C144.7,9.8,144.7,9.7,144.7,9.8l4.6-1.6c0,0,0.1,0,0.1,0c0,0,0,0.1,0,0.1l-0.7,1.3c0,0,0,0-0.1,0
				L144.7,9.8C144.8,9.9,144.8,9.9,144.7,9.8C144.7,9.8,144.7,9.8,144.7,9.8z M149.2,8.4l-3.8,1.3l3.3-0.2L149.2,8.4z"/>
		</g>
		<g>
			<path class="st1" d="M139.4,10.7C139.4,10.7,139.4,10.6,139.4,10.7l5.4-1c0,0,0,0,0.1,0c0,0,0,0,0,0.1l0.1,2.4c0,0,0,0,0,0.1
				c0,0,0,0-0.1,0L139.4,10.7C139.4,10.8,139.4,10.8,139.4,10.7C139.4,10.7,139.4,10.7,139.4,10.7z M144.7,9.9l-4.9,0.8l5,1.4
				L144.7,9.9z"/>
		</g>
		<g>
			<path class="st1" d="M134.4,11.8C134.5,11.7,134.5,11.7,134.4,11.8l5-1.2c0,0,0.1,0,0.1,0c0,0,0,0.1,0,0.1l-3.8,2.3
				c0,0-0.1,0-0.1,0L134.4,11.8C134.5,11.8,134.5,11.8,134.4,11.8C134.4,11.8,134.4,11.8,134.4,11.8z M139,10.9l-4.3,1l1,1.1
				L139,10.9z"/>
		</g>
		<g>
			<path class="st1" d="M128.9,14.2C128.8,14.2,128.9,14.2,128.9,14.2l5.6-2.5c0,0,0.1,0,0.1,0l1.1,1.2c0,0,0,0.1,0,0.1
				c0,0,0,0-0.1,0.1L128.9,14.2C128.9,14.3,128.9,14.3,128.9,14.2C128.9,14.2,128.9,14.2,128.9,14.2z M134.5,11.9l-4.9,2.1l5.9-1.1
				L134.5,11.9z"/>
		</g>
		<g>
			<path class="st1" d="M123.2,14.4C123.2,14.4,123.2,14.4,123.2,14.4l5.7-0.4c0,0,0.1,0,0.1,0.1c0,0,0,0.1,0,0.1l-2.5,1.7
				c0,0-0.1,0-0.1,0L123.2,14.4C123.2,14.5,123.2,14.5,123.2,14.4C123.2,14.5,123.2,14.4,123.2,14.4z M128.6,14.2l-5,0.3l2.8,1.2
				L128.6,14.2z"/>
		</g>
		<g>
			<path class="st1" d="M115.7,15.7C115.7,15.6,115.7,15.6,115.7,15.7l7.6-1.4c0,0,0.1,0,0.1,0c0,0,0,0.1,0,0.1l-3.5,2.3
				c0,0,0,0-0.1,0L115.7,15.7C115.7,15.8,115.7,15.7,115.7,15.7C115.7,15.7,115.7,15.7,115.7,15.7z M123,14.5l-6.9,1.2l3.7,0.9
				L123,14.5z"/>
		</g>
		<g>
			<path class="st1" d="M129.2,17.8l-0.4-3.6c0,0,0-0.1,0.1-0.1l6.7-1.2c0,0,0.1,0,0.1,0c0,0,0,0.1,0,0.1l-6.3,4.8
				C129.3,17.9,129.3,17.9,129.2,17.8C129.2,17.8,129.2,17.8,129.2,17.8C129.2,17.8,129.2,17.8,129.2,17.8z M129,14.3l0.3,3.4l6-4.5
				L129,14.3z"/>
		</g>
		<g>
			<path class="st1" d="M159,7.5C159,7.4,159,7.4,159,7.5l2.7-1.5c0,0,0.1,0,0.1,0l4,2.3c0,0,0,0.1,0,0.1c0,0,0,0.1-0.1,0.1L159,7.5
				C159,7.5,159,7.5,159,7.5C159,7.5,159,7.5,159,7.5z M161.7,6.1l-2.4,1.3l6,0.7L161.7,6.1z"/>
		</g>
		<g>
			<path class="st1" d="M152.6,9.4C152.6,9.4,152.6,9.3,152.6,9.4l4.1-2.9c0,0,0,0,0.1,0l2.3,0.9c0,0,0.1,0,0,0.1c0,0,0,0.1-0.1,0.1
				L152.6,9.4C152.7,9.5,152.7,9.4,152.6,9.4C152.6,9.4,152.6,9.4,152.6,9.4z M156.8,6.6l-3.6,2.5l5.7-1.7L156.8,6.6z"/>
		</g>
		<g>
			<path class="st1" d="M148.6,9.6C148.6,9.6,148.6,9.5,148.6,9.6l0.6-1.4c0,0,0.1-0.1,0.1,0l3.4,1.1c0,0,0.1,0,0.1,0.1
				c0,0,0,0.1-0.1,0.1L148.6,9.6C148.7,9.6,148.6,9.6,148.6,9.6C148.6,9.6,148.6,9.6,148.6,9.6z M149.4,8.3l-0.6,1.1l3.5-0.2
				L149.4,8.3z"/>
		</g>
		<g>
			<path class="st1" d="M144.8,12.2l-0.1-2.4c0,0,0-0.1,0.1-0.1l3.9-0.2c0,0,0.1,0,0.1,0.1c0,0,0,0.1,0,0.1l-3.8,2.6
				C144.9,12.3,144.9,12.3,144.8,12.2C144.9,12.3,144.8,12.2,144.8,12.2C144.8,12.2,144.8,12.2,144.8,12.2z M144.9,9.9L145,12
				l3.4-2.4L144.9,9.9z"/>
		</g>
		<g>
			<path class="st1" d="M135.6,13C135.5,13,135.6,13,135.6,13l3.9-2.4c0,0,0,0,0.1,0l5.5,1.5c0,0,0.1,0,0.1,0.1c0,0,0,0.1-0.1,0.1
				L135.6,13C135.6,13.1,135.6,13.1,135.6,13C135.6,13.1,135.6,13,135.6,13z M139.5,10.8l-3.5,2.1l8.5-0.8L139.5,10.8z"/>
		</g>
		<g>
			<path class="st1" d="M152.6,9.4C152.6,9.3,152.7,9.3,152.6,9.4l6.4-2c0,0,0.1,0,0.1,0c0,0,0,0.1,0,0.1l-3.4,3c0,0-0.1,0-0.1,0
				L152.6,9.4C152.7,9.4,152.7,9.4,152.6,9.4C152.6,9.4,152.6,9.4,152.6,9.4z M158.7,7.6L153,9.4l2.7,1L158.7,7.6z"/>
		</g>
		<g>
			<path class="st1" d="M148.9,12.6l-0.3-3c0,0,0,0,0-0.1c0,0,0,0,0.1,0l4-0.2c0,0,0.1,0,0.1,0c0,0,0,0.1,0,0.1l-3.8,3.2
				C149,12.7,148.9,12.7,148.9,12.6C148.9,12.7,148.9,12.7,148.9,12.6C148.9,12.6,148.9,12.6,148.9,12.6z M148.8,9.6l0.2,2.8l3.5-3
				L148.8,9.6z"/>
		</g>
		<g>
			<path class="st1" d="M135.6,13C135.6,13,135.6,12.9,135.6,13l9.3-0.9c0,0,0,0,0.1,0c0,0,0,0,0,0.1l0.2,2.9c0,0,0,0,0,0.1
				c0,0,0,0-0.1,0L135.6,13C135.6,13.1,135.6,13.1,135.6,13C135.6,13,135.6,13,135.6,13z M144.8,12.3l-8.7,0.8l8.9,1.9L144.8,12.3z"
				/>
		</g>
		<g>
			<path class="st1" d="M129.2,17.8C129.2,17.8,129.2,17.7,129.2,17.8l6.4-4.8c0,0,0.1,0,0.1,0c0,0,0,0.1,0,0.1l-1.9,6.1
				c0,0-0.1,0.1-0.1,0.1L129.2,17.8C129.2,17.8,129.2,17.8,129.2,17.8C129.2,17.8,129.2,17.8,129.2,17.8z M135.5,13.2l-6,4.5
				l4.2,1.3L135.5,13.2z"/>
		</g>
		<g>
			<path class="st1" d="M126.3,15.8C126.3,15.8,126.3,15.7,126.3,15.8l2.7-1.7c0,0,0.1,0,0.1,0c0,0,0,0,0,0.1L129,18
				c0,0,0,0.1,0,0.1c0,0-0.1,0-0.1,0L126.3,15.8C126.3,15.9,126.3,15.9,126.3,15.8C126.3,15.8,126.3,15.8,126.3,15.8z M129,14.3
				l-2.5,1.5l2.4,2L129,14.3z"/>
		</g>
		<g>
			<path class="st1" d="M119.8,16.7C119.8,16.7,119.8,16.6,119.8,16.7l3.5-2.4c0,0,0.1,0,0.1,0l3,1.4c0,0,0,0,0,0.1
				c0,0,0,0.1-0.1,0.1L119.8,16.7C119.9,16.8,119.8,16.8,119.8,16.7C119.8,16.7,119.8,16.7,119.8,16.7z M123.4,14.5l-3.1,2.1
				l5.9-0.8L123.4,14.5z"/>
		</g>
		<g>
			<path class="st1" d="M123.9,18.7C123.9,18.7,123.9,18.7,123.9,18.7l2.4-3c0,0,0,0,0.1,0c0,0,0,0,0.1,0l2.6,2.2c0,0,0,0.1,0,0.1
				c0,0,0,0.1-0.1,0.1L123.9,18.7C124,18.8,123.9,18.8,123.9,18.7C123.9,18.7,123.9,18.7,123.9,18.7z M126.4,15.9l-2.2,2.7l4.6-0.6
				L126.4,15.9z"/>
		</g>
		<g>
			<path class="st1" d="M123.9,18.7C123.9,18.6,123.9,18.6,123.9,18.7l5-0.7c0,0,0.1,0,0.1,0.1l1,2.9c0,0,0,0.1,0,0.1
				c0,0-0.1,0-0.1,0L123.9,18.7C123.9,18.8,123.9,18.7,123.9,18.7C123.9,18.7,123.9,18.7,123.9,18.7z M128.9,18.1l-4.6,0.6l5.5,2
				L128.9,18.1z"/>
		</g>
		<g>
			<path class="st1" d="M112.1,16.7C112.1,16.6,112.2,16.6,112.1,16.7l3.6-1.1c0,0,0,0,0.1,0c0,0,0,0,0,0l0.8,3.8c0,0,0,0.1,0,0.1
				c0,0-0.1,0-0.1,0L112.1,16.7C112.2,16.7,112.1,16.7,112.1,16.7C112.1,16.7,112.1,16.7,112.1,16.7z M115.7,15.8l-3.3,0.9l4.1,2.6
				L115.7,15.8z"/>
		</g>
		<g>
			<path class="st1" d="M116.5,19.5l-0.8-3.8c0,0,0-0.1,0-0.1c0,0,0,0,0.1,0l4.1,1c0,0,0.1,0,0.1,0.1c0,0,0,0.1,0,0.1l-3.3,2.8
				C116.6,19.6,116.6,19.6,116.5,19.5C116.6,19.6,116.5,19.6,116.5,19.5C116.5,19.5,116.5,19.5,116.5,19.5z M115.9,15.8l0.8,3.6
				l3.1-2.6L115.9,15.8z"/>
		</g>
		<g>
			<path class="st1" d="M119.8,16.7C119.8,16.6,119.8,16.6,119.8,16.7l6.6-0.9c0,0,0.1,0,0.1,0c0,0,0,0.1,0,0.1l-2.4,2.9
				c0,0-0.1,0-0.1,0L119.8,16.7C119.8,16.8,119.8,16.7,119.8,16.7C119.8,16.7,119.8,16.7,119.8,16.7z M126.2,15.9l-6.1,0.8l3.8,1.9
				L126.2,15.9z"/>
		</g>
		<g>
			<path class="st1" d="M116.5,19.5C116.5,19.4,116.6,19.4,116.5,19.5l7.4-0.9c0,0,0.1,0,0.1,0c0,0,0,0.1,0,0.1l-4.2,4.5
				c0,0,0,0-0.1,0c0,0,0,0-0.1,0L116.5,19.5C116.5,19.5,116.5,19.5,116.5,19.5C116.5,19.5,116.5,19.5,116.5,19.5z M123.8,18.8
				l-7,0.8l3.1,3.5L123.8,18.8z"/>
		</g>
		<g>
			<path class="st1" d="M104,16C104,16,104,15.9,104,16l8.2,0.6c0,0,0.1,0,0.1,0c0,0,0,0.1,0,0.1l-2.3,2.8c0,0-0.1,0-0.1,0L104,16
				C104,16.1,104,16.1,104,16C104,16,104,16,104,16z M112.1,16.8l-7.7-0.6l5.5,3.3L112.1,16.8z"/>
		</g>
		<g>
			<path class="st1" d="M97.5,15.6C97.5,15.6,97.6,15.6,97.5,15.6l6.5,0.3c0,0,0,0,0.1,0l1.8,1.9c0,0,0,0.1,0,0.1c0,0-0.1,0-0.1,0
				L97.5,15.6C97.6,15.7,97.5,15.7,97.5,15.6C97.5,15.7,97.5,15.7,97.5,15.6z M104,16.1l-5.7-0.3l7.3,2L104,16.1z"/>
		</g>
		<g>
			<path class="st1" d="M88.8,13.2C88.9,13.2,88.9,13.2,88.8,13.2l8.8,2.4c0,0,0.1,0,0.1,0.1l0.3,3.8c0,0,0,0.1,0,0.1
				c0,0-0.1,0-0.1,0L88.8,13.2C88.9,13.3,88.8,13.3,88.8,13.2C88.8,13.3,88.8,13.2,88.8,13.2z M97.5,15.7l-8.2-2.3l8.5,5.9
				L97.5,15.7z"/>
		</g>
		<g>
			<path class="st1" d="M78.2,11C78.3,11,78.3,10.9,78.2,11l10.7,2.2c0,0,0.1,0,0.1,0.1c0,0,0,0.1,0,0.1l-5.3,2.3c0,0-0.1,0-0.1,0
				L78.2,11C78.3,11.1,78.3,11.1,78.2,11C78.2,11,78.2,11,78.2,11z M88.6,13.3l-10.1-2.1l5,4.3L88.6,13.3z"/>
		</g>
		<g>
			<path class="st1" d="M67.3,8.4C67.3,8.4,67.4,8.3,67.3,8.4l11,2.5c0,0,0,0,0,0l5.3,4.5c0,0,0,0.1,0,0.1c0,0-0.1,0-0.1,0L67.3,8.4
				C67.4,8.5,67.4,8.5,67.3,8.4C67.3,8.5,67.3,8.4,67.3,8.4z M78.3,11.1L68.2,8.7l14.9,6.5L78.3,11.1z"/>
		</g>
		<g>
			<path class="st1" d="M56.6,6.1C56.7,6,56.7,6,56.6,6.1l10.8,2.3c0,0,0.1,0,0.1,0.1c0,0,0,0.1-0.1,0.1L65,9.4c0,0,0,0-0.1,0
				L56.6,6.1C56.7,6.1,56.7,6.1,56.6,6.1C56.6,6.1,56.6,6.1,56.6,6.1z M67.1,8.4l-9.5-2.1L65,9.3L67.1,8.4z"/>
		</g>
		<g>
			<path class="st1" d="M47.5,5.7l0.3-1.2c0,0,0-0.1,0.1-0.1L56.7,6c0,0,0.1,0,0.1,0.1c0,0,0,0.1-0.1,0.1L47.5,5.7
				C47.5,5.8,47.5,5.7,47.5,5.7C47.5,5.7,47.5,5.7,47.5,5.7C47.5,5.7,47.5,5.7,47.5,5.7z M47.9,4.6l-0.3,1L55.5,6L47.9,4.6z"/>
		</g>
		<g>
			<path class="st1" d="M40.5,5C40.5,5,40.6,5,40.5,5l7.3-0.6c0,0,0,0,0.1,0c0,0,0,0,0,0.1l-0.3,1.2c0,0,0,0.1-0.1,0.1L40.5,5
				C40.6,5.1,40.6,5.1,40.5,5C40.5,5.1,40.5,5,40.5,5z M47.8,4.6L41.6,5l5.9,0.6L47.8,4.6z"/>
		</g>
		<g>
			<path class="st1" d="M34.8,6.9C34.8,6.8,34.8,6.8,34.8,6.9L40.6,5c0,0,0.1,0,0.1,0c0,0,0,0,0,0.1l-0.1,2.1c0,0,0,0.1-0.1,0.1
				L34.8,6.9C34.8,6.9,34.8,6.9,34.8,6.9C34.8,6.9,34.8,6.9,34.8,6.9z M40.5,5.1l-5.2,1.7L40.4,7L40.5,5.1z"/>
		</g>
		<g>
			<path class="st1" d="M30.4,9C30.4,8.9,30.4,8.9,30.4,9l4.5-2.2c0,0,0.1,0,0.1,0c0,0,0,0.1,0,0.1l-1.3,2.4c0,0,0,0-0.1,0L30.4,9
				C30.4,9,30.4,9,30.4,9C30.4,9,30.4,9,30.4,9z M34.7,7l-4,1.9l2.8,0.3L34.7,7z"/>
		</g>
		<g>
			<path class="st1" d="M23.7,14.6l-0.5-2.8c0,0,0-0.1,0.1-0.1l6.1-1.7c0,0,0.1,0,0.1,0c0,0,0,0.1,0,0.1l-5.6,4.5
				C23.8,14.6,23.8,14.6,23.7,14.6C23.8,14.6,23.7,14.6,23.7,14.6C23.7,14.6,23.7,14.6,23.7,14.6z M23.4,11.8l0.5,2.6l5.2-4.2
				L23.4,11.8z"/>
		</g>
		<g>
			<path class="st1" d="M16.3,13.8C16.3,13.8,16.3,13.8,16.3,13.8l7-2.1c0,0,0,0,0.1,0c0,0,0,0,0,0.1l0.5,2.8c0,0,0,0,0,0.1
				c0,0,0,0-0.1,0L16.3,13.8C16.4,13.9,16.3,13.9,16.3,13.8C16.3,13.9,16.3,13.9,16.3,13.8z M23.2,11.9l-6.4,1.9l6.9,0.7L23.2,11.9z
				"/>
		</g>
		<g>
			<path class="st1" d="M3.1,18.8C3.1,18.8,3.1,18.7,3.1,18.8l13.2-5.1c0,0,0.1,0,0.1,0c0,0,0,0.1,0,0.1l-4.3,4.6c0,0,0,0-0.1,0
				L3.1,18.8C3.2,18.9,3.2,18.9,3.1,18.8C3.1,18.8,3.1,18.8,3.1,18.8z M16.1,14L3.7,18.7l8.4-0.3L16.1,14z"/>
		</g>
		<g>
			<path class="st1" d="M12,18.4l4.3-4.6c0,0,0,0,0.1,0l7.4,0.7c0,0,0.1,0,0.1,0.1c0,0,0,0.1-0.1,0.1l-11.7,3.9
				C12.1,18.6,12,18.6,12,18.4L12,18.4C12,18.5,12,18.5,12,18.4z M16.4,13.9l-4.1,4.4l11.1-3.7L16.4,13.9z"/>
		</g>
		<g>
			<path class="st1" d="M23.7,14.6c0,0,0-0.1,0-0.1l5.6-4.5c0,0,0,0,0.1,0l3.1,0.4c0,0,0.1,0,0.1,0.1c0,0,0,0.1,0,0.1L23.7,14.6
				C23.8,14.6,23.8,14.6,23.7,14.6L23.7,14.6z M29.4,10.1l-5.1,4.1l7.9-3.7L29.4,10.1z"/>
		</g>
		<g>
			<path class="st1" d="M40.4,7.1L40.5,5c0,0,0,0,0-0.1c0,0,0,0,0.1,0l6.9,0.7c0,0,0.1,0,0.1,0.1c0,0,0,0.1-0.1,0.1L40.4,7.1
				C40.5,7.2,40.5,7.2,40.4,7.1C40.4,7.1,40.4,7.1,40.4,7.1C40.4,7.1,40.4,7.1,40.4,7.1z M40.7,5.1L40.6,7L47,5.7L40.7,5.1z"/>
		</g>
		<g>
			<path class="st1" d="M64.9,9.3C64.9,9.3,64.9,9.3,64.9,9.3l2.5-1c0,0,0,0,0.1,0l16.2,7.1c0,0,0.1,0.1,0,0.1c0,0-0.1,0.1-0.1,0
				L64.9,9.3C64.9,9.4,64.9,9.4,64.9,9.3C64.9,9.4,64.9,9.4,64.9,9.3z M67.4,8.5l-2.2,0.8L82,14.9L67.4,8.5z"/>
		</g>
		<g>
			<path class="st1" d="M83.6,15.7C83.6,15.6,83.6,15.6,83.6,15.7l5.3-2.5c0,0,0.1,0,0.1,0l9,6.2c0,0,0,0.1,0,0.1c0,0-0.1,0.1-0.1,0
				L83.6,15.7C83.6,15.7,83.6,15.7,83.6,15.7C83.6,15.7,83.6,15.7,83.6,15.7z M88.9,13.3l-5,2.3l13.6,3.6L88.9,13.3z"/>
		</g>
		<g>
			<path class="st1" d="M97.8,19.5l-0.3-3.8c0,0,0,0,0-0.1c0,0,0,0,0.1,0l8.3,2.3c0,0,0.1,0,0.1,0.1c0,0,0,0.1-0.1,0.1L97.8,19.5
				C97.9,19.6,97.9,19.5,97.8,19.5C97.9,19.5,97.9,19.5,97.8,19.5C97.8,19.5,97.8,19.5,97.8,19.5z M97.7,15.8l0.3,3.6l7.6-1.4
				L97.7,15.8z"/>
		</g>
		<g>
			<path class="st1" d="M104,16c0,0,0.1,0,0.1,0l5.9,3.5c0,0,0,0.1,0,0.1c0,0-0.1,0.1-0.1,0l-4-1.6c0,0,0,0,0,0l-1.8-1.9
				C104,16.1,104,16.1,104,16C104,16,104,16,104,16z M109.1,19.1l-4.6-2.7l1.4,1.5L109.1,19.1z"/>
		</g>
		<g>
			<path class="st1" d="M109.8,19.6C109.8,19.5,109.8,19.5,109.8,19.6l2.3-2.9c0,0,0.1,0,0.1,0l4.4,2.8c0,0,0,0.1,0,0.1
				c0,0,0,0.1-0.1,0.1L109.8,19.6C109.9,19.6,109.9,19.6,109.8,19.6C109.9,19.6,109.8,19.6,109.8,19.6z M112.2,16.8l-2.1,2.7l6.3,0
				L112.2,16.8z"/>
		</g>
		<g>
			<path class="st1" d="M97.8,19.5C97.8,19.4,97.9,19.4,97.8,19.5l8-1.6c0,0,0,0,0,0l4,1.6c0,0,0.1,0,0,0.1c0,0,0,0.1-0.1,0.1
				L97.8,19.5C97.9,19.5,97.9,19.5,97.8,19.5C97.8,19.5,97.8,19.5,97.8,19.5z M105.9,18l-7.2,1.4l10.8,0.1L105.9,18z"/>
		</g>
		<g>
			<path class="st1" d="M83.6,15.6C83.6,15.6,83.7,15.6,83.6,15.6l14.3,3.8c0,0,0,0,0,0c0,0,0,0,0,0.1l-2.3,5.1c0,0,0,0-0.1,0
				c0,0,0,0-0.1,0L83.6,15.6C83.6,15.7,83.6,15.7,83.6,15.6C83.6,15.7,83.6,15.6,83.6,15.6z M97.8,19.5L84,15.8l11.6,8.6L97.8,19.5z
				"/>
		</g>
		<g>
			<path class="st1" d="M109.2,24.6l0.7-5.1c0,0,0,0,0-0.1c0,0,0,0,0.1,0l9.9,3.7c0,0,0.1,0,0,0.1c0,0,0,0.1-0.1,0.1L109.2,24.6
				C109.2,24.7,109.2,24.7,109.2,24.6C109.2,24.7,109.2,24.7,109.2,24.6C109.2,24.7,109.2,24.6,109.2,24.6z M110,19.6l-0.7,4.9
				l10.2-1.4L110,19.6z"/>
		</g>
		<g>
			<path class="st1" d="M102.4,25.6C102.4,25.6,102.4,25.5,102.4,25.6l7.4-6.1c0,0,0.1,0,0.1,0c0,0,0,0,0,0.1l-0.7,5.1
				c0,0,0,0.1-0.1,0.1L102.4,25.6C102.5,25.6,102.4,25.6,102.4,25.6C102.4,25.6,102.4,25.6,102.4,25.6z M109.8,19.7l-7.1,5.7
				l6.4-0.9L109.8,19.7z"/>
		</g>
		<g>
			<path class="st1" d="M145.6,32.8C145.6,32.8,145.6,32.7,145.6,32.8l4.3,0.1c0,0,0,0,0,0l2.8,2c0,0,0,0.1,0,0.1c0,0-0.1,0.1-0.1,0
				L145.6,32.8C145.6,32.9,145.6,32.9,145.6,32.8C145.6,32.8,145.6,32.8,145.6,32.8z M149.8,33l-3.6-0.1l6,1.8L149.8,33z"/>
		</g>
		<g>
			<path class="st1" d="M145.6,32.8C145.6,32.8,145.6,32.7,145.6,32.8l7.1,2.1c0,0,0,0,0,0l0.8,2.1c0,0,0,0.1,0,0.1c0,0-0.1,0-0.1,0
				L145.6,32.8C145.6,32.9,145.6,32.9,145.6,32.8C145.6,32.8,145.6,32.8,145.6,32.8z M152.6,35l-6.2-1.9l7,3.7L152.6,35z"/>
		</g>
		<g>
			<path class="st1" d="M149,37.9l-3.4-5.1c0,0,0-0.1,0-0.1c0,0,0.1,0,0.1,0l7.8,4.2c0,0,0,0,0,0.1c0,0,0,0.1-0.1,0.1L149,37.9
				C149,38,149,38,149,37.9C149,38,149,37.9,149,37.9z M145.9,33l3.2,4.8l4.2-0.8L145.9,33z"/>
		</g>
		<g>
			<path class="st1" d="M148.2,26C148.2,26,148.2,26,148.2,26l8.5,0.2c0,0,0.1,0,0.1,0c0,0,0,0.1,0,0.1l-2.6,3.7c0,0-0.1,0-0.1,0
				L148.2,26C148.2,26.1,148.2,26.1,148.2,26C148.2,26.1,148.2,26,148.2,26z M156.5,26.3l-8-0.2l5.6,3.8L156.5,26.3z"/>
		</g>
		<g>
			<path class="st1" d="M142.4,24.7C142.4,24.6,142.4,24.6,142.4,24.7l11-7.7c0,0,0.1,0,0.1,0c0,0,0,0.1,0,0.1l-5.2,9
				c0,0-0.1,0-0.1,0L142.4,24.7C142.5,24.7,142.5,24.7,142.4,24.7C142.4,24.7,142.4,24.7,142.4,24.7z M153.2,17.3l-10.5,7.3l5.5,1.3
				L153.2,17.3z"/>
		</g>
		<g>
			<path class="st1" d="M150.5,31.8l-2.4-5.7c0,0,0-0.1,0-0.1c0,0,0.1,0,0.1,0l5.9,4c0,0,0,0,0,0.1c0,0,0,0.1,0,0.1l-3.5,1.8
				C150.6,31.8,150.6,31.8,150.5,31.8C150.6,31.8,150.6,31.8,150.5,31.8C150.5,31.8,150.5,31.8,150.5,31.8z M148.4,26.3l2.3,5.4
				L154,30L148.4,26.3z"/>
		</g>
		<g>
			<path class="st1" d="M140.4,27.9l-3.5-5.6c0,0,0-0.1,0-0.1c0,0,0.1,0,0.1,0l5.6,2.5c0,0,0,0,0,0c0,0,0,0,0,0.1l-2.1,3.2
				C140.5,27.9,140.5,27.9,140.4,27.9C140.4,27.9,140.4,27.9,140.4,27.9C140.4,27.9,140.4,27.9,140.4,27.9z M137.1,22.4l3.3,5.3
				l1.9-3L137.1,22.4z"/>
		</g>
		<g>
			<path class="st1" d="M140.4,27.8l2.1-3.2c0,0,0.1,0,0.1,0l5.7,1.4c0,0,0.1,0,0.1,0.1c0,0,0,0.1-0.1,0.1l-7.8,1.8
				C140.4,27.9,140.4,27.9,140.4,27.8L140.4,27.8C140.4,27.8,140.4,27.8,140.4,27.8z M142.6,24.7l-1.9,3l7.3-1.7L142.6,24.7z"/>
		</g>
		<g>
			<path class="st1" d="M109.2,24.6C109.2,24.6,109.2,24.6,109.2,24.6l10.6-1.5c0,0,0,0,0.1,0l3.1,2.5c0,0,0,0.1,0,0.1
				c0,0,0,0.1-0.1,0L109.2,24.6C109.2,24.7,109.2,24.7,109.2,24.6C109.2,24.7,109.2,24.6,109.2,24.6z M119.8,23.3l-9.8,1.3l12.7,1
				L119.8,23.3z"/>
		</g>
		<g>
			<path class="st1" d="M20.8,22.1l2.9-7.6c0,0,0.1-0.1,0.1,0l5.9,1.5c0,0,0.1,0,0.1,0.1c0,0,0,0.1,0,0.1l-8.8,6.1
				C20.9,22.2,20.9,22.2,20.8,22.1C20.8,22.2,20.8,22.2,20.8,22.1C20.8,22.2,20.8,22.1,20.8,22.1z M23.9,14.6l-2.8,7.3l8.5-5.9
				L23.9,14.6z"/>
		</g>
		<g>
			<path class="st1" d="M12,18.4C12,18.4,12.1,18.4,12,18.4l8.9,3.6c0,0,0.1,0,0,0.1c0,0,0,0.1-0.1,0.1l-5.8,1.2c0,0-0.1,0-0.1,0
				L12,18.4C12,18.5,12,18.5,12,18.4z M20.6,22.1l-8.4-3.5l2.9,4.6L20.6,22.1z"/>
		</g>
		<g>
			<path class="st1" d="M33.5,49.1l-3.6-8.8c0,0,0-0.1,0-0.1c0,0,0.1,0,0.1,0l8,3.6c0,0,0,0,0,0.1c0,0,0,0,0,0.1l-4.4,5.2
				C33.6,49.1,33.5,49.2,33.5,49.1C33.5,49.1,33.5,49.1,33.5,49.1C33.5,49.1,33.5,49.1,33.5,49.1z M30.1,40.4l3.5,8.5l4.2-5.1
				L30.1,40.4z"/>
		</g>
		<g>
			<path class="st1" d="M20.9,24.3l-0.1-2.1c0,0,0-0.1,0-0.1c0,0,0.1,0,0.1,0l6.7,2.9c0,0,0.1,0.1,0,0.1c0,0,0,0.1-0.1,0.1
				L20.9,24.3C20.9,24.3,20.9,24.3,20.9,24.3C20.9,24.3,20.9,24.3,20.9,24.3z M21,22.3l0.1,1.9l6,0.8L21,22.3z"/>
		</g>
		<g>
			<path class="st1" d="M26.7,43.2l-3.2-7c0,0,0-0.1,0-0.1c0,0,0.1,0,0.1,0l6.3,4.2c0,0,0,0,0,0.1c0,0,0,0,0,0.1l-3.1,2.8
				C26.8,43.2,26.8,43.2,26.7,43.2C26.8,43.2,26.7,43.2,26.7,43.2C26.7,43.2,26.7,43.2,26.7,43.2z M23.8,36.3l3,6.7l3-2.7L23.8,36.3
				z"/>
		</g>
		<g>
			<path class="st1" d="M30.1,31l-2.6-5.9c0,0,0,0,0-0.1c0,0,0,0,0,0l2.3-1c0,0,0.1,0,0.1,0c0,0,0,0,0,0.1l0.3,6.9
				C30.3,31,30.3,31.1,30.1,31C30.2,31.1,30.2,31.1,30.1,31C30.2,31.1,30.1,31,30.1,31z M27.7,25.1l2.4,5.5l-0.3-6.4L27.7,25.1z"/>
		</g>
		<g>
			<path class="st1" d="M44.1,26.1l1.1-4.4c0,0,0-0.1,0.1-0.1c0,0,0.1,0,0.1,0l3.8,4.6c0,0,0,0.1,0,0.1c0,0,0,0-0.1,0L44.1,26.1
				C44.1,26.2,44.1,26.2,44.1,26.1C44.1,26.1,44.1,26.1,44.1,26.1C44.1,26.1,44.1,26.1,44.1,26.1z M45.3,21.9l-1,4.1l4.6,0.2
				L45.3,21.9z"/>
		</g>
	</g>
</g>
<g id="Ñëîé_2">
</g>
</svg>
