<?xml version="1.0" encoding="utf-8"?>
<!-- Generator: Adobe Illustrator 24.0.0, SVG Export Plug-In . SVG Version: 6.00 Build 0)  -->
<svg version="1.1" id="Ñëîé_3" xmlns="http://www.w3.org/2000/svg" xmlns:xlink="http://www.w3.org/1999/xlink" x="0px" y="0px"
	 viewBox="0 0 600 547.5" style="enable-background:new 0 0 600 547.5;" xml:space="preserve">
<style type="text/css">
	.st0{fill:#0097CC;}
	.st1{fill:#00BDFF;}
	.st2{fill:#808080;}
	.st3{opacity:0.5;fill:#808080;}
</style>
<g>
	<g>
		<polygon class="st0" points="591.8,513.4 586.7,512.5 586.6,512.3 591.7,513.3 		"/>
		<polygon class="st0" points="590.3,508.4 585.2,510.2 585.1,510 590.2,508.3 		"/>
		<polygon class="st0" points="581.3,478.8 581.4,478.9 576.2,480.8 581.9,480.5 581.9,480.6 575.7,480.9 567.6,483.9 567.5,483.8 
			575.2,481 565.9,481.5 565.9,481.3 575.7,480.8 		"/>
		<polygon class="st0" points="334.4,493.5 326.5,494 326.6,493.8 334.6,493.4 347.1,485.3 347.2,485.4 334.9,493.4 354.1,492.4 
			354.2,492.5 334.7,493.5 322.5,501.5 322.6,501.2 		"/>
		<polygon class="st0" points="357.1,495.4 357.1,495.4 355.8,515.7 355.6,515.7 356.9,495.3 		"/>
		<polygon class="st0" points="554.3,520.5 540.3,525.2 540.1,525.1 554.3,520.3 		"/>
		<polygon class="st0" points="577.1,383 587,394.7 587.1,395 577.1,383.2 		"/>
		<polygon class="st0" points="340.6,447.5 326.8,461.6 327,461.2 327,461.2 340.6,447.3 		"/>
		<polygon class="st0" points="64.3,151.8 87.9,141.7 88.1,141.8 64.5,151.9 		"/>
		<polygon class="st0" points="51.1,140.3 87.4,141.3 87.6,141.5 51.3,140.4 		"/>
		<polygon class="st0" points="571.8,414.6 571.8,414.4 573.1,415.6 573.1,415.7 		"/>
		<polygon class="st0" points="580.4,363.1 582.3,361.5 582.3,361.6 580.4,363.3 		"/>
		<polygon class="st0" points="580.3,475.2 566.1,468.4 566.2,468.3 580.2,475 		"/>
		<polygon class="st0" points="33.2,118.1 41.2,116.4 41.4,116.5 32.6,118.4 32.6,118.3 		"/>
		<polygon class="st0" points="277.7,118.6 282,116.4 282.2,116.5 277,119.1 		"/>
		<polygon class="st0" points="119.3,256.2 110.7,252.1 109.3,251.3 119.3,256 		"/>
		<polygon class="st0" points="449.9,463.4 449.6,461.2 449.7,461.1 450,463.3 		"/>
		<polygon class="st0" points="307.6,457.6 307.4,457.8 305.4,459.3 306.7,459.6 306.6,459.7 305.2,459.4 282,476.4 289.6,495.7 
			291.6,495.6 291.5,495.8 289.7,495.9 290.6,498.1 290.5,498.3 289.5,495.9 284.3,496.2 284.2,496 289.5,495.7 281.8,476.5 
			281.4,476.8 281.4,476.6 281.8,476.3 281.1,474.5 281,473.9 281.9,476.2 305,459.4 278.1,454.3 278.1,454.2 305.2,459.3 		"/>
		<path class="st0" d="M49.2,168.1l-0.1,0.2l7.2-2.6l53.6-2.7l12.5,30.3l-2.5,3.6l-54.5,27l0,0.2l54.3-26.9l-24.7,35.9l-30.5-7.4
			l-0.2,0.1l30.6,7.4l-5.9,8.6L60.2,228L60,228L89,241.8l-4.4,6.3l0.2,0l4.3-6.3l13.1,6.2l0.4,0l-13.5-6.4l5.9-8.6l40,9.7l-29.5,6.5
			l0.2,0.1l29.6-6.5l8.2,2l1.5,3.6l-9.9,15.1L134,263l-0.1,0.1l1.3,0.6l-10.4,15.9l-0.4,0.2l-0.1,0.2l0.3-0.1l-0.5,0.8l-0.2,0.6
			l1-1.5l21.9-10.5l8.6,4.1l21.1,51.4l-14,6.2l-45.9-29.5l-0.1,0.1l45.8,29.4l-19.9,8.8l0.3,0l19.8-8.7l11.1,7.1l-3.3,4.3l0.2,0
			l3.2-4.2l8.1,5.2l0.3,0l-8.4-5.4l5.4-7l5.1,12.4l0.2,0l-5.2-12.6l8.6-11.1l27.2-12l1.7,4.4l0.6,9.7l-24,20.2l-4.2,1.5l0.4,0
			l3.4-1.3l-1.6,1.3l0.2,0l1.8-1.5l24.6-9.1l1.4,21.7l0.2,0.3l-1.4-22l5.9-2.2l15.1,38.1l-0.8,1.1l0.2,0l0.6-0.9l0.3,0.8l0.2,0
			l-0.4-0.9l30.1-41.5l27.1,12.9l-21,40.2l0,0.4l21.1-40.5l24.8,11.8l-0.4,8.2L275,391.6l0,0.2l46.2-31.1l-1.4,28.2l-36,19.9
			l-9.5-6.1l0,0.2l9.4,6l-10.1,5.6l0,0.2l10.3-5.7l34,21.9l-0.6,11.7l0.2-0.2l0.6-11.4l5.7,3.7l0.1-0.1l-5.8-3.7l2-41.8l36.4-20.1
			l8.1,3.9l-2.8,45.4l-10,7.3l0,0.2l10-7.3l-0.5,7.9l-7.4,7.6l0,0.2l7.4-7.5l-1.8,29.5l0.1,0.5l1.9-30.2l26.3-26.9l11.1-8.1
			l14.6,50.9l-38.7,25.1l-15-9.6l0.1,0.2l14.8,9.5l-6,3.9l-5.7-1.1l0,0.2l5.5,1l-3.6,2.3l4-2.4l0,0l5.9-3.8l0.2,0.1l0.1-0.1
			l-0.2-0.1l38.6-25.1l1.4,5l0.2,0.2l-1.5-5.2l31.3-20.4l3.6,30.1l0.1-0.2l-3.6-30l9.6-6.3l41.8,19.8l-28.2,24.3L468,460l28.5-24.6
			l32.8,15.6l16.6,31.3l-92.7,4.8l-0.5-0.1l-0.5-3.9l-0.2,0l0.5,3.9l-13.2-2.5l4.2-3.6l-0.2,0l-4.2,3.6l-14.3-2.7l-2.9-10.1
			l-0.1,0.1l2.9,10.1l-19.5-3.7l-0.3,0.1l19.8,3.7l1.9,6.6l-17.4,0.9l-12.5-8.1l-0.2,0.1l12.4,8l-3.1,0.2h2.9l0.3,0l0,0h0.3l-0.1,0
			l17.3-0.9l1.5,5.2l-5.1,4.4l-6.5-4.2l-0.1,0.1l6.5,4.2l-25.5,21.9l-0.4,0.5l26-22.4l7.9,5.1l2.3,8l0.1-0.1l-2.2-7.8l25.2,16.2
			l0.4,3.8l-6.2,2.3l0.1,0.1l6.1-2.2l1.1,8.9l0.2,0.2l-1.1-9.1l3.5-1.3l20.4,13.1l0.2,0l-20.4-13.1l14.8-5.3l-0.2-0.1l-14.7,5.3
			l-4-2.5l-1-8.4l-0.2,0l1,8.3l-25.3-16.2l-2.7-9.5l6.7-5.7l17.5-0.9l2,16.6l0.2,0l-2-16.6l0.5,0l68.6,12.9l-23.5,8.5l0.3,0
			l23.5-8.5l31.5,5.9l0-0.2l-31.3-5.9l27.7-10l3.2,6l0-0.3l-3-5.7l2.8-1l0-0.2l-2.8,1l-4-7.5l6.5-0.3l0-0.2l-6.6,0.3l-16.5-31.2
			l24.1,11.4l0-0.2l-24.2-11.5l-15.9-30.1l32.8-28.2l11.5,10l0-0.2l-11.4-9.9l20.8-17.9l0-0.2l-21,18.1l-24-20.9l28.9-18.8
			l16.3,19.2l0-0.2l-16.2-19.1l9.5-6.2l7.9,1.9l0-0.2l-7.7-1.9l8.1-5.3l0-0.2l-8.3,5.4l-18.8-4.6l-28.3-33.5l55.5,32.3l0-0.2
			l-55.8-32.5l-0.1-0.1l43.7-31.9l2.5,1.3l-0.1-0.2l-2.3-1.2l1.4-1l-0.1-0.1l-1.5,1.1l-16.7-8.6l12.5-6.9l-0.1-0.1l-12.6,7
			l-15.3-7.9l8.6-8.8l-0.1-0.1l-8.6,8.8l-29.7-15.4l10.1-6.8l-0.2-0.1l-10.1,6.8l-14-7.2l12.3-4.5l-0.2-0.1l-12.2,4.5l-47.7-24.7
			l13.8-6.1l-0.1-0.1l-13.9,6.1l-2-1l-12.7-15l-1.7-14.4l23.1-5.1l0-0.2l-23.1,5.1l-2.9-24.3l3.5-3l33.9,4.8l0.1-0.1l-33.9-4.8
			l7.9-6.7l31.6-1.6l0-0.2l-31.4,1.6l14.2-12l18.2,6.5l0-0.1l-18.1-6.4l8.5-7.1l10.1,11.9l0-0.2l-10-11.8l15.8-13.4v-0.2l-15.9,13.4
			l-18.1-21.3l26-35.9l3.6-0.6l0-0.2l-3.4,0.6l4-5.5l0-0.3l-4.2,5.8L436.5,73l15.3-29.4l-0.1-0.2L436.3,73l-29.9,4.9l-2.5-2.9
			l-2.1-17.7L441,37.8l-0.1-0.1l-39.1,19.4l-1.9-15.9l37.7-7.9l-0.1-0.1L399.9,41l0,0l34.3-12.5l-0.1-0.1l-34.2,12.4l-3.7-31.2
			l1.5-0.7l-0.3-0.1l-1.3,0.6L396,8.6l-0.2,0l0.1,1l-8.9,3.8l0.4-6.6l-0.1,0l-0.4,6.7l-25.8,11.1l-11.9-14l-0.2,0l11.9,14
			l-23.7,10.2l1-20.8L338,14l-1,20.8l-22.4,9.6l-3.6-6.8l-0.1,0.2l3.5,6.6l-6.6,2.8l-0.1,0.2l6.7-2.9l6.8,12.9l-17,3.6l-0.5-0.6
			l-2.9-10.1l0.8-0.4l-1.3,0.4l-3.5,1.5l-0.3,0.3l7,8.3l0.2,0.6l-13.9,2.9l0,0.2l13.9-2.9l3.7,12.9L289.1,81l-12-4.2l-0.1,0.1
			l11.8,4.2l-18.3,6.6l-0.1,0.2l18.6-6.8l23,8.2l1.1,3.7l-21.4,3.5l0,0.1l21.4-3.5l1.9,6.8l-18.8,9.3l0.1,0.1l18.7-9.3l11.7,40.6
			l-12.3-1.7l0,0.2l12.3,1.7l3,10.6l-11.6,0.6l-2.9-1.5l0,0.2l2.5,1.3l-2.4,0.1l0,0.2l2.7-0.1l12.7,6.6l-1.1,23.5l0.2,0l1.1-23.4
			l1.1,0.6l6.8,23.6l0.2,0l-6.8-23.6l42.6,22.1l-7.2,9.9l-16.4,3.6l0.1,0.1l16.1-3.6l-6.2,8.6l-5.9,4.9l0,0.2l5.4-4.6l-4.9,6.7
			l0.1,0.2l5.3-7.3l11.7-9.9l1.8-0.4l-14.8,28.4l-1.2-0.7l0.1,0.2l1.1,0.6l-0.7,1.3l-0.1,0.5l0.9-1.7l13.2,7.7l-0.7,11.4l-2.9,1.3
			l-11.9-10.3l0,0.2l11.8,10.2L357,245l-2.9-10.2l-0.1,0l2.9,10.3l-13.2,5.8l8.1-15.5l-0.2,0l-8.1,15.6l-17.1,7.6l0.5-10l7-9.6
			l-0.2,0l-6.8,9.3l0.4-9l-0.2,0l-0.4,9.2L316.1,263l-34.6,15.3l-9.4-2.3l42.9-36.2l-0.2,0L271.9,276l-42.4-10.3l24.8-32.2l-0.1-0.1
			l-24.8,32.3l-15.7-3.8l-1.5-23.8l30.4-14.5l-0.1-0.1l-30.3,14.5l-0.8-11.6l27.3-6l-0.1-0.1l-27.2,6L207,158l1.9-0.1l26.7,22.6
			l0.1-0.1l-26.6-22.5l43.1-2.2l6.5,3.8l0,0l0.1-0.1l-6.3-3.7l13.7-0.7l0.3-0.2l-14.2,0.7l-22.3-13l18.2-9l15.8,13.7l3,7.3l0.1-0.1
			l-2.8-7l5.9,5.2l0.1-0.1l-6.2-5.4l-6.5-15.9l24.8,3.5l0.1-0.1l-25-3.5l-0.8-1.9l8.6-4.3l17.5,9l0-0.1l-17.3-9l4.3-2.1l0.1-0.2
			l-4.5,2.2l-13.2-6.8l-5.6-13.8l34.1-5.6l0.1-0.2l-34.2,5.6l-2.4-5.9l0.5-0.7l19.3-7l0-0.2l-19.2,7l11.8-17.9l-0.2,0l-11.8,18
			l-0.6,0.2l-3-7.4h-0.2l3,7.5l-18.2,6.6l-2.8-1.4l-0.2,0.1l2.8,1.4l-7.6,2.8l-2.4-2.1l-0.1,0.1l2.3,2l-4.6,1.7l-0.1,0.2l4.8-1.8
			l1.5,1.3l-6.8,1.1l-0.1,0.2l7-1.1l11.3,9.8l-5.3,8.1l-20.6-2.9l-0.1-1.2l-0.1,0.2l0.1,0.9l-0.6-0.1l-0.1,0.1l0.7,0.1l0.3,4.1
			l-2.2-1.3l0,0.2l2.2,1.3l1.7,25.8l-1.4,0.7l-6.2-5.3l0,0.2l6.1,5.2l-7.4,3.7l-2.8,0.1l-0.1,0.2l2.6-0.1l-3.7,1.8l-0.2,0.2l4.2-2.1
			l6.9-0.4l-30.3,46.2l-5.8-14.6l-0.2-0.1l5.9,14.9l-22.9,34.9l-8.9,2l-18.9-46l29.7-14.7l-0.1-0.1l-29.6,14.7l-0.8-1.9l16.1-23.4
			l-0.1-0.1l-16,23.3l-12.4-30.1l11-0.6l-0.4-0.1l-10.6,0.5l-3.3-7.9l-0.2-0.2l3.3,8.1l-53,2.7l42.9-15.6l-0.2-0.1l-43.3,15.7
			l-5.7,0.3l-0.1,0.2l5.3-0.3L49.2,168.1z M303.7,60.2l-6.8-8.1l4-1.7L303.7,60.2z M456.7,520.1l3.8,2.4l-3.3,1.2L456.7,520.1z
			 M428.4,494.1l2.7,9.3l-7.7-5L428.4,494.1z M427,488.7l7.9-0.4l-6.4,5.6L427,488.7z M439.1,484.7l-4,3.5l-8.2,0.4l-1.9-6.5
			L439.1,484.7z M452.7,487.2l-17.3,0.9l4-3.4L452.7,487.2z M546.1,482.5l4,7.6l-27.9,10.1l-68.3-12.9L546.1,482.5z M319.9,389.1
			l-2,41.6L284,408.9L319.9,389.1z M151.3,239.4l33.7-7.4l6.3,15.8l-11.9,5.7l-32.2-7.8L151.3,239.4z M179.2,253.6l-26.6,12.7
			l-7.3-17.7l1.8-2.8L179.2,253.6z M191.4,247.9l3.7,9.3l-15.4-3.7L191.4,247.9z M185,231.9l-33.6,7.4l22.8-34.7L185,231.9z
			 M206.2,155.6l-1.5,2.3l-6.7,0.3l7.1-3.5L206.2,155.6z M206.8,157.8l-1.9,0.1l1.4-2.2l0.4,0.3L206.8,157.8z M206.7,154l0.9-0.4
			l-0.8,1.2L206.7,154z M206.4,155.6l0.2-0.4l0,0.6L206.4,155.6z M206.5,154l0.1,0.9l-0.3,0.5l-1-0.8L206.5,154z M205,128.1
			l13.9,8.1l-11.2,17.1l-1,0.5L205,128.1z M219,136.3l10.5,6.1L208,153.2L219,136.3z M225.2,126.6l-6.2,9.5l-14-8.2l-0.3-4.2
			L225.2,126.6z M230.8,118.4l12.1,10.5l-17.4-2.4L230.8,118.4z M219.6,108.5l10.8-1.8l5.9,3l-5.5,8.4L219.6,108.5z M230.6,106.7
			l8.6-1.4l-2.9,4.4L230.6,106.7z M230.2,106.6l-10.7,1.8l-1.6-1.4l7.7-2.8L230.2,106.6z M244,98l-4.7,7.1l-8.9,1.5l-4.7-2.4
			l18.1-6.6L244,98z M244.1,97.9l-0.1-0.3l0.4-0.2L244.1,97.9z M246.4,104l-6.9,1.1l4.5-6.9L246.4,104z M252,117.8l-15.5-8l2.9-4.5
			l7-1.1L252,117.8z M256.6,129.1l-2.8,1.4l-10.6-1.5l-12.3-10.7l5.5-8.4l15.7,8.1L256.6,129.1z M256.7,129l-4.4-10.9l12.9,6.7
			L256.7,129z M257.3,131l-3.3-0.5l2.6-1.3L257.3,131z M248.2,133.4l5.5-2.7l3.6,0.5l6.4,15.7L248.2,133.4z M243.4,129.2l10.1,1.4
			l-5.4,2.7L243.4,129.2z M229.7,142.4l-10.6-6.2l6.3-9.5l17.7,2.5l4.8,4.2L229.7,142.4z M206.8,156l-0.1-0.9l1.1-1.6l21.9-10.9
			l22.2,13l-43,2.2L206.8,156z M206.9,157.8l-0.1-1.7l1.9,1.6L206.9,157.8z M211.2,226.1l-26.1,5.7l-10.8-27.4l30.4-46.4l2-0.1
			L211.2,226.1z M212,237.9l-20.5,9.8l-6.2-15.8l26-5.7L212,237.9z M213.5,261.7l-18.3-4.5l-3.7-9.4l20.5-9.8L213.5,261.7z
			 M215,284.3l-6,7.8l-13.7-34.6l18.2,4.4L215,284.3z M212,300.1l-6.5-3.1l3.5-4.6L212,300.1z M209.1,292.3l5.9-7.7l1.1,17.5
			l-3.9-1.9L209.1,292.3z M229.3,265.7l-14.1,18.4l-1.4-22.2L229.3,265.7z M271.8,276.1l-16.3,13.7l-33.7,14.9l-5.5-2.6l-1.2-17.8
			l14.3-18.6L271.8,276.1z M221.6,304.8l-5,2.2l-0.3-4.7L221.6,304.8z M255.1,290.1l-23,19.4l-10.1-4.8L255.1,290.1z M281.3,278.4
			L256,289.6l16-13.5L281.3,278.4z M281.6,278.5l19.9,4.8l-18.8,26l-28.8,10.6l-21.6-10.3l23.4-19.7L281.6,278.5z M415.4,126
			l-4.6,6.4l-1-8.2l0.1-0.2L415.4,126z M409.9,123.9l13.5-25.8l6.6,7.7l-14.5,20L409.9,123.9z M378.7,183.5l-2.2,4.2l-0.2,0.2
			l0.3-5.5L378.7,183.5z M376.4,182.2l-1.1-0.6l1.3-1.8L376.4,182.2z M397.3,148.2l2.1-0.1l-1.9,2.6l-1.4-0.2L397.3,148.2z
			 M395.9,150.5l-11.4-1.6l12.6-0.6L395.9,150.5z M397.4,150.8l-5.4,7.4l4-7.6L397.4,150.8z M391.4,159.1l-1.8,2.5L379,149.1
			l4.6-0.2l12.2,1.7L391.4,159.1z M334.9,82.9l3.1,5.8l-1,0.5l-2.4,0.4L334.9,82.9z M334.7,82.3l-7.9-14.9l8.7-3.2L334.7,82.3z
			 M336.5,89.5l-2,1l0-0.7L336.5,89.5z M338,88.9l0.1,0.2l-0.7,0.1L338,88.9z M338.2,89.2l6,11.4l-9-3.2l-1-1.2l0.3-5.6l2.5-1.2
			L338.2,89.2z M334.1,96l-3.1-3.7l3.4-1.7L334.1,96z M334.2,96.4l0.7,0.9l-0.8-0.3L334.2,96.4z M330.8,92.2l-1.4-1.6l4.9-0.8l0,0.7
			L330.8,92.2z M344.3,100.8l10.3,19.5l-19.2-22.7L344.3,100.8z M338.3,89.2l44.3-7.2l-2,31.6l-36.3-12.9L338.3,89.2z M380.7,113.7
			l-2.1,34.3L378,148l-22.9-27.1l-10.6-20L380.7,113.7z M377.8,147.9l-9.1-1.3l-13.3-25.2L377.8,147.9z M378.9,183.5l4.5-8.7
			l2.6,4.9l-5.5,4.6L378.9,183.5z M380.4,184.4l-3.6,3.1l2-3.9L380.4,184.4z M383.4,174.4l-1.2-2.3l7.4-10.3l0.2,0.3L383.4,174.4z
			 M382.1,171.9l-4.4-8.3l0.9-14.5l0.2,0l10.6,12.6L382.1,171.9z M378.6,149l0-0.1l0.1,0.1L378.6,149z M378.5,148.5l-0.3-0.4l0.3,0
			L378.5,148.5z M378.7,148.2l4.2,0.6l-4,0.2l-0.3-0.3L378.7,148.2z M390.9,160l-1,2l-0.2-0.3L390.9,160z M389.9,162.2l7,8.2
			l-10.8,9.1l-2.6-5L389.9,162.2z M389.8,186.8l-3.2,0.7l-5.9-3.1l5.4-4.6L389.8,186.8z M386.4,187.5l-10.3,2.3l0.1-1.2l0.4-0.8
			l4-3.4L386.4,187.5z M376.2,188.2L376.2,188.2l0.1-0.1L376.2,188.2z M376.6,182.3l0.2-2.6l5.4-7.4l1.2,2.4l-4.6,8.8L376.6,182.3z
			 M376.7,179.3l1-15.4l4.3,8.1L376.7,179.3z M377.6,163.4l-7.3-13.8l8.2-0.4L377.6,163.4z M370.2,149.4l-1.4-2.6l9.2,1.3l0.5,0.6
			l0,0.3L370.2,149.4z M370,149.5l-38.5,2l0.5-9.8l36.6,5.1L370,149.5z M332,141.5l2.1-44.3l1,0.3L355,121l13.6,25.7L332,141.5z
			 M334,97l-7.2-2.6l4-2l3.2,3.8L334,97z M326.6,94.4l-6.3-2.2l9-1.5l1.4,1.7L326.6,94.4z M313.9,72.2l12.9-4.7l8,15.1l-0.3,7
			l-5,0.8L313.9,72.2z M321.7,57.6l14.4-3l-0.5,9.6l-8.8,3.2L321.7,57.6z M336.2,54.5l42.6-8.9l1.9,2.2l-44.9,16.3L336.2,54.5z
			 M379,45.6l6-1.3l-0.1,2l-4.1,1.5L379,45.6z M384.9,46.4l-0.4,5.7l-3.6-4.2L384.9,46.4z M384.6,52.5l7.8,9.2l-8.7,4.3L384.6,52.5z
			 M383.6,66.1l-45.6,22.6l-3.2-6.1l0.9-18.4l45-16.3l3.7,4.4L383.6,66.1z M383.6,66.2l-1,15.5L338.3,89l-0.1-0.2L383.6,66.2z
			 M382.8,81.9l21.4-3.5l5.4,45.4l-28.7-10.2L382.8,81.9z M409.6,124l0,0.3l-12.4,23.8l-13.5,0.7l-5-0.7l2.1-34.3L409.6,124z
			 M409.6,124.5l1,8.1l-11.1,15.4l-2.1,0.1L409.6,124.5z M412.3,147.3l-12.7,0.7l11-15.1L412.3,147.3z M412.4,147.4l0.6,5.4
			l-15.4-2.2l1.9-2.6L412.4,147.4z M413,153l0.4,3.5L397,170.4l-7-8.3l1.5-2.9l6-8.3L413,153z M407.4,182.9l-17.5,3.9l-3.7-7
			l10.8-9.1L407.4,182.9z M391.5,190l-4.6-2.4l3-0.7L391.5,190z M391.6,190.2l16.9,32l-23.8,10.5l-10.9-6.3l2.3-36.5l10.5-2.3
			L391.6,190.2z M375.9,189.8l-0.5,0.1l0.5-1L375.9,189.8z M400.6,265.9l26.7,23.2l-26.9,18.1l-27.5-6.7l-3.1-10.7l0.8-12.9
			L400.6,265.9z M370.7,276.8l2.2-35l27.6,24L370.7,276.8z M489.5,295l-32.8,18.1l-17.1-32.3l12.7-8.5l37.8,22L489.5,295z
			 M490.3,294.5l0.1,0.1l-0.4,0.2L490.3,294.5z M427.3,257.8l12.2,23.1l-10.3,7l-3.7-31.1l0,0L427.3,257.8z M425.7,256.7l0.8-0.3
			l0.6,1.2L425.7,256.7z M456.7,313.4l1,1.9l-1.8-1.5L456.7,313.4z M455.8,313.7l-26.3-22.8l-0.3-2.9l10.4-7l17,32.3L455.8,313.7z
			 M457.9,315.7l3.3,6.3l-14-3.4l8.6-4.7L457.9,315.7z M447,318.5l-14.6-3.6l-2.8-23.9l26.1,22.7L447,318.5z M432.2,314.9l-31.7-7.7
			l26.8-18.1l2,1.7L432.2,314.9z M427.5,289.1l1.5-1l0.3,2.6L427.5,289.1z M427.5,257.9l24.7,14.4l-12.6,8.5L427.5,257.9z
			 M489.1,295.4l-25,25.5l-6.1-5.3l-1.2-2.3L489.1,295.4z M464.2,321.1l2.5,2.2l-3.8-0.9L464.2,321.1z M462.8,322.4l-1.3-0.3
			l-3.2-6.1l5.8,5.1L462.8,322.4z M462.7,322.5l-0.6,0.6l-0.5-0.9L462.7,322.5z M461.9,323.3l-25.5,26l-2.8-23.2l13.3-7.4l14.3,3.5
			L461.9,323.3z M433.7,325.9l-1.3-10.8l14.4,3.5L433.7,325.9z M433.5,326l-46,25.4l-8.5-29.7l21.4-14.4l31.8,7.7L433.5,326z
			 M379,321.6l-6-20.9l27.2,6.6L379,321.6z M378.9,321.7l-11.5,7.7l1.8-29.6l3.6,0.9L378.9,321.7z M369.2,299.6l0.6-9.3l2.9,10.2
			L369.2,299.6z M369.1,299.6l-36-8.8l33.3-12.3l3.3,11.3L369.1,299.6z M366.6,278.5l3.9-1.4l-0.8,12.4L366.6,278.5z M400.8,265.9
			l24.6-9.1l3.7,31.1l-1.6,1.1L400.8,265.9z M425.1,253.7l1.4,2.6l-0.9,0.3l-0.1,0L425.1,253.7z M425.3,256.4l-40.5-23.6l23.7-10.5
			l16.4,30.9L425.3,256.4z M391.8,190.3l27.3,14.1l1.5,12.4l-12,5.3L391.8,190.3z M420.6,217l4.3,35.9l-16.2-30.6L420.6,217z
			 M420.8,217l11.3-5l27.2,32.2l-32.7,12.1l-1.6-2.9L420.8,217z M459.4,244.2l12.5,14.8l-19.6,13.2l-24.9-14.5l-0.7-1.4L459.4,244.2
			z M472,259.1l24.4,28.8l-6.2,6.3l-37.8-22L472,259.1z M496.5,288.1l1.8,2.1l-7.8,4.3l-0.2-0.1L496.5,288.1z M498.4,290.3
			l14.7,17.3l-22.4-13.1L498.4,290.3z M513.1,307.8l-27.6,20.1l-18.5-4.5l-2.7-2.4l25.3-25.9l0.9-0.5L513.1,307.8z M485.3,328
			l-7.1,5.2l-11-9.5L485.3,328z M522.1,371.4l-25.7,16.7l-26-49.1l7.8-5.7L522.1,371.4z M470.4,338.9l-8.3-15.6l0.7-0.7l4.1,1
			l11.2,9.7L470.4,338.9z M470.2,339L438,362.5l-1.5-13l25.5-26.1L470.2,339z M443.5,410l-42.7-20.3l37.1-27L443.5,410z
			 M400.7,389.7l-2.4-1.2l38.1-38.9l1.5,13L400.7,389.7z M398.2,388.4l-10.6-36.8l46-25.4l2.8,23.3L398.2,388.4z M398,388.4
			l-33.3-15.8l0.5-8.6l22.2-12.3L398,388.4z M365.3,363.8l2.1-34.2l11.5-7.8l8.5,29.7L365.3,363.8z M367.2,329.5l-38.6,26l-6.9-3.3
			l2.8-58.2l8.2-3l36.2,8.8L367.2,329.5z M324.9,289l7.7,1.9l-8,2.9L324.9,289z M324.7,288.8l-0.8-0.2l0.9-1.6L324.7,288.8z
			 M324.5,293.9l-4,1.5l3.5-6.6l0.8,0.2L324.5,293.9z M320.2,295.4l-37.3,13.8l18.7-25.9l22.1,5.4L320.2,295.4z M316,263.3
			l-14.4,19.9l-19.7-4.8L316,263.3z M316.2,263.1l9.9-4.4l-1.4,27.9l-1,2l-22.1-5.4L316.2,263.1z M326.2,258.6l-9.8,4.3l10.3-14.2
			L326.2,258.6z M343.3,251.2L325,286.3l1.3-27.6L343.3,251.2z M366.4,278.4l-33.6,12.4l-8-1.9l0.1-2.2l18.6-35.6l13.3-5.9
			L366.4,278.4z M372.7,241.7l-2.2,35.2l-4,1.5l-9.5-33.2l13-5.8L372.7,241.7z M372.9,238.1l-0.2,3.4l-2.5-2.2L372.9,238.1z
			 M373.1,238l11.6-5.1l40.7,23.7l0,0l-24.7,9.1l-27.8-24.1L373.1,238z M373.8,226.6l10.7,6.2l-11.4,5L373.8,226.6z M375.4,190.1
			l0.5-0.1l-2.3,36.4l-13.2-7.7L375.4,190.1z M373.6,190.3l2.4-2l0,0.3l-0.7,1.4L373.6,190.3z M368,191.7l5.1-1.1l-11.1,9.3
			L368,191.7z M375.2,181.7l1.2,0.6l-0.4,5.7l-2.7,2.3l-5.2,1.2L375.2,181.7z M331.3,155.7l0.2-4.1l38.6-2l7.4,14.1l-1,15.9l-1.4,2
			l-42.8-22.1L331.3,155.7z M331.2,155.3l-1-3.6l1.2-0.1L331.2,155.3z M331.2,158.8l0.1-2.6l0.9,3.1L331.2,158.8z M330,151.7
			l1.2,4.1l-0.1,3l-12.5-6.4L330,151.7z M327.1,141l4.8,0.7l-0.5,9.8l-1.3,0.1L327.1,141z M315.3,100.1l11.3-5.6l7.4,2.6l-2.2,44.3
			l-4.8-0.7L315.3,100.1z M313.4,93.2l6.6-1.1l6.5,2.3l-11.1,5.5L313.4,93.2z M312.3,89.4l7.4,2.6l-6.3,1L312.3,89.4z M307.9,74.4
			l5.8-2.1l15.5,18.2L320,92l-7.8-2.8L307.9,74.4z M307.8,74.4l4.2,14.8l-22.7-8.1L307.8,74.4z M304.3,61.1l-0.1,0l-0.1-0.3
			L304.3,61.1z M313.6,72.1l-5.7,2.1l-3.7-12.9l0.2,0L313.6,72.1z M321.5,57.6l5.2,9.8l-12.9,4.7l-9.2-10.9L321.5,57.6z M337,34.9
			l-0.9,19.5l-14.5,3l-6.8-13L337,34.9z M378.7,45.5l-42.4,8.9l0.9-19.5L361,24.7L378.7,45.5z M386.9,13.5L385,44.1l-6.1,1.3
			l-17.7-20.8L386.9,13.5z M385.1,44.3l12.4-2.6L385,46.2L385.1,44.3z M399.7,40.9l-1.1,0.4l-13.4,2.8l1.9-30.6l9-3.8L399.7,40.9z
			 M399.7,41l-0.1,0L399.7,41L399.7,41z M401.6,57.1l-9.1,4.5l-8-9.4l0.4-5.9l13.6-4.9l1.1-0.2L401.6,57.1z M403.7,74.8l-11-13
			l9-4.4L403.7,74.8z M404.2,78.3l-21.3,3.5l1-15.6l8.8-4.4L403.8,75L404.2,78.3z M406.2,77.9l-1.9,0.3l-0.4-3L406.2,77.9z
			 M423.3,98l-13.5,25.9l-0.1,0l-5.4-45.5l2-0.3L423.3,98z M436.3,73.2l-12.9,24.7L406.5,78L436.3,73.2z M430,105.7l-6.6-7.7
			l13-24.9L456,70L430,105.7z M439.6,134.5l-24-8.5l14.5-20l18.1,21.3L439.6,134.5z M425.2,146.6l-12.7,0.6l-1.7-14.6l4.7-6.5
			l23.9,8.5L425.2,146.6z M417.1,153.5l-3.9-0.5l-0.7-5.5l12.5-0.6L417.1,153.5z M413.6,156.4l-0.4-3.3l3.7,0.5L413.6,156.4z
			 M416.3,180.9l-8.8,1.9l-10.5-12.3l16.3-13.8L416.3,180.9z M418,195.2L407.7,183l8.7-1.9L418,195.2z M419.1,204.3l-27.4-14.2
			l-1.7-3.2l17.5-3.9l10.5,12.4L419.1,204.3z M430.6,210.2l-11.3-5.9l-1-8.7L430.6,210.2z M431.9,211.8l-11.2,5l-1.5-12.2l11.5,6
			L431.9,211.8z M432.7,211.5l-0.6,0.3l-0.9-1.1L432.7,211.5z M480.6,236.3l-21.1,7.8l-27.2-32.2l0.7-0.3L480.6,236.3z M494.8,243.6
			L472,258.9l-12.5-14.7l21.2-7.8L494.8,243.6z M524.7,259.1l-28.1,28.8l-24.4-28.8l22.8-15.4L524.7,259.1z M540.1,267.1l-41.6,23
			l-1.8-2.1l28.2-28.8L540.1,267.1z M513.3,307.6l-14.8-17.4l41.7-23.1l16.7,8.7L513.3,307.6z M541.9,341.6l-56.2-13.7l27.5-20.1
			l0.2,0.1L541.9,341.6z M542.3,341.9l18.4,4.5l-9.4,6.1L542.3,341.9z M522.2,371.4l-43.9-38.1l7.1-5.2l56.5,13.7l9.1,10.8
			L522.2,371.4z M513.5,420.6l-17.1-32.3l25.8-16.8l24.1,20.9L513.5,420.6z M496.7,435.3l16.8-14.4l15.8,29.9L496.7,435.3z
			 M454.8,415.4l41.5-27l17.1,32.3l-16.9,14.5L454.8,415.4z M454.7,415.3l-11-5.2l-5.6-47.5l32.3-23.5l26,49.1L454.7,415.3z
			 M443.7,410.3l10.8,5.1l-9.5,6.2L443.7,410.3z M399,391.1l1.8-1.3l42.8,20.3l1.4,11.5L413.6,442L399,391.1z M398.3,388.7l2.3,1.1
			l-1.6,1.2L398.3,388.7z M388.3,398.7l9.8-10l0.7,2.4L388.3,398.7z M361.9,418.2l25.1-18.3L361.4,426L361.9,418.2z M364.7,372.8
			l33.3,15.8l-10.4,10.6L361.9,418L364.7,372.8z M356.6,368.7l8.5-4.7l-0.5,8.5L356.6,368.7z M356.4,368.7l-27.6-13.1l38.4-25.9
			l-2.1,34.2L356.4,368.7z M321.4,360.6l7.3-4.9l27.6,13.1l-36.2,20L321.4,360.6z M321.8,352.4l6.8,3.2l-7.1,4.8L321.8,352.4z
			 M296.9,340.4l23.4-44.8l4.1-1.5l-2.8,58.1L296.9,340.4z M269.7,327.4l13.1-18l37.4-13.8l-23.3,44.7L269.7,327.4z M269.5,327.4
			L254,320l28.4-10.5L269.5,327.4z M224.4,330.9l29.4-10.9l15.6,7.4l-30,41.4L224.4,330.9z M220,320l12.1-10.2l21.5,10.2l-29.3,10.8
			L220,320z M217.6,322l2.3-2l4.3,10.8l-5.9,2.2L217.6,322z M217.5,322.1l0.7,10.9l-24.3,9L217.5,322.1z M217,312.7l2.9,7.2
			l-2.3,1.9L217,312.7z M216.6,307.2l5.2-2.3l10.2,4.8l-12,10.1l-3-7.6L216.6,307.2z M215.2,307.8l1.3-0.6l0.3,4.5L215.2,307.8z
			 M212.3,300.4l3.9,1.8l0.3,4.9l-1.3,0.6L212.3,300.4z M188,319.6l17.3-22.5l6.7,3.2l2.9,7.4L188,319.6z M176.7,324.8l10.8-4.8
			l-8.3,10.8L176.7,324.8z M176.6,324.8l2.5,6.1l-5.4,7.1l-11-7.1L176.6,324.8z M155.6,273.4l49.6,23.6l-17.5,22.7l-11.1,4.9
			L155.6,273.4z M152.7,266.4l26.8-12.8l15.7,3.8l13.8,34.8l-3.6,4.7l-49.8-23.7L152.7,266.4z M147,269.2l5.6-2.7l2.7,6.7L147,269.2
			z M135.3,263.8l11.3,5.4L125,279.5L135.3,263.8z M145.3,248.7l7.3,17.7l-5.7,2.7l-11.4-5.4L145.3,248.7z M143.9,245l3.1,0.8
			l-1.7,2.6L143.9,245z M142.4,241.4l8.7-1.9l-4,6.1l-3.3-0.8L142.4,241.4z M135.8,242.8l6.4-1.4l1.4,3.3L135.8,242.8z M120,196.9
			l3.3-1.6l18.9,46l-6.7,1.5L95.2,233L120,196.9z M122.5,193.4l0.7,1.8l-3,1.5L122.5,193.4z"/>
		<polygon class="st0" points="296.8,514.4 297,514.3 298.1,517.1 306.8,511.5 306.8,511.5 307.3,511.3 298.1,517.3 303.9,531.9 
			303.7,531.8 298,517.4 285.5,525.5 285.3,525.5 298,517.2 		"/>
		<polygon class="st0" points="315.2,484.2 315.4,483.9 315,492.5 314.8,492.6 315.2,484.2 		"/>
		<polygon class="st0" points="285.4,503.7 290.3,498.7 290.2,499.1 285.4,503.9 		"/>
		<polygon class="st0" points="344.1,466.8 325.9,463.3 326,463.2 344.1,466.6 		"/>
		<polygon class="st0" points="340.2,445 340.2,445.2 336.4,442.8 336.5,442.6 		"/>
		<polygon class="st0" points="314.2,509.3 312.9,535 312.8,534.9 314,509.4 		"/>
	</g>
	<g>
		<path class="st1" d="M32.5,118.3l1.7,10.6l0.1,0.1l18.5,12.5l16.7,15L54,160.3l-0.1,0.1l-19.2,30.8l0,0.1l3.2,24.1h0l0.2,1.1
			l0.1,0.1l7.8,1l0.1-0.1l7.5-9.5l0-0.1l-0.4-14l12.1-14.4l17.7,2.5l-21.3,11.1l-0.1,0.2l0,0l0,0l0,0l3.6,31.6l-7.9,4.4l-0.1,0.1
			l-2.8,11.4l0.1,0.2l14,7.4l0.1,0l11.1-0.5l8.3,0.7l0.2-0.1l0.4-1.4l14.5,1.3l3.8,1.8l11.8,6.9l0.2-0.1l0.9-2.4l15.9,4.9L125.6,276
			l0,0l-0.1,0.2l-11.6,32.4l-4.6,13.5l0.1,0.2l23.4,16.6l0.1,0l48,4.6l31.9,1l17.2,26.6l0.1,0l0,0.1l46.4-5.5L273,421l0,0l0,0
			l13,87.7l0.3,0l24-57.2l36.5-45.4l17.1,68.1l0.2,0.1l48.1-29.1l14,10.8l0.1,0h19.9l0.1-0.1l4.4-7.1l30.5-16.8l-24.6,52.1
			l-18.5-4.8l14.5-19.2l-0.2-0.2l-76.9,29.5l0.1,0.3h44.3l-32.7,45l0.2,0.2l47.5-23.9l30.5,28.5l0.1,0l48-11.5l0-0.3l-71.2-20.4
			l7.7-3.9l56.7,6.2l48.3,22.1l0.2-0.1l-2.2-53.2l5.7-81.2l8.8-17.9l0-0.1l4-73.2l0-0.1l-18.5-46.9l-0.1-0.1l-52.3-24.9l-39.5-15.1
			l-16-16l-5.2-25.5l0.4-7l14.4-15.8l0-0.1l8.5-32.9l1.1,0.8l0.2-0.1v-22.2l0,0l0,0l-3.1-17.5l-0.1-0.1l-2.6-1.3l2.2-20.4l0,0l0,0
			l0-0.1l-10.2-20.2l-0.1-0.1l-9.4-3l-9.4-13l-0.6-0.9h0l0,0l0,0l-23.9-13.1l0,0l-30.5-6.5l-0.1,0l-35.7,7.8l0,0l-26.8,16l-0.1,0.1
			l-6.5,19.9l-10.1,3.1l-0.1,0.1l-7.1,9.5l0,0.1l-0.4,4.7l-8,3l-0.1,0.1l-16.7,28l-2.6-16.4l-0.1-0.1l-10.9-2l-0.2,0.1L246,89.8
			h-9.3l-0.1,0l-11.1,12l-10,2.4l-0.1,0.1l-12.8,21l0,0.1l-4.5,27.4l-24.8,39.2l-13.9-6.8L133.8,166l0,0v0l-18.9-5.7L87.2,141l0,0v0
			L61.8,128l-22-12.6l-0.1,0l-7.1,2.8L32.5,118.3z M35,191.6L53.3,208l-15.1,7.1L36,199L35,191.6z M56,236.3l1.6-6.7l8.1,0.7
			l-10.7,10L56,236.3z M69.7,234.5l-3.1-4l23.9,8.7L80,247.5L69.7,234.5z M278.8,347.4l1-8.9l19.1,20.8l-12,3.3l-10,2.7L278.8,347.4
			z M444.7,203.5l6,25.5l-24.1-13.4L444.7,203.5z M421.8,178l17.5-0.2l-13,37L421.8,178z M464,100.3l-13.1,1.9L461,83.4L464,100.3z
			 M431.5,25l8.9,12.2l-11.9-3.5l2.5-9.4L431.5,25z M297.5,51.6l12.9,19.8l-19.8-10.6L297.5,51.6z M297.7,51.5l23.8-7.2l-10.7,27.3
			L297.7,51.5z M288.1,83.3l-22.6,13.4l15.5-26l1-1.6L288.1,83.3z M253.8,92.7l-7.5-2.8l0.4-0.8l4.8-10.5l13.1,18.2L253.8,92.7z
			 M86.5,140.9l-33.4,0.3l8.7-12.9L86.5,140.9z M88.5,158.4l25.9,2.2l-12.3,8.5l-18.3,12.6L70,156.8L88.5,158.4z M62.4,193.7
			l19.9,11.4l-0.4,16.8L62.4,193.7z M81.8,222.3L66.2,230l-4.1-36.1L81.8,222.3z M87.4,232.4l-5.2-9.9l5.9,0l2.3,15.8L87.4,232.4z
			 M506.7,509.3l16.5-64.3l29.2,33.5L506.7,509.3z M521,421.3l-2.2-23l29.1,20l-24.6,26.1L521,421.3z M558.2,397.3L548,418l-29.1-20
			l47.9-18.3L558.2,397.3L558.2,397.3z M514.4,387.4l-7.3-18.2l22.1-61.6l-10.8,89.8L514.4,387.4z M417.2,67.4l-6.1-1.3l39-24.9
			l-10.3,31.1L417.2,67.4z M371.7,21.9l5-17.2l31.2,35.6L371.7,21.9z M215.8,104.6l15.7,2.2l-11.4,15.3l-0.8-3.3L215.8,104.6z
			 M159.1,185.4l-24.9,27L118.3,183l34.5,2L159.1,185.4z M154.1,184.8l-35.7-2.1l15.4-16.4l25.2,18.7L154.1,184.8z M121.8,162.7
			l11.4,3.4l-48.7,15.3l27.6-19l2.7-1.9L121.8,162.7z M133.2,166.5L118,182.7l-33.4-0.9L133.2,166.5z M102.7,197.3l-5.3,5.6
			l-11.3,11.9l0,0.1l2.1,7.2l-6,0l0.5-17.1L102.7,197.3z M97.2,203.5l5.9-6.2l2.5,24.8l-19.2-7.2L97.2,203.5z M347.1,405.9
			l49.9-33.2l15,72.2L347.1,405.9z M529.1,306.4l-57.7,33.4l10.2-41l39.1,6.3L529.1,306.4z M413.9,214l-12.2-1.4l10.5-18.1l9.3-16.1
			l4.5,37.1L413.9,214z M438.4,125.7l11.5,10.8l-2.9,4.2l-3.2,4.6L438.4,125.7z M454.6,105.3l3.1,2.1l-21,1.3l7.8-3.4l6.2-2.7
			L454.6,105.3z M294.4,106.9l30.8-5.9L302,115.3l-6.9-7.7L294.4,106.9z M316.2,157.6l24.9,0.6l-12.7,23.7L316.2,157.6z
			 M363.6,250.3l-69.1,12.5l44.3-24L363.6,250.3z M306.2,245.7l-12.6,17.2l-18.1-13.7l34.6-8.9L306.2,245.7z M288.8,123.2l-7.3-6.7
			l8.2,2.4L288.8,123.2z M373.1,200.6l-19.2-2.8l7-17.7L373.1,200.6z M251.3,231.3l-3.2,31.9l-16.5-49l8,6.9L251.3,231.3z
			 M247.9,263.4l-32.2-30.2l15.6-19.1L247.9,263.4z M215,208.9l16.1,4.9l-15.6,19.1l-20-30l9.9,3L215,208.9L215,208.9z M262.9,135.2
			l12.6,8.6l-0.7,5.6L262.9,135.2z M268.1,124.3l-14.5-16.2l7.4,1.5L268.1,124.3z M282.6,134.2l-6.9,9.2l-6.7-17.8L282.6,134.2z
			 M262.3,134.4l6.4-8.9l6.7,17.8L262.3,134.4z M269.4,125.5l15,2.1l-1.7,6.3l-10.9-6.9L269.4,125.5z M248,126.5l20.3-1.1l-6.4,8.9
			L248,126.5z M239,129.4l2.7,1l2.1,36.6l-9.3-39.4L239,129.4z M243.4,166.5l-11-29.3l1.9-9.1L243.4,166.5z M242,130.4l5.3-3.8
			l-3.2,39.9L242,130.4z M261.9,134.5l-17.6,33.5l3.4-41.5L261.9,134.5z M113.3,216.4l4.5-3.7l-0.8,9.7l-0.4,4.7l-9.8-2.2l-0.4-0.9
			l-0.6-1.5L113.3,216.4z M190.8,279l24.6-9.8L198,279H190.8z M190.3,278.9l5.3-23.7l13.8,3.8l7.9,9.2L190.3,278.9z M247.8,263.7
			l-38.2-5l5.9-25.2L247.8,263.7z M248.1,264l-3.2,36l-10.6-12.4L209.8,259l20,2.6L248.1,264z M185.2,252.4l6,1.6l4.1,1.1l-5.2,23.3
			L185.2,252.4z M163.1,242.3l51.6-8.8L185,252L163.1,242.3z M215.2,233.5l-5.9,25.1l-13.9-3.8l0,0l-10.1-2.7L215.2,233.5z
			 M306.5,308.1l-61.3-7.9l3.2-36.1L306.5,308.1z M389.7,216.5l-16.8,5.8l0.6-21.3l27.5,11.6L389.7,216.5z M360.7,179.3L341.5,158
			l20-18.5L360.7,179.3z M426.2,135.3l-18.9-31.1l28.3,4.8l-7.8,21.9L426.2,135.3z M405.9,53.8L387,60.6l-0.7-3.1l-3.4-16.3l14,7.7
			L405.9,53.8z M387,62l23.3,28.1L387,85.4V62z M325.5,120.1l1.3-5.1l3.9,6.5l-4.5-1.3L325.5,120.1z M333.7,147.6l4-8.4l6.5,7.2
			l-9.1,1.1L333.7,147.6z M329.8,111.1l-0.2-1.7l1.7,1.9l7.4,8.4l-3.3,0.8l-4.3,1.1L329.8,111.1z M336.6,130.3l2.6-2.1l-1.4,9.7
			l-1.4-7.5L336.6,130.3z M337.9,138.8l1.6-10.7l21.6,10.9L337.9,138.8z M361,139.3l-16.4,7l-6.5-7.2L361,139.3z M339.1,120.1
			l21.6,18.3l-21.2-10.7L339.1,120.1z M352.7,119.4l8.6,19.2l-22-18.7L352.7,119.4z M383.1,106.4l16-4.9l7.3,2.4L383.1,106.4z
			 M329.6,109l5.9-2l3.1,12.3l-3.2-3.7L329.6,109z M343.8,119.5l-3.9,0.1l5.2-1.7l6.3,1.3L343.8,119.5z M336.2,107.1l8.9,3.5v6.7
			L336.2,107.1z M344.9,117.7l-5.9,1.9l-3.1-12.3L344.9,117.7z M335.8,106.7v-10l9,13.6L335.8,106.7z M356.8,106.7l-11.5,3.6
			l-9.2-13.9l12.6,6.2L356.8,106.7z M345.3,111l7,8.1l-7-1.4V111z M333.7,97.2l1.8-0.8v10.1l-9.2-5.9L333.7,97.2z M357.4,106.6
			l4.2-16.4l19.5,16.4L357.4,106.6z M362,90.2l19.4,1.9v14.3L362,90.2z M396.1,100l2.6,1.4l-17,5.2V92.2L396.1,100z M380.3,106.9
			l-22.1,5.7l-0.9-5.7H380.3z M357.9,112.6l-12.1-2.1l11.2-3.6L357.9,112.6z M354.2,117.3l-1.4,1.8l-7.2-8.3l12.3,2.1L354.2,117.3z
			 M337.4,138.2l-5.9-8.8l4.4,1.2L337.4,138.2z M336.4,130.1l2.4-9.3l0.4,7L336.4,130.1L336.4,130.1z M330.7,121.2l-3.9-6.5l2.4-5.2
			L330.7,121.2z M326.2,101.2l9,5.5l-5.8,2L326.2,101.2z M336.1,96.2l25.2-6l-4.2,16.4L336.1,96.2z M399.3,101.3l11.1-10.5l-3.5,13
			L399.3,101.3z M381.6,107.5l7.2,20.1l-30.2-14.8l22.9-5.9L381.6,107.5z M387.8,127.4l-34.7-8.2l5.1-6.2L387.8,127.4z M353,119.5
			l35.5,8.4L361.8,139l-6.4-14.3L353,119.5z M343.5,150.7l1.2-4.1l16.3-6.9l-1.6,1.5l-17.7,16.4L343.5,150.7z M342.9,151.8l-1.7,5.9
			l-7.5-9.8l10.6-1.3L342.9,151.8z M333.4,147.6l-10.1-4.7l12.2-3.3l1.9-0.5L333.4,147.6z M330.4,130.8l0.8-1.4l6.2,9.4l-14.2,3.8
			L330.4,130.8z M331.1,122.4l4.7,7.8l-4.5-1.2L331.1,122.4z M331.2,121.9l7.6-1.9l-2.6,10.1L331.2,121.9z M326.2,101.7l3,7.2
			l-2.4,5.1L326.2,101.7z M326.6,100.1l7.4-7.6l1.4,3.5l-0.2,0.1L326.6,100.1z M351.8,91l7.7-0.7L335.7,96l-1.4-3.5L351.8,91z
			 M399.1,101.2l-11.8-15.4l23.2,4.6L399.1,101.2z M387.3,61.8l23.3,4.4v23.6L387.3,61.8z M406.7,104.2l-17.6,23.4l-7.4-20.7
			L406.7,104.2z M323.6,141.4l7.2-18.8l0.3,6.6L323.6,141.4z M323.2,141.8l2.2-21.3l5.3,1.5L323.2,141.8z M324.7,112.8l0.9-8.2
			l0.2-2.1l0.6,12.2l-1.2,4.7L324.7,112.8z M325.9,100.5L307.6,98l5.1-1.1l17.2-3.6l3.7-0.8L325.9,100.5z M384.7,88.4l2.2-2.6
			l11.6,15.1l-11.3-6.1l-5.5-2.9L384.7,88.4z M386.7,85.1L368.1,65l18.6-4.1V85.1z M406.2,54l4.3,11.9L387,61.5v-0.6L406.2,54z
			 M421.6,148.4l-31.8-20.2l36.3,7.6L421.6,148.4z M389.3,127.8l17.7-23.5l18.9,31.2L389.3,127.8z M388.9,128.1l8.5,36.3L362,139.2
			L388.9,128.1z M397.4,164.7L361,179.5l0.8-40L397.4,164.7z M397.3,165.1l-23.9,35.4l-12.3-20.7l20.8-8.5L397.3,165.1z
			 M298.4,278.8l-4.6-15.4l39.6,20.9l19.9,10.5l-46.3,13.4L298.4,278.8z M364.2,250.5l25.3,4.8l-35.4,38.9L364.2,250.5z
			 M364.3,250.2l8.5-27.3l16.8,32.2L364.3,250.2z M396.9,319.2l-29.3-16.7l-13.5-7.7l35.7-39.2L396.9,319.2z M396.7,319.4
			l-46.5,25.3l3.7-49.7l15.4,8.8L396.7,319.4z M350,344.7l-42.7-36.3l46.3-13.4L350,344.7z M248.7,264l44.8-0.8l13.2,44.7L248.7,264
			z M294.1,263.2l69.8-12.7l-10.2,44.1L294.1,263.2z M357.5,233.9l14.9-11l-8.4,27L357.5,233.9z M372.6,222.3l-12.7-2.7l13.3-18.3
			L372.6,222.3z M342.3,183.2l-0.8-24.8l19.1,21.2L342.3,183.2z M341,157.9l-24.5-0.6l16.9-9.3l7.1,9.2L341,157.9z M316.3,157
			l6.7-14l10.2,4.7L316.3,157z M314.6,136.3l10.5-15.5l-2.3,21.8L314.6,136.3z M322.7,142.9l-6.7,13.9l-1.5-20.2L322.7,142.9z
			 M311.5,118.7l13-5.7l0.7,7L311.5,118.7z M325,120.3l-10.5,15.6l-3.4-17L325,120.3z M311.4,118.4l14.4-17.3l-0.6,5.4l-0.7,6.2
			L311.4,118.4z M325,100.6l-30.3,5.8l12-8.3L325,100.6z M361.7,89.9l6.2-24.5l13.4,26.5l-8.9-0.9L361.7,89.9z M368.4,65.8
			l18.3,19.7l-2,2.5l-3.1,3.7L368.4,65.8z M368.1,64.7l14.5-23.5l3.6,16.9l0.5,2.5L368.1,64.7z M368.1,64.2l3.7-27.1l10.6,3.7l0.1,0
			L368.1,64.2z M371.7,22.5l10.7,18l-2.4-0.8l-8.2-2.9L371.7,22.5z M371.9,22.3l35.9,18.3h-25L371.9,22.3z M408.3,41l-2.1,12.6
			l-20.1-11.1l-2.8-1.5H408.3z M439.6,72.5L410.9,90V66.3L439.6,72.5z M421.4,148.6l-23.6,15.9l-8.5-36.3L421.4,148.6z M397.5,165.2
			l3.7,47.2l-27.7-11.7L397.5,165.2z M401.2,212.9l-11.4,42l-16.8-32.3L401.2,212.9z M390,255.4l35.4-7.5l-28.3,70.9L390,255.4z
			 M397.5,319.5l40.4-8.5l-5.1,14.6l-3.8,10.8L397.5,319.5z M471,340.2l-8.1,46.9l-33.6-50.2L471,340.2z M398.8,370.2l-1.6,1.8
			v-52.3l31.6,17L398.8,370.2z M396.9,372.1L350.4,345l46.5-25.3V372.1z M299.3,359.3l2.3-14.7l5.6-35.9l42.7,36.3L299.3,359.3z
			 M288.2,347.3l-8.4-9.2l-34.3-37.5l61.5,7.9l-7.9,50.6L288.2,347.3z M217.4,268.5l2.7,42.1l-21.8-31.4L217.4,268.5z M219.9,311
			l-56.9-2.7l35-28.9L219.9,311z M164.3,306.7l25.8-27.5h7.5L164.3,306.7z M163,307.7l21.9-55l5,26.4L163,307.7z M133.8,212.8
			L117,226.9l0.3-3.7l0.9-10.6L133.8,212.8z M103.5,197.4l14.4,15l-6.2,5l-5.7,4.7L103.5,197.4z M103.5,197l14.4-13.7V212L103.5,197
			z M118.2,183.5l15.8,29l-15.8-0.2V183.5z M163,242l32.2-39.1l20.1,30.2L163,242z M215.2,208.2l2.4-39.3h26.2l-12.2,16.4
			L215.2,208.2z M217.7,168.6l14.5-31l11.6,31H217.7z M224.3,137.1l9.7-9.2l-1.9,9.2H224.3z M220.2,122.7l13.8,4.8l-10,9.4
			L220.2,122.7z M220.3,122.4l11.4-15.3l2.3,18.8l0.2,1.4L220.3,122.4z M232,107.2l15.3,19.1l-12.8,1.1l-0.4-3.7L232,107.2z
			 M247,126.6l-5.1,3.6l-3-1.2l-3.8-1.5L247,126.6z M248.9,111.8l0.2-2l19.2,15.3l0,0l-20.6,1.1L248.9,111.8z M249.2,109.6l3.9-1.5
			l6.6,7.4l7.7,8.6l-14.6-11.6L249.2,109.6z M255.5,106l9.2-8.4l-3.7,11.8l-7.5-1.6L255.5,106z M264.9,97.8l3.5,26.6l-7.2-14.8
			L264.9,97.8z M269.1,125.1l11.8-8.7l3.4,10.9L269.1,125.1z M284.6,127.2l-3.3-10.5l7.4,6.8L284.6,127.2z M274.6,149.7l-16,9.6
			l-14.1,9.1l17.6-33.6L274.6,149.7z M275.1,249.3L275.1,249.3l18.1,13.7l-44.8,0.8l3.2-32.2L275.1,249.3z M338.2,238.8l-44.1,23.8
			l16.4-22.5L338.2,238.8z M339.3,238.7l17.9-4.6l6.6,16L339.3,238.7z M357.5,233.5l2.2-13.6l12.6,2.7L357.5,233.5z M353.9,198.1
			l19.2,2.9l-13.4,18.5L353.9,198.1z M342.4,183.5l18.3-3.6l-7,17.7L342.4,183.5z M337.5,182.8l-8.8-0.8l12.6-23.5l0.7,24.7
			L337.5,182.8z M302.3,115.5l23-14.3l-14.4,17.4L302.3,115.5z M306.9,97.8l4.1-25.7l22.8,20.1l-12.7,2.6L306.9,97.8z M334.3,92.1
			l3.5-24.8l23.3,22.5l-19.4,1.6L334.3,92.1z M338.1,67.2l29.5-2.1l-6.2,24.6L338.1,67.2z M349.2,39.2l18.3,25.6L338,66.9
			L349.2,39.2z M322,44.1l26.9-5l-11.3,27.6L322,44.1z M349.5,39l22-2l-3.8,27.4L349.5,39z M410.8,90.6l24.4,18.1l-28-4.8l0.7-2.4
			L410.8,90.6z M458,107.7l1.9,11.7L436.5,109L458,107.7z M436,109.3l21,17.7l-18.8-1.9L436,109.3z M438.6,125.4l18.7,1.9l-7.1,8.9
			L438.6,125.4z M438,125.2l-11.4,10l1-2.9l8.1-22.7L438,125.2z M401.5,212.2l-3.7-47.1l23.6,12.9L401.5,212.2z M401.5,213
			l23.9,34.6l-35.4,7.4L401.5,213z M425.7,248.1l28.2,43.9l-56.6,27.2L425.7,248.1z M426,247.9l52.9,4.4l-24.7,39.5L426,247.9z
			 M453.6,292.5l-15.5,18.2l-39.8,8.4L453.6,292.5z M438.3,311l42.5-12l-51.4,37.3l3.7-10.4L438.3,311z M481.3,298.9l-10.2,41
			l-41.6-3.3L481.3,298.9z M506.7,369.1l-43.5,18.1l8.1-46.9L506.7,369.1z M462.7,387.2l-65.4-14.9l31.7-35.4L462.7,387.2z
			 M347,405.6l2.4-43.8l0.9-16.5l46.5,27.1l-22.2,14.8L347,405.6z M244.8,300.3l-24.4,10.6l-2.7-42.2L244.8,300.3z M162.9,307.3
			l5.2-49.5l16.7-5.5L162.9,307.3z M136.7,259.2l25.8-16.8l5.2,15.2l-11.3,0.6L136.7,259.2z M162.8,242.5l21.7,9.7l-16.6,5.4
			L162.8,242.5z M161.3,241.6l-44.2-14.4l17.1-14.4l27.9,29L161.3,241.6z M116.5,227.3l-6.7,5.1l-1.1-3l-1.6-4.3L116.5,227.3z
			 M103.3,196.8l-19.1-14.6l33.6,0.9l-3.5,3.4L103.3,196.8z M134.5,212.7l60.3-9.9L162.6,242L134.5,212.7z M173.8,192.1l43.2-22.9
			l-21.9,33.3L173.8,192.1z M217.3,169.3l-2.4,39.2l-19.5-6L217.3,169.3z M217.9,167.6l6.2-30.2h8L217.9,167.6z M217.4,168.5
			l-18.7-15.7l25.1-15.3L217.4,168.5z M198.9,152.3l21-29.5l3.8,14.3L198.9,152.3z M225.8,102l10.5-11.4l-4.7,15.8L225.8,102z
			 M236.7,90.4l11.9,19l-16.7-2.8L236.7,90.4z M248.8,109.7l-0.2,2.8l-1.2,13.5l-15.3-19.1L248.8,109.7z M249.1,109.3l-2.7-18.1
			l6.5,16.6L249.1,109.3z M253.7,93l11,4.1l-11.5,10.5l-6.9-17.4L253.7,93z M268.8,124.7l-3.6-27.3l12.1,7.8L268.8,124.7z
			 M277.6,105.1l10.7-21.6l0.3,0.2l5.3,23l0,0l0,0.1l7.8,8.8l0.1,0l8.8,3.2l3.5,17.5l1.5,21.1l0,0.1l12.5,24.8l0.1,0.1l13.6,1.2
			l11.5,14.4l6,21.8l-2.3,14l-18.4,4.7l-28.4,1.4l0,0l0,0l-35.2,9.1l-23.6-17.9l-20.2-17.5l-0.1,0l-16.1-4.9l28.9-39.8l14.6-9.4
			l16.2-9.7l0.1-0.1l0.8-6l7.1-9.5l0-0.1l1.8-6.7l4.4-4l0-0.1l1.1-4.7l-0.1-0.2l-9-2.6l-0.1,0l-11.9,8.7L277.6,105.1z M289,84.1
			L306.5,98l-12.3,8.5L289,84.1z M311.2,71.9l26.3-4.7L334,92L311.2,71.9z M311.1,71.6l10.7-27.3L337.5,67L311.1,71.6z M371.4,22.3
			l0.1,14.5l-21.8,1.9L371.4,22.3z M349.3,38.7l-8.2-26.1l30.1,9.5L349.3,38.7z M408.6,40.6l-1.4-29.3L428,33.8l-15.2,5.4
			L408.6,40.6z M427.6,34.2l-21.1,19.2l2.1-12.5l4.3-1.5L427.6,34.2z M406.5,53.9l43-12.7l-38.6,24.6L406.5,53.9z M439.9,72.6
			l10.5,29.6l-39.3-12L439.9,72.6z M450.2,102.5l-6,2.6l-8.3,3.6l-24.3-18L450.2,102.5z M460,119.8l-1.3,3.8l-1.2,3.4l-20.7-17.5
			L460,119.8z M450.1,136.8l4,17.6l-12.5-8.3l2.3-0.3l0.1-0.1l3.8-5.5L450.1,136.8z M443.6,145.6l-4.2,0.6l-3.6,0.5l2.4-20.6
			L443.6,145.6z M435.5,146.4l-9-10.7l11.4-10.1L435.5,146.4z M421.5,148.9v28.7L398,164.8L421.5,148.9z M426.1,215.7l-0.6,31.6
			l-23.8-34.4L426.1,215.7z M478.6,252l-52.5-4.3l24.8-18.2L478.6,252z M478.9,252.6l2.4,45.7l-27-6.4L478.9,252.6z M480.9,298.6
			l-42.4,12l15.6-18.3L480.9,298.6z M481.9,298.5l36.6-30l9.4,32.5l1.5,5.1l-29.4-4.7L481.9,298.5z M529.3,306.6l-22.3,62.3
			l-35.4-28.8L529.3,306.6z M522.9,444.5l-41.2-12.9l36.7-33.3l2.3,23.7L522.9,444.5z M481.4,431.5l-18.1-43.8l54.9,10.4
			L481.4,431.5z M463.6,387.4l43.3-18.1l7,17.6l4.3,10.9L463.6,387.4z M462.6,387.5l-33.5,14.9l-31.5-29.7L462.6,387.5z
			 M462.9,387.7l-12.5,60.6l-21.1-45.7L462.9,387.7z M428.9,402.6l-16.7,42l-13.3-64.3l-1.5-7.4L428.9,402.6z M337.9,397l-38.6-37.5
			l50.6-14.3l-3.3,60.3L337.9,397z M279.3,338.1l-49,6.7l14.8-44.2l31.8,34.8L279.3,338.1z M230.1,344.5l-9.7-33.3l24.3-10.6
			L230.1,344.5z M229.8,344.7l-66.6-36.1l56.9,2.7L229.8,344.7z M162.5,307.9l-26-48.3l16.9-0.9l14.4-0.8L162.5,307.9z M160.5,241.7
			l-50.4-9l6.7-5.2L160.5,241.7z M109.5,232.7l-14.4,10.8l10.6-20.8l0.1,0.4L109.5,232.7z M94.8,243.6l-8.4-28.4l19.2,7.2
			L94.8,243.6z M82.7,204.8l1.1-22.6l19.2,14.7L82.7,204.8z M70.1,156.5l17-15.2l27.1,19l-23.4-2L70.1,156.5z M159.5,185.4l13.9,6.8
			l0,0v0l0,0l0,0l6.3,3.1l14.9,7.3l-60,9.9L159.5,185.4z M173.9,191.7l24.5-38.7l18.8,15.7L173.9,191.7z M198.6,152.2l4.3-26.7
			l16.7-2.8L198.6,152.2z M203.1,125.2l12.4-20.4l3.2,13.2l1.1,4.4L203.1,125.2z M218.8,103.8l6.7-1.6l5.6,4.3l-14.8-2.1
			L218.8,103.8z M237,90.1h9l2.7,18.7L237,90.1z M287.9,83.7l-10.5,21.2l-12.1-7.8L287.9,83.7z M288.8,83.2l21.9-11.1l-4.1,25.6
			l-17.7-14.1L288.8,83.2z M314.4,28.5l34.2,10.3l-26.7,4.9L314.4,28.5z M314.5,28.2l26.3-15.7l8.2,26.2L314.5,28.2z M341.5,12.3
			l34.9-7.7l-5,17.2L341.5,12.3z M377,4.7l29.9,6.3l1.4,29.4L377,4.7z M407.8,11.5L430.7,24l-2.5,9.5L407.8,11.5z M449.4,40.7
			l0.5,0.2l-43.1,12.7L428.3,34L449.4,40.7z M450.5,41.2l9.9,19.8l-20.2,11.1L450.5,41.2z M458.3,81.4l-18-9l20.1-11.1L458.3,81.4z
			 M458.3,81.7l2.5,1.3l-10.2,19.1l-10.4-29.4L458.3,81.7L458.3,81.7z M463.8,100.7l-5.7,6.7l-2.7-1.8l-4.4-3L463.8,100.7z
			 M463.9,101l-3.7,17.9l-1.9-11.3L463.9,101z M457.3,127.7l-3.1,26.2l-3.9-17.4L457.3,127.7z M454.1,154.8l-14,15.4l1.2-23.8l0-0.1
			L454.1,154.8z M435.3,146.7l-13.4,1.8l4.4-12.5L435.3,146.7z M435.3,147l-13.5,30.2v-28.4L435.3,147z M450.6,229.3l-19.1,14
			l-5.7,4.2l0.6-31.6L450.6,229.3z M451.1,229.3l9.6-9.7l17.8,31.9L451.1,229.3z M479.2,252.4l39,15.9l-36.6,30L479.2,252.4z
			 M479.4,252.1l20.9-17.4l17.9,33.2L479.4,252.1z M500.7,234.8l51.5,24.6l-33.6,8.7L500.7,234.8z M552.4,259.7l-22.8,46.2
			l-10.9-37.5L552.4,259.7z M529.6,306.8l37.2,72.6l-48.2,18.4L529.6,306.8z M567,378.9l-37.2-72.5h41.1L567,378.9z M552.4,478.1
			l-29.2-33.4l24.6-26.1L552.4,478.1z M506.4,509.1l-24.8-77.2l41.3,12.9L506.4,509.1z M481.2,431.6l-30.5,16.9l12.5-60.5
			L481.2,431.6z M450.3,448.8l-4.2,6.8l-16.2-50.8L450.3,448.8z M428.9,403.5l-2.8,52.2l-13.8-10.6L428.9,403.5z M346.5,405.8
			l-73.1,15l25.7-61.1L346.5,405.8z M279,338.4l-48.8,32.4v-25.7L279,338.4z M180.9,343.3l-18-34.6l66.5,36.1L180.9,343.3z
			 M151.8,340.5l-18.7-1.8l29.4-30.1l18,34.7L151.8,340.5z M162.1,308.6l-29.3,30l-23-16.4L162.1,308.6z M109.7,322l16.1-45.7
			l36.5,32L109.7,322z M125.9,276l10.3-16.3l25.9,48L125.9,276z M136.2,259.2l-13.4-10.9l39.1-5.8l-21.5,14L136.2,259.2z M122.5,248
			L110.1,233l51.6,9.2L122.5,248z M122.1,248l-27-4l14.6-11L122.1,248z M121.3,248.2l-14.1,1.7l-11.5-5.6L121.3,248.2z M94.4,243.4
			l-3.4-4.2l-2.1-14.7L94.4,243.4z M94.5,244l-5.6,2.6l0.8-3.1l1.1-4L94.5,244z M90.5,238.9l-24-8.7l15.5-7.6l5.3,10.2L90.5,238.9z
			 M79.6,247.6L68.9,248l-2.6-17.3l3.7,4.7L79.6,247.6z M66,230.5l2.6,17.4L55,240.8L66,230.5z M58.1,229.3l7.3-4.1l0.5,4.8
			L58.1,229.3z M75,186.6l8.5-4.4l-1.1,22.6l-20.1-11.5L75,186.6z M83.4,181.8l-17.8-2.5l4.2-22.2L83.4,181.8z M35,191.1l11.6-18.5
			l7.3-11.6L53,193.8L35,191.1z M54.2,161l11.1,18.4l-11.9,14.1L54.2,161z M67.1,157.4l2.4-0.6L65.3,179l-11.1-18.4L67.1,157.4z
			 M69.7,156.4l-16.5-14.9l33.5-0.3L69.7,156.4z M52.7,141.2l-18-12.1l26.6-0.7L52.7,141.2z M34.5,128.8l5.2-13l11.2,6.4l10.2,5.9
			L34.5,128.8z M264.8,96.5l-13-18l10.5,1.9L264.8,96.5z M289.8,65.9l-1.4,16.8l-0.1,0.2l-6.1-14.1L289.8,65.9z M290.5,61.1l20,10.7
			l-21.8,11.1l0-0.2L290.5,61.1z M314.1,28.7l7.5,15.2l-13.7,4.2L314.1,28.7z M464,122.3l-2.9-2.2l-0.7-0.5l3.7-17.7L464,122.3z
			 M462.7,121.7l-8,30.9l3-25.3l1.3-3.6l1.3-3.7L462.7,121.7z M439.4,177.6l-17.5,0.2l13.8-30.8l2.7-0.4l2.6-0.3l-1.2,24.4l0,0
			L439.4,177.6z M444.6,203.2l-18,12l12.9-36.9L444.6,203.2z M460.5,219.3L451,229l-6-25.2L460.5,219.3z M461.1,219.6l38.9,14.9
			l-20.9,17.4L461.1,219.6z M570.9,306.1h-41.1l22.8-46.3L570.9,306.1z M558.1,398.1l-5.5,78.4l-4.5-58.2L558.1,398.1z M506.8,509.6
			l45.7-30.8l2.1,52.7L506.8,509.6z M476.6,489.7l-27,13.6l-1.8-0.2l8.8-18.6L476.6,489.7z M434.9,511l6.7-3.4l71,20.3l-47.4,11.4
			L434.9,511z M434.7,510.8l-7.9-7.4l14.5,4.1L434.7,510.8z M437.7,479.3l-8.6-2.2l-0.2,0.1l-9,12.4h-43.7l75.7-29.1L437.7,479.3z
			 M429.1,477.4l8.4,2.2l-7.5,10h-9.7L429.1,477.4z M437.8,479.6l18.5,4.8l-8.8,18.7l0.1,0.2l1.5,0.2l-7.5,3.8l-15.4-4.4l-0.1,0.3
			l8.3,7.8l-46.9,23.6l32.5-44.7h10l0.1-0.1L437.8,479.6z M456.8,484.2l24.6-52.1l24.9,77.4l-56-6.2l26.9-13.5l0-0.3L456.8,484.2z
			 M426.4,455.8l2.8-52.4l16.7,52.4H426.4z M347,406.2l64.8,38.9L364.1,474L347,406.2z M346.4,406.1l-36.3,45.2l-0.9-0.7l-35.7-29.4
			L346.4,406.1z M273.4,421.4l36.5,30.1l-23.7,56.6L273.4,421.4z M273.4,420.1l3.4-54.4l10.1-2.8l11.9-3.3L273.4,420.1z
			 M230.7,370.9l48.8-32.4l-1,9.5l-1.9,17.5L230.7,370.9z M228,345.1l1.9,0.1v25.5l-16.8-26L228,345.1z M120.1,254.4l2.3-5.9
			l13,10.6L120.1,254.4z M107.6,250.1l14.5-1.8l-2.4,6l0,0l-0.9,2.3L107.6,250.1z M102.5,248l-13.3-1.2l5.5-2.6L102.5,248z
			 M88.1,248.3l-7.8-0.7l10.2-8l-2,7.2l0,0L88.1,248.3z M53.4,207.7l-18.1-16.2l17.8,2.6L53.4,207.7z M38.3,216.4l-0.1-0.9l14.8-7
			l-7.1,8.9L38.3,216.4z M32.8,118.4l6.6-2.6l-5.1,12.6L32.8,118.4z"/>
		<path class="st1" d="M273.1,521.1l0,0.3l60.9,21l0.2-0.2l-12.5-23.6l53.7-4.4l0.1-0.3l-31.1-31.7l2.4-0.9l0.1-0.2l-7.9-43.4
			l-0.3,0L310,494.2l0.2,0.2l19.7-7l-12.5,23.1l-1-1.9l-0.2-0.1L273.1,521.1z M344.2,482.1l-7.2-7.3l-0.2,0l-6.6,12.3l-19.7,6.9
			l28.4-55.6l7.8,42.8L344.2,482.1z M336.9,475.1l7,7.1l-13.3,4.7L336.9,475.1z M321.5,518.3l-4-7.5l12.8-23.6l13.8-4.9l31,31.5
			L321.5,518.3z M321.2,518.4l-8.1,0.7l4.3-7.9L321.2,518.4z M273.7,521.3l42.5-12.4l1,1.9l-4.5,8.3l0.1,0.2l8.5-0.7l12.4,23.4
			L273.7,521.3z"/>
		<path class="st1" d="M571,444.7l-7.1,33.9l0,0.1l31.4,46.9l0.3-0.1l-24.3-80.8L571,444.7z M564.2,478.5l6.9-33.2l23.9,79.3
			L564.2,478.5z"/>
		<path class="st1" d="M587.2,395.2l0-0.1l-5.5-38.7l-0.3,0L571,418.5l0.3,0.1L587.2,395.2z M586.9,395.1l-15.6,22.8l10.2-60.5
			L586.9,395.1z"/>
	</g>
	<g>
		<polygon class="st2" points="69.7,156.6 52.8,141.4 34.3,128.9 32.6,118.3 39.7,115.5 61.7,128.2 87.1,141.1 114.2,160 
			83.6,145.7 76.3,148.3 79.9,141.4 60.9,132.6 56.5,135.9 56.5,128.9 44.4,121.1 36.3,122.2 45.4,132 65.6,145.7 76.5,152.3 		"/>
		<polygon class="st2" points="83.6,181.9 65.4,179.4 53.2,193.9 53.5,208 46.2,217.2 38.2,216.5 34.8,191.3 54,160.5 69.7,156.6 
			114.2,160 133.7,166.2 111.9,164.9 72,162 69.7,168.8 66.1,162.5 57.1,165.5 55.9,174.8 50.3,174.9 40,192 44.4,197.8 38.3,201.9 
			42.5,208.7 50.2,200.5 48.8,188.8 54.8,188.2 63.4,171.2 72,177.2 87.1,174.9 		"/>
		<polygon class="st2" points="103.3,196.9 82.5,205 82,222.3 90.8,239.2 88.3,248.4 79.9,247.7 66.1,230.2 61.9,193.3 83.6,181.9 
			104.2,175.5 86.2,185.3 87.1,191.3 76.9,189.4 65.6,196.9 72,204.2 66.1,206.6 69.1,227.4 75.9,222.4 75.4,230.2 83.1,242.2 
			83.6,232.5 78.4,219.8 79.9,197.8 83.6,200.3 		"/>
		<polygon class="st2" points="134.2,212.6 118,212.4 105.8,222.3 109.7,232.7 122.4,248.2 119,257 107.2,250 94.7,244 86.2,215 
			103.3,196.9 117.4,183.4 136.2,179.4 144.2,185.3 129.9,185.3 119.9,188 129.7,193.9 113.3,196 94.7,210.6 96,219.8 90.8,218.2 
			97.6,238.4 103.3,239 103.4,244 116.8,250.8 110.7,240.8 102.2,225 104.2,214 109.4,214.6 116.8,206.6 119.9,200.8 125,207.1 
			132.6,209.6 139.7,203.3 		"/>
		<polygon class="st2" points="209.5,258.8 185,252.1 162.6,242.2 134.2,212.6 152,205.6 147.3,213.7 163.9,230.2 175.1,222.4 
			171.8,233.2 183.6,238.8 194.2,229.4 186.4,245.7 208.8,252.1 226.5,245.1 		"/>
		<polygon class="st2" points="133.7,166.2 159.4,185.3 195.1,202.6 231.3,213.7 207.4,212.4 178.1,202.6 152.8,186.9 		"/>
		<polygon class="st2" points="185,252.1 167.9,257.7 136.2,259.4 119.9,254.5 136.2,255.3 130.2,247 116.8,230.8 134.2,240 
			147.3,250.4 166,252.1 		"/>
		<polygon class="st2" points="173.5,192.1 198.4,152.8 202.8,125.4 215.6,104.4 225.6,102 236.7,90 246.1,90 251.5,78.3 
			262.4,80.3 265,97.1 261.1,109.5 253.2,107.9 259.1,100.6 258.1,91.2 254.1,81.9 247,96.5 248.9,109.5 247.5,126.4 241.9,130.4 
			234.3,127.5 242.6,120.2 239.6,110.6 241.4,100.6 231.7,98.9 231.7,106.7 234.3,127.5 232.2,137.2 224.2,137.2 220,122.5 
			212.5,118.5 220.9,118.3 225.6,127.5 230.4,133.9 232.4,126.4 227.7,124.5 229.8,121.5 229.9,114.4 222.7,111.6 227.8,108.5 
			222.6,104.4 215.6,110.8 206.1,126.4 206.1,146.2 210.4,160.4 224.9,165.7 214.4,156.2 215,142.6 221,157 235.6,165.6 
			244.1,168.8 227.6,172.4 212,171.7 197.3,171.2 190.9,184.5 197.3,192.1 		"/>
		<polygon class="st2" points="290,65.7 281.9,68.8 265,97.1 273,96.5 272.5,86.3 277.5,78.3 286.4,75.4 		"/>
		<polygon class="st2" points="268.7,125.2 281,116.2 290,118.8 288.3,124.1 284.6,127.5 282.6,134.5 275.6,143.7 274.9,149.7 
			244.1,168.8 240.3,153 248.4,157.4 267.6,148.1 262.7,139.8 273.3,142.1 276.7,134.2 275.6,127.5 281.6,127.9 283.9,120.9 
			277.5,121.8 		"/>
		<polygon class="st2" points="258.1,132.3 268.7,125.2 277.5,105.1 288.3,83.3 289.5,71.8 283.6,86.1 275.6,103.3 268.9,101.5 
			273,109.5 265,121.1 254.8,123.1 263.9,124.2 		"/>
		<polygon class="st2" points="225.6,155.4 233.3,145.5 253.2,137.6 259.9,137.2 249.8,134.5 240.3,137.6 238.4,130.4 233.2,139.8 
			225.6,149.7 		"/>
		<polygon class="st2" points="294.1,106.8 288.3,83.3 290.4,60.9 297.5,51.4 321.8,44 349.2,38.9 371.7,36.9 382.7,40.8 
			386.9,61.6 386.9,85.5 381.5,92 361.5,90 334.1,92.3 306.7,98 296.8,104.9 300.6,87.7 322.9,86.1 342.3,70.1 366.7,74.6 
			371.7,58.6 346.4,56.6 319.8,56.6 313,71.8 299.6,64.9 293,84.9 		"/>
		<polygon class="st2" points="407,104 399,101.4 381.5,92 400.3,96.5 406.3,81.4 407,62.3 382.7,40.8 406.3,53.8 410.7,66.1 
			410.7,90.3 		"/>
		<polygon class="st2" points="335.6,96.1 325.9,100.8 324.6,112.8 325.3,120.2 330.9,121.8 338.9,119.8 329.7,119.8 326.9,115.4 
			329.4,108.9 330.9,102.5 		"/>
		<polygon class="st2" points="335.6,106.8 345.2,110.6 345.2,117.7 338.9,119.8 352.8,119.3 358.1,112.8 345.2,105.7 		"/>
		<polygon class="st2" points="322.9,142.9 331.2,129.2 336.2,130.5 339.3,127.9 361.7,139.2 344.6,146.5 333.5,147.8 325.6,144.1 
			336.2,143.7 350.3,139.8 336.2,141 326.9,142.1 332.7,137.9 347.8,136.3 340.4,132.3 330.3,133.4 		"/>
		<polygon class="st2" points="310.9,118.8 314.4,136.3 315.9,157.4 328.4,182.2 342.1,183.4 360.9,179.7 397.7,164.8 421.7,148.6 
			426.3,135.7 435.8,108.9 418.9,130.9 409.7,147.8 380.3,162.3 363.5,167.2 349.7,154.8 353.6,169.6 331.7,173.2 323.8,159.5 
			319.5,138.9 		"/>
		<polygon class="st2" points="406.3,109.7 379.7,130.5 369.3,154.8 386.9,137.2 400.1,130.2 		"/>
		<polygon class="st2" points="357.2,106.8 381.5,106.8 407,104 379.7,101.4 358.1,101.4 335.6,96.1 		"/>
		<polygon class="st2" points="294.1,106.8 301.9,115.5 310.9,118.8 324.6,112.8 313.2,112.8 		"/>
		<polygon class="st2" points="426.3,135.7 435.6,146.8 443.8,145.7 450.1,136.5 457.5,127.2 460.1,119.7 458.1,107.5 450.6,102.5 
			435.8,108.9 446.6,113.7 453.8,114.2 450.6,127.2 441.8,138.3 434.3,136 438.9,117.3 433.4,122.6 431.5,134.6 		"/>
		<polygon class="st2" points="407,104 435.8,108.9 430.6,98.4 		"/>
		<polygon class="st2" points="410.7,66.1 440,72.4 461.1,82.9 464.1,100.5 464.1,122.6 460.1,119.7 460.8,98.4 452.1,81.6 
			430.6,76 427.5,84.1 		"/>
		<polygon class="st2" points="342.1,183.4 353.8,197.9 359.6,219.7 357,234 364.1,250.4 389.8,255.3 425.7,247.7 450.9,229.3 
			460.8,219.3 444.8,203.3 439.5,177.7 441.1,146.1 430.6,179.7 439.9,216.3 426.3,228.3 416.3,210 415.1,182.8 418.4,156.6 
			410.3,188.7 407.7,212.6 411.7,230.2 405.4,235.3 401.4,207.7 398.4,237.4 379.7,243.9 372.7,218.6 364.1,195.5 366.5,221.9 
			366.5,234 360.9,208 350.3,186.2 		"/>
		<polygon class="st2" points="389,178.9 372,198.6 385.4,211.6 391.4,194 381.7,197.9 		"/>
		<polygon class="st2" points="231.3,213.7 251.5,231.3 295.1,263.9 353.8,294.8 397,319.4 429.1,336.7 455.3,351.9 485,390.2 
			446.1,365.6 383.7,344.5 331.3,297 283.6,273.8 235.6,242.1 220.2,222.5 198.4,217.2 		"/>
		<polygon class="st2" points="209.5,258.8 245,300.4 279.6,338.2 299.1,359.5 346.8,405.9 412.1,445.1 426.2,456 446.1,456 
			450.4,448.8 481.4,431.7 518.5,398 467.8,427.2 444,427.2 430.1,445.1 417.6,424.7 391.7,423.2 336,385.6 302.1,340.1 
			259.6,300.4 		"/>
		<polygon class="st2" points="136.2,259.4 125.7,276.2 109.4,322.2 132.8,338.8 180.4,343.5 230.1,345 182.5,328.1 142.5,326.7 
			119.9,313.6 131,289.7 		"/>
		<polygon class="st2" points="195.1,255.3 190.1,279.1 198.1,279.1 191.4,297.3 185,283.1 162.6,289.7 185,276.1 		"/>
		<polygon class="st2" points="429.1,336.7 438.1,310.8 454.1,292.1 492.9,292.1 542.8,298.6 496.3,302 500.1,310.8 535.6,322.7 
			550.3,336.7 505.5,322.7 471.2,319.9 455.3,325.9 505.5,340.1 537.5,359.5 548,392.4 503.4,351.9 531.4,397.4 523.1,444.7 
			518.5,398 507,369.2 471.2,340.1 		"/>
		<polygon class="st2" points="467.8,259.4 454.1,292.1 438.1,310.8 419.1,323.8 434.4,306.3 435.8,282.9 446.1,293.6 		"/>
		<polygon class="st2" points="423.7,263.9 393.7,289.7 401.4,313.6 423.7,282.9 404.9,288.7 		"/>
		<polygon class="st2" points="341.3,258.8 369.8,296.7 328.4,272.6 		"/>
		<polygon class="st2" points="460.8,219.3 500.3,234.5 552.6,259.4 571.1,306.3 567.1,379.5 548,418.2 523.1,444.7 546.8,405.9 
			561.2,357.4 553.2,303.8 548,263.9 505.5,251.6 		"/>
		<polygon class="st2" points="275.2,250.4 310.5,240 338.6,238.8 357,234 333.8,250.9 307,247.7 		"/>
		<polygon class="st2" points="190.1,279.1 217.5,268.3 211,285.7 235.9,322.2 241.4,356.1 276.7,365.6 230.1,371.2 230.1,345 
			220.2,311.1 198.1,279.1 		"/>
		<polygon class="st2" points="279.6,338.2 276.7,365.6 273.2,421 286.1,508.7 291.6,445.1 279.6,409.6 293.6,374.2 		"/>
		<polygon class="st2" points="307.6,48.3 314.1,28.3 340.9,12.3 376.6,4.4 407,10.9 430.9,24 387.8,12.3 343.9,22 371.5,22 
			330.8,31.4 		"/>
		<polygon class="st2" points="406.3,53.8 408.4,40.8 428.3,33.8 450.4,40.8 460.6,61.1 458.1,81.4 447.8,53.8 425.4,46.7 		"/>
	</g>
	<g>
		<polygon class="st3" points="381.5,44.9 382.2,70 364.9,56.7 		"/>
		<polygon class="st3" points="354.4,45.6 304.3,51.6 326.4,56.5 		"/>
		<polygon class="st3" points="374.8,84.9 310.7,87.7 341.5,70.8 		"/>
		<polygon class="st3" points="306.5,63.7 334.4,79.8 301.7,89.2 		"/>
		<polygon class="st3" points="294.4,63.7 293.2,83.4 299.1,74.4 		"/>
		<polygon class="st3" points="376,74.8 380.3,87.7 361.5,87.7 		"/>
		<polygon class="st3" points="319.9,92 300.7,97.2 306.5,91 		"/>
		<polygon class="st3" points="354.1,49.3 353.9,65.3 342.1,62 		"/>
		<polygon class="st3" points="404.3,61.2 403.7,96 396.1,75.2 		"/>
		<polygon class="st3" points="429.5,79 456,89.8 424.9,95 		"/>
		<polygon class="st3" points="353.9,190.6 363,220 368.1,199.9 		"/>
		<polygon class="st3" points="367.3,237 396.1,252.7 374.8,225.2 		"/>
		<polygon class="st3" points="440.1,226.2 408.7,242.7 419.9,221.9 		"/>
		<polygon class="st3" points="182.5,191.5 201.2,156.5 210.6,172.2 		"/>
		<polygon class="st3" points="41.4,212.4 39.4,189.4 51.1,202.9 		"/>
		<polygon class="st3" points="72.9,191.5 64.3,202.9 76.2,230.8 		"/>
		<polygon class="st3" points="119.3,186.9 90.5,215.2 108.5,204.8 		"/>
		<polygon class="st3" points="92.2,160 56.8,163.1 80.3,168.9 		"/>
		<polygon class="st3" points="36.1,120.8 58.1,142.3 48.5,123.7 		"/>
		<polygon class="st3" points="142.4,219.7 170.9,245.2 172.1,230.4 		"/>
		<polygon class="st3" points="148.8,193.4 135.3,209.7 167.7,205.6 		"/>
		<polygon class="st3" points="179.2,244.7 224.2,260.9 230.3,245 		"/>
		<polygon class="st3" points="238.5,279.8 321.5,327.9 315.1,357.6 		"/>
		<polygon class="st3" points="324.9,375.4 399.4,432.1 384.8,396.1 		"/>
		<polygon class="st3" points="431.1,413 447.9,445.7 420.6,445.7 		"/>
		<polygon class="st3" points="373.5,314.6 447.9,360.4 381.4,349.3 		"/>
		<polygon class="st3" points="231.6,226.6 270.8,264.2 273.2,252 		"/>
		<polygon class="st3" points="133.7,285.2 115.2,324.8 155.6,332.1 		"/>
		<polygon class="st3" points="182.1,316 137.2,315.1 176.7,333 		"/>
		<polygon class="st3" points="471,286.2 449.6,322.5 484.1,311.7 		"/>
		<polygon class="st3" points="301.9,395 296.9,451.3 282.9,426 		"/>
		<polygon class="st3" points="476.3,339.8 526.4,388.2 510.5,349.3 		"/>
		<polygon class="st3" points="302.3,273.7 354.6,307.7 304.6,291.6 		"/>
		<polygon class="st3" points="423.3,127.2 399.7,157.7 380.8,153.5 		"/>
		<polygon class="st3" points="368.8,171.9 334.9,181 350.8,168.8 		"/>
		<polygon class="st3" points="411.5,168.4 401,224.4 418,202.4 		"/>
		<polygon class="st3" points="482.1,234.7 542.8,259.2 498.8,259.2 		"/>
		<polygon class="st3" points="542.3,442 541.4,503.9 500.7,464.8 		"/>
		<polygon class="st3" points="480.9,399.9 444.9,416 456.4,378.9 		"/>
		<polygon class="st3" points="257.3,146.2 228.9,168.4 228.7,148.4 		"/>
		<polygon class="st3" points="314.7,126.3 319.8,160 323.4,131 		"/>
		<polygon class="st3" points="326.7,101.7 335.8,97.7 328,113.1 		"/>
		<polygon class="st3" points="346.9,110.9 347.7,117.3 354.6,112.7 		"/>
		<polygon class="st3" points="404.6,115.3 378.5,129.8 376.6,144.7 		"/>
	</g>
</g>
</svg>
