<svg xmlns="http://www.w3.org/2000/svg" width="32" height="32" viewBox="0 0 32 32" fill="none" class="d-none" data-project-partial-target="polygonChainIcon">
    <path d="M16 32C24.8366 32 32 24.8366 32 16C32 7.16344 24.8366 0 16 0C7.16344 0 0 7.16344 0 16C0 24.8366 7.16344 32 16 32Z" fill="#8247E5"></path>
    <path d="M21.2959 12.5767C20.9122 12.3535 20.4133 12.3535 19.9911 12.5767L16.9978 14.2884L14.9638 15.4046L11.9705 17.1163C11.5867 17.3395 11.0878 17.3395 10.6657 17.1163L8.28633 15.7767C7.90258 15.5535 7.63394 15.1442 7.63394 14.6977V12.0558C7.63394 11.6093 7.86418 11.2 8.28633 10.9767L10.6273 9.67444C11.0111 9.45117 11.5099 9.45117 11.9321 9.67444L14.273 10.9767C14.6568 11.2 14.9255 11.6093 14.9255 12.0558V13.7675L16.9594 12.614V10.9023C16.9594 10.4558 16.7291 10.0465 16.307 9.82327L11.9705 7.36746C11.5867 7.1442 11.0878 7.1442 10.6657 7.36746L6.25237 9.82327C5.83026 10.0465 5.59999 10.4558 5.59999 10.9023V15.8512C5.59999 16.2977 5.83026 16.707 6.25237 16.9302L10.6657 19.3861C11.0494 19.6093 11.5483 19.6093 11.9705 19.3861L14.9638 17.7116L16.9978 16.5582L19.9911 14.8837C20.3749 14.6605 20.8738 14.6605 21.2959 14.8837L23.6369 16.1861C24.0207 16.4093 24.2893 16.8186 24.2893 17.2651V19.907C24.2893 20.3535 24.059 20.7628 23.6369 20.9861L21.2959 22.3256C20.9122 22.5488 20.4133 22.5488 19.9911 22.3256L17.6502 21.0233C17.2664 20.8 16.9978 20.3907 16.9978 19.9442V18.2325L14.9638 19.3861V21.0977C14.9638 21.5442 15.1941 21.9535 15.6162 22.1767L20.0295 24.6326C20.4133 24.8558 20.9122 24.8558 21.3343 24.6326L25.7476 22.1767C26.1313 21.9535 26.4 21.5442 26.4 21.0977V16.1488C26.4 15.7023 26.1697 15.293 25.7476 15.0698L21.2959 12.5767Z" fill="white"></path>
</svg>